<?xml version="1.0" standalone="no"?>
<!DOCTYPE svg PUBLIC "-//W3C//DTD SVG 1.1//EN" "http://www.w3.org/Graphics/SVG/1.1/DTD/svg11.dtd" >
<svg xmlns="http://www.w3.org/2000/svg" xmlns:xlink="http://www.w3.org/1999/xlink" version="1.1">
<metadata></metadata>
<defs>
<font id="sri_sury_wongseregular" horiz-adv-x="0" >
<font-face units-per-em="2048" ascent="1638" descent="-410" />
<missing-glyph horiz-adv-x="442" />
<glyph unicode="ff" horiz-adv-x="856" d="M53 688v80h70q20 0 20 18v54q0 63 17.5 109t46.5 73.5t75 44t94 22t113 5.5v-107q-37 25 -100 25q-143 0 -143 -166v-60q0 -18 24 -18h185l-19 -80h-174q-16 0 -16 -16v-555q1 -30 8 -57t14 -40t11 -16v-10q-63 10 -84 10q-16 0 -36.5 -2.5t-32.5 -5.5l-13 -2v10 q3 3 9 15.5t13 40t8 57.5v553q0 18 -16 18h-74zM438 688v80h70q20 0 20 18v54q0 63 17.5 109t46.5 73.5t75 44t94 22t113 5.5v-107q-37 25 -100 25q-143 0 -143 -166v-60q0 -18 24 -18h185l-19 -80h-174q-16 0 -16 -16v-555q1 -30 8 -57t14 -40t11 -16v-10q-62 10 -84 10 q-16 0 -36.5 -2.5t-33.5 -5.5l-12 -2v10q3 3 9 15.5t13 40t8 57.5v553q0 18 -16 18h-74z" />
<glyph unicode="fi" horiz-adv-x="776" d="M53 688v80h70q20 0 20 18v54q0 63 17.5 109t46.5 73.5t75 44t94 22t113 5.5v-107q-37 25 -100 25q-143 0 -143 -166v-60q0 -18 24 -18h373v-655q1 -28 8 -55.5t13.5 -41t9.5 -16.5v-10q-58 10 -82 10q-16 0 -37 -2.5t-34 -5.5l-13 -2v10q4 3 11 16.5t14 40.5t8 56v530 q0 45 -49 45h-230q-16 0 -16 -16v-555q1 -30 8 -57t14 -40t11 -16v-10q-63 10 -84 10q-16 0 -36.5 -2.5t-32.5 -5.5l-13 -2v10q3 3 9 15.5t13 40t8 57.5v553q0 18 -16 18h-74z" />
<glyph unicode="fl" horiz-adv-x="790" d="M55 688v80h70q20 0 20 18v54q0 75 22.5 125.5t67 77.5t97.5 38t127 13q3 0 17 -5t40 -10.5t59 -5.5l72 4v-960q1 -29 8 -56t14 -40.5t11 -16.5v-10q-62 10 -84 10q-16 0 -36.5 -2.5t-33.5 -5.5l-12 -2v10q3 3 9.5 16.5t13.5 41t8 55.5v807q0 92 -119 92q-178 0 -178 -170 v-60q0 -18 24 -18h185l-19 -80h-174q-16 0 -16 -16v-555q1 -30 8 -57t14 -40t11 -16v-10q-63 10 -84 10q-16 0 -36.5 -2.5t-32.5 -5.5l-13 -2v10q3 3 9 15.5t13 40t8 57.5v553q0 18 -16 18h-74z" />
<glyph unicode="st" horiz-adv-x="1095" d="M53 584q0 86 74.5 133t177.5 47q28 0 103 -6q-50 64 -50 133q0 95 67.5 162t162.5 67q89 0 154.5 -59.5t74.5 -147.5l2 -34v-109h103q24 0 43.5 3t26.5 6l7 3v-94h-180v-444q0 -52 12.5 -86.5t35.5 -50.5t44.5 -21.5t49.5 -5.5t53 6t36 12l11 6v-108q-91 0 -150 9.5 t-106 36.5t-68.5 78t-21.5 130v438h-107l13 49q61 2 104 47q43 46 43 107q0 76 -50 130t-130 54q-84 0 -136.5 -50.5t-52.5 -133.5q0 -81 52 -141q55 -27 75 -54q17 -22 8.5 -51t-40.5 -29q-21 0 -35.5 12t-22 25.5t-10.5 14.5q-50 16 -107 16q-72 0 -116.5 -26t-44.5 -74 q0 -19 7 -36t15.5 -28.5t30 -27t35.5 -24.5t47 -28q56 -34 90.5 -58.5t71.5 -58.5t54 -71t17 -80q0 -86 -67.5 -134t-169.5 -48q-45 0 -100 6t-74 6q-6 0 -14 -3t-13 -6l-4 -3q8 30 8 57l-8 90h4q51 -61 186 -61q61 0 104.5 26.5t43.5 67.5q0 40 -26.5 66.5t-106.5 74.5 q-40 24 -54.5 33t-47 31.5t-45.5 35t-35 35t-30.5 41.5t-16 44.5t-7.5 52.5z" />
<glyph unicode="&#xe4f;&#x22;" horiz-adv-x="907" d="M104 334q0 -145 101 -246q100 -100 246 -100q143 0 243 100q103 103 103 246q0 141 -103 244q-102 102 -243 102q-144 0 -246 -102q-101 -101 -101 -244zM176 334q0 114 80 194t195 80q114 0 194 -80t80 -194t-80 -197q-80 -80 -194 -80q-117 0 -197 80q-78 81 -78 197z M227 334q0 -92 66 -158.5t158 -66.5q93 0 158 66t65 159q0 94 -64.5 158.5t-158.5 64.5q-93 0 -158.5 -65t-65.5 -158zM274 1130q31 -10 72 -10q19 0 37 2.5t27 5.5l8 2l-39 -333h-64zM319 334q0 54 38.5 92.5t93.5 38.5t93 -38.5t38 -92.5q0 -56 -38 -93.5t-93 -37.5 q-56 0 -94 38t-38 93zM483 1130q31 -10 72 -10q19 0 37 2.5t26 5.5l9 2l-39 -333h-64z" />
<glyph unicode="&#xe24;&#xe32;" horiz-adv-x="1318" d="M41 725l6 29q17 7 58.5 35.5t83 55t110.5 48.5t141 22q152 0 244 -71q91 71 217 71q49 0 90.5 -8t71 -20.5t53 -32t38.5 -38t25.5 -44t15.5 -43.5t7.5 -44t3 -38t0.5 -32v-5v-1011q0 -29 23 -41v-7q-44 7 -74 7t-74 -7v7q6 3 14.5 14.5t8.5 26.5v1011q0 32 -2 53.5 t-13 52.5t-31 50t-60.5 33t-96.5 14q-97 0 -153 -39q45 -69 45 -145v-1035q0 -25 22 -40v-5q-40 7 -74 7q-29 0 -73 -7v5q6 2 14 14.5t8 25.5v1031q0 20 -6.5 42.5t-24.5 49t-45 47.5t-72 35t-102 14q-47 0 -92.5 -11t-71.5 -23t-61 -30.5t-45 -23.5q38 -15 78 -52.5 t59 -84.5v-8q-40 -13 -66 -49t-26 -76v-314q1 -26 17 -40.5t42 -14.5q36 0 60 12q-15 -58 -15 -96h-45q-161 0 -161 137v316q0 43 28.5 79.5t73.5 49.5q-56 104 -174 141z" />
<glyph unicode="&#xe26;&#xe32;" horiz-adv-x="1318" d="M-6 96q1 -1 8.5 -4t21.5 -5.5t29 -2.5q26 0 42.5 14.5t17.5 40.5v314q0 43 28.5 79.5t73.5 49.5q-56 104 -174 141q-1 0 0 7.5t3 14.5l1 7q17 7 59 35.5t83.5 55t110.5 48.5t140 22q154 0 246 -71q102 71 217 71q49 0 90.5 -8t71 -20.5t53 -32t38.5 -38t25.5 -44 t15.5 -43.5t7.5 -44t3 -38t0.5 -32v-5v-1011q0 -26 23 -41v-7q-44 7 -74 7t-74 -7v7q6 3 14.5 14.5t8.5 26.5v1011q0 32 -2 53.5t-13 52.5t-31 50t-60.5 33t-96.5 14q-102 0 -153 -41q45 -71 45 -143v-1035q0 -14 7.5 -25.5t14.5 -15.5v-4q-44 7 -74 7q-29 0 -73 -7v4 q5 3 13.5 15.5t8.5 25.5v1031q0 26 -12 55t-38.5 60.5t-79 52t-122.5 20.5q-46 0 -91.5 -11t-71 -22.5t-61.5 -31t-44 -23.5q37 -15 77 -52.5t60 -84.5v-8q-40 -13 -66 -49t-26 -76v-318q0 -66 -42 -100.5t-120 -34.5h-45q0 42 -14 96z" />
<glyph unicode="LOGO&#x2e;karuda" />
<glyph unicode="it" horiz-adv-x="901" d="M86 750l6 18q40 -4 82 -4l72 2v-653q1 -28 8 -55.5t13 -41t9 -16.5v-10q-58 10 -81 10q-16 0 -37 -2.5t-34 -5.5l-13 -2v10q4 3 10.5 16.5t13.5 40.5t8 56v516q0 74 -57 121zM98 993q0 58 70.5 94.5t193.5 36.5q106 0 177.5 -54.5t83.5 -156.5l2 -34v-109h102 q24 0 43.5 3t27.5 6l7 3v-94h-180v-444q0 -52 12.5 -86.5t35 -50.5t44 -21.5t49.5 -5.5t53 6t36 12l11 6v-108q-91 0 -150 9.5t-106 36.5t-68.5 78t-21.5 130v438h-106l12 49q61 2 104 47q43 46 43 107q0 94 -54 146.5t-157 52.5q-26 0 -46 -5.5t-29.5 -13t-16.5 -16 t-6.5 -15.5t0.5 -10q8 -13 8 -37q0 -35 -25.5 -60.5t-62.5 -25.5q-35 0 -60.5 25.5t-25.5 60.5z" />
<glyph unicode="ct" horiz-adv-x="1216" d="M70 383q0 181 96.5 286t271.5 105q32 0 82 -8q-41 62 -41 123q0 95 67.5 163t162.5 68q89 0 154.5 -60t74.5 -147l2 -34v-109h102q24 0 43.5 3t26.5 6l8 3v-94h-180v-444q0 -52 12.5 -86.5t35 -50.5t44 -21.5t49.5 -5.5t53.5 6t36.5 12l11 6v-108q-91 0 -150 9.5 t-106 36.5t-68.5 78t-21.5 130v438h-107l12 49q62 2 105 47q43 43 43 105q0 77 -51 131.5t-129 54.5q-85 0 -138 -51t-53 -135q0 -76 51 -139q61 -24 76 -58q13 -32 0 -54t-39 -22q-29 0 -51.5 24.5t-32.5 27.5q-38 10 -80 10q-126 0 -198 -80.5t-72 -214.5 q0 -135 68.5 -213t197.5 -78q41 0 75 8.5t53.5 21t30.5 23.5t15 19l4 2l58 -100q-3 -3 -9.5 -8.5t-28.5 -19.5t-47.5 -24.5t-66 -19t-84.5 -8.5q-168 0 -268 107.5t-100 289.5z" />
<glyph unicode="Th" horiz-adv-x="1431" d="M35 901q10 55 10 92q0 16 -2.5 33.5t-4.5 27.5l-3 9h690q23 0 42 3.5t27 7.5l7 3v-422q97 121 231 121q87 0 149 -40t89.5 -98t27.5 -126v-397q1 -28 8 -55.5t13.5 -41t9.5 -16.5v-10q-57 10 -82 10q-16 0 -37 -2.5t-34 -5.5l-13 -2v10q4 3 11 16.5t14 40.5t8 56v397 q0 69 -41 113.5t-123 44.5q-80 0 -140.5 -48t-90.5 -120v-387q1 -29 8 -56t14 -40.5t11 -16.5v-10q-62 10 -84 10q-16 0 -36.5 -2.5t-33.5 -5.5l-12 -2v10q3 3 9 16.5t13 41t8 55.5v805q0 41 -43 41h-204v-850q1 -29 7.5 -55t12.5 -38.5t10 -15.5v-10q-46 8 -82 8 q-16 0 -37 -2t-34 -4l-13 -2v10q4 1 11 14.5t14 39.5t8 55v850h-190q-25 0 -45.5 -5.5t-32.5 -14.5t-19 -17t-11 -16l-5 -7h-10z" />
<glyph unicode="&#xd;" horiz-adv-x="491" />
<glyph unicode=" "  horiz-adv-x="442" />
<glyph unicode="&#x09;" horiz-adv-x="442" />
<glyph unicode="&#xa0;" horiz-adv-x="442" />
<glyph unicode="!" horiz-adv-x="346" d="M90 1061v10q47 -8 84 -8q38 0 84 8v-10q-4 -1 -11.5 -13t-14.5 -38.5t-7 -57.5v-479l-14 -270h-74l-14 270v479q-1 29 -8 55t-14 39.5t-11 14.5zM98 66q0 31 22.5 53t53.5 22t53.5 -22t22.5 -53q0 -32 -22.5 -54t-53.5 -22t-53.5 22t-22.5 54z" />
<glyph unicode="&#x22;" horiz-adv-x="446" d="M74 1075q26 -10 65 -10q16 0 32 2.5t24 4.5l8 3l-35 -301h-57zM242 1075q26 -10 65 -10q16 0 32 2.5t24 4.5l8 3l-35 -301h-57z" />
<glyph unicode="#" horiz-adv-x="1001" d="M31 346l16 60q7 33 4 63h10q2 -3 9 -8t31 -10.5t57 -6.5h96l41 164h-201l17 60q8 36 4 63h10q2 -3 9 -7.5t30.5 -10t56.5 -6.5h98l54 221q18 84 0 98l6 10q58 -10 92 -10h29l-78 -319h248l53 221q18 84 0 98l6 10q58 -10 92 -10h29l-78 -319h201l-19 -56q-9 -38 -6 -63 l-12 -2q-12 20 -90 22h-96l-41 -164h200l-12 -36q-14 -60 -12 -84h-13q-12 20 -90 22h-96l-61 -250q-16 -84 -2 -98l-7 -10q-58 10 -92 10h-28l86 348h-246l-62 -250q-16 -84 -2 -98l-6 -10q-58 10 -92 10h-29l86 348h-200zM358 444h246l41 164h-246z" />
<glyph unicode="$" horiz-adv-x="776" d="M72 813q0 102 76.5 169t195.5 79q-2 28 -9 53t-13.5 37.5t-10.5 13.5v11q35 -9 72 -9q16 0 72 9v-11q-4 -1 -10.5 -13.5t-13.5 -37t-9 -51.5q44 -2 95.5 -9t82.5 -7q8 0 17.5 4t15.5 8l6 4q-10 -43 -10 -80l10 -111h-6q-38 47 -93 77t-118 34v-408q60 -30 102 -57 t84 -66.5t64 -90.5t22 -113q0 -104 -75 -172t-197 -76v-4q1 -29 8 -55t14 -38.5t11 -15.5v-10q-35 10 -72 10q-17 0 -28 -1.5t-23.5 -4.5t-20.5 -4v10q4 3 11 15.5t14 38.5t8 55v4q-42 2 -111 9t-98 7q-8 0 -17.5 -4.5t-15.5 -9.5l-6 -4q10 43 10 80l-10 110h6 q36 -43 104 -72.5t138 -35.5v405q-69 36 -113.5 65.5t-83.5 68.5t-57 86.5t-18 107.5zM176 815q0 -114 168 -201v365q-78 -11 -123 -53t-45 -111zM422 82q82 10 125 56t43 110q0 60 -43.5 107t-124.5 91v-364z" />
<glyph unicode="%" horiz-adv-x="897" d="M53 823q0 91 52 149t135 58t134.5 -58t51.5 -149q0 -93 -51.5 -151t-134.5 -58t-135 58.5t-52 150.5zM131 823q0 -56 29.5 -90.5t79.5 -34.5q49 0 78.5 34.5t29.5 90.5q0 55 -29.5 89t-78.5 34q-50 0 -79.5 -34t-29.5 -89zM172 -6l416 930q34 82 22 98l6 10q40 -8 80 -8 h29l-414 -932q-36 -84 -22 -98l-8 -10q-50 10 -80 10h-29zM467 193q0 92 51.5 150t134.5 58t135 -58t52 -150t-52 -150.5t-135 -58.5t-134.5 58t-51.5 151zM545 193q0 -56 28.5 -90t79.5 -35q50 2 79.5 36t29.5 89t-29.5 88.5t-79.5 33.5q-51 0 -79.5 -33t-28.5 -89z" />
<glyph unicode="&#x26;" horiz-adv-x="1036" d="M61 375q0 121 77 212.5t196 114.5q0 7 -4 23q-16 99 -1.5 171t54 119.5t88 70t100.5 22.5q57 0 102 -19.5t71.5 -49t44 -66.5t24 -68t6.5 -59h-143v14q9 0 17.5 9t8.5 28q0 16 -5 32.5t-17.5 35t-39.5 30t-65 11.5q-83 0 -120.5 -70.5t-24.5 -177.5q33 -263 256 -504 q36 54 45 106q7 37 18.5 54.5t38.5 17.5h189v-20q-38 0 -77 -13t-48 -43q-40 -114 -88 -180q172 -155 323 -194v-11h-129q-36 0 -109 35t-153 98q-102 -88 -252 -88q-78 0 -144 24t-109 62t-73 86t-43.5 95.5t-13.5 91.5zM168 375q0 -105 77 -178.5t199 -73.5q97 0 170 57 q-172 172 -249 410q-80 -13 -138.5 -71t-58.5 -144z" />
<glyph unicode="'" horiz-adv-x="278" d="M74 1075q26 -10 65 -10q16 0 32 2.5t24 4.5l8 3l-35 -301h-57z" />
<glyph unicode="(" horiz-adv-x="432" d="M61 406q0 363 248 665h94v-14q-111 -135 -173 -302t-62 -349t62 -349.5t173 -304.5v-12h-94q-242 282 -248 666z" />
<glyph unicode=")" horiz-adv-x="417" d="M16 -248q112 137 174 304.5t62 349.5t-62 348.5t-174 302.5v14h95q104 -121 168 -268q79 -186 79 -397q0 -212 -79 -398q-67 -152 -168 -268h-95v12z" />
<glyph unicode="*" horiz-adv-x="616" d="M90 944q17 12 31 37q6 10 10 21t5 16l1 6l146 -106l-23 180q20 -8 47 -8q13 0 24.5 2t16.5 4l6 2l-20 -180l145 110q3 -20 17 -45q6 -11 13.5 -20.5t12.5 -12.5l4 -4l-166 -72l168 -71q-16 -12 -30 -37q-6 -10 -10.5 -21t-5.5 -17l-1 -5l-145 106l22 -180q-20 8 -47 8 q-13 0 -24.5 -2t-16.5 -4l-6 -2l21 180l-146 -110q-2 20 -16 45q-6 11 -14 20.5t-13 13.5l-4 3l166 71z" />
<glyph unicode="+" horiz-adv-x="841" d="M31 410v102h340v340h102v-340h340v-102h-340v-340h-102v340h-340z" />
<glyph unicode="," horiz-adv-x="278" d="M68 72v18h127q12 -35 12 -74q0 -42 -14 -79t-34 -58.5t-37.5 -34t-27.5 -12.5h-22q32 84 32 152q0 29 -9 51t-18 29z" />
<glyph unicode="-" horiz-adv-x="733" d="M25 408v102h684v-102h-684z" />
<glyph unicode="." horiz-adv-x="284" d="M70 61q0 32 21.5 54t53.5 22q31 0 53.5 -22t22.5 -54q0 -31 -22.5 -53t-53.5 -22q-32 0 -53.5 22t-21.5 53z" />
<glyph unicode="/" horiz-adv-x="645" d="M-25 -135l480 1110q34 86 20 100l8 12q33 -10 80 -10h39l-477 -1110q-37 -88 -23 -102l-8 -10q-50 10 -90 10h-29z" />
<glyph unicode="0" horiz-adv-x="856" d="M70 504q0 240 99 381t259 141q161 0 259.5 -141.5t98.5 -380.5t-98.5 -380.5t-259.5 -141.5q-160 0 -259 141t-99 381zM172 504q0 -55 7.5 -110t26.5 -111t47.5 -98.5t73.5 -69.5t101 -27t101 27t73.5 69.5t47.5 98.5t26.5 111t7.5 110t-7.5 110t-26.5 111t-47.5 98.5 t-73.5 69.5t-101 27t-101 -27t-73.5 -69.5t-47.5 -98.5t-26.5 -111t-7.5 -110z" />
<glyph unicode="1" horiz-adv-x="389" d="M49 4q4 1 17 9t31 22t31.5 35t14.5 43v794h-90v13q43 2 109 41q28 16 45.5 31.5t21.5 22.5l4 7h13v-909q1 -22 14 -42.5t32 -35.5t29 -21.5t17 -9.5v-2v-8q-46 8 -143 8l-146 -8v10z" />
<glyph unicode="2" horiz-adv-x="819" d="M68 0v88q0 59 32 114.5t82.5 101t112 89.5t123.5 86t112.5 83.5t82.5 90t32 97.5q0 40 -14 71t-37.5 49.5t-48 30.5t-52 17t-42 6.5t-25.5 1.5q-47 0 -92 -14.5t-74 -34.5t-47 -39t-18 -31h-13v172q13 -13 27 -4q104 53 217 53q150 0 236 -71.5t86 -206.5 q0 -64 -31 -124.5t-80.5 -108t-109 -92.5t-119 -85.5t-109 -78.5t-80.5 -79t-31 -80h443q30 1 57 8t39.5 14t15.5 11h11q-11 -25 -11 -84v-51h-675z" />
<glyph unicode="3" horiz-adv-x="753" d="M72 47v148h18q32 -32 54 -47q88 -60 196 -60q35 0 72 9t77 29t65.5 60.5t25.5 96.5t-23.5 99t-56.5 63.5t-66 33t-56 15.5l-24 2v86q79 0 137 49t58 137q0 78 -58.5 125t-150.5 47q-44 0 -85.5 -13.5t-70 -33t-51 -39.5t-33.5 -34l-10 -13h-18v154q18 -4 30 6 q99 75 238 75q140 0 225.5 -71.5t85.5 -192.5q0 -52 -14 -95t-33.5 -67.5t-39.5 -42t-34 -23.5l-14 -7q7 -2 18 -7t39.5 -25t50.5 -46.5t40 -75t18 -106.5q0 -73 -29.5 -131t-78.5 -93.5t-109 -54t-125 -18.5q-138 0 -238 61q-5 4 -12.5 4t-12.5 -2z" />
<glyph unicode="4" horiz-adv-x="843" d="M12 217l621 813h18l2 -711h140v-51q0 -44 10 -84h-10q-3 4 -16 11t-40 14t-57 8h-27v-102q1 -29 7.5 -55.5t13 -39.5t10.5 -16v-10q-62 10 -84 10q-16 0 -36.5 -2.5t-33.5 -5.5l-12 -2v10q3 3 9.5 16t13.5 40t8 55v102h-537zM219 319h330v431z" />
<glyph unicode="5" horiz-adv-x="841" d="M63 496l109 508h502v-52q0 -61 10 -84h-10q-3 4 -16 11t-40 14t-57 8h-307l-51 -250q95 35 192 35q42 0 86.5 -8.5t95.5 -32t90.5 -60t66 -99t26.5 -142.5q0 -79 -30.5 -143t-77.5 -103t-107 -65t-115.5 -36.5t-107.5 -10.5q-98 0 -181 22q-21 7 -37 -6v160h9 q4 -35 41 -49q77 -25 168 -25q54 0 111.5 17t108 48t83 81.5t32.5 109.5q0 60 -23.5 108t-62 75.5t-83.5 42t-93 14.5q-89 0 -172 -22t-121 -44z" />
<glyph unicode="6" horiz-adv-x="806" d="M72 342q0 149 42.5 278t114 216.5t167 137.5t200.5 50v-115h-12q-12 13 -49 13q-63 0 -129.5 -49t-110.5 -117.5t-53 -128.5q73 69 194 69q55 0 107.5 -23.5t95.5 -66.5t69.5 -112t26.5 -152q0 -110 -49.5 -194t-124 -125t-158.5 -41q-63 0 -122 24.5t-105.5 69t-75 114 t-28.5 152.5zM176 346q0 -118 65 -187t162 -69t162.5 70.5t65.5 185.5q0 44 -12 86t-36 79.5t-66.5 60t-98.5 22.5q-113 0 -177.5 -70t-64.5 -178z" />
<glyph unicode="7" horiz-adv-x="843" d="M51 891q10 42 10 84v51h736v-16l-453 -912q-32 -68 -2 -98l-6 -10q-58 10 -92 10h-74l461 924h-455q-30 -1 -57.5 -8t-41 -14t-14.5 -11h-12z" />
<glyph unicode="8" horiz-adv-x="817" d="M68 289q0 52 22 99.5t53 78.5t62.5 54t53.5 33l22 11q-6 2 -16 7.5t-35 24.5t-44 42.5t-35 64.5t-16 87q0 57 19 102.5t48 72.5t66.5 45t71.5 24.5t66 6.5q33 0 67 -6.5t71 -24.5t66 -45.5t47.5 -72.5t18.5 -102q0 -42 -14.5 -80t-35 -62.5t-40.5 -43t-34 -26.5l-15 -8 q8 -3 22 -9t49 -29.5t62 -53t49 -80.5t22 -110q0 -65 -21 -117.5t-54.5 -86.5t-78 -57t-90 -32.5t-91.5 -9.5q-58 0 -114.5 16.5t-108 50.5t-83.5 95t-32 141zM176 291q0 -98 69.5 -150.5t160.5 -52.5q93 0 161 51.5t68 151.5q0 49 -26 90t-63.5 64t-75 39.5t-63.5 21.5 l-26 6q-8 -3 -22 -8t-49.5 -25t-62.5 -43t-49 -62t-22 -83zM238 791q0 -39 18.5 -72t45.5 -51.5t54 -31.5t46 -18l18 -4q6 3 16.5 7.5t37 21.5t46.5 36t36.5 49.5t16.5 62.5q0 48 -19.5 80.5t-50 46t-53 18t-44.5 4.5q-16 0 -33 -2t-42.5 -11t-45 -24t-33.5 -44t-14 -68z " />
<glyph unicode="9" horiz-adv-x="796" d="M70 664q0 83 28.5 152.5t75.5 114t106 69t121 24.5q85 0 159.5 -41t123.5 -125t49 -194q0 -149 -42.5 -278t-114 -216.5t-167 -137.5t-200.5 -50v114h14q10 -12 49 -12q93 0 185 99.5t106 195.5q-74 -70 -194 -70q-54 0 -106.5 23.5t-96 67t-70 112.5t-26.5 152zM174 659 q0 -44 12 -86t36.5 -79t67.5 -59.5t99 -22.5q113 0 176.5 69.5t63.5 177.5q0 118 -65.5 187t-162.5 69q-95 0 -161 -70.5t-66 -185.5z" />
<glyph unicode=":" horiz-adv-x="350" d="M96 61q0 32 22 54t54 22q31 0 53.5 -22t22.5 -54q0 -31 -22.5 -53t-53.5 -22q-32 0 -54 22t-22 53zM96 643q0 32 22 54t54 22q31 0 53.5 -22t22.5 -54q0 -31 -22.5 -53.5t-53.5 -22.5q-32 0 -54 22.5t-22 53.5z" />
<glyph unicode=";" horiz-adv-x="344" d="M88 72v18h127q12 -35 12 -74q0 -55 -24 -100t-49 -64.5t-39 -19.5h-23q33 84 33 152q0 29 -9.5 51t-18.5 29zM90 643q0 32 22 54t54 22q31 0 53.5 -22t22.5 -54q0 -31 -22.5 -53.5t-53.5 -22.5q-32 0 -54 22.5t-22 53.5z" />
<glyph unicode="&#x3c;" horiz-adv-x="825" d="M47 401v121l709 316q24 13 24 24l8 2v-88q1 -33 -32 -47l-596 -266l596 -266q15 -7 23 -19t9 -20v-8v-91l-8 4q0 12 -24 23z" />
<glyph unicode="=" horiz-adv-x="901" d="M61 279v102h783v-102h-783zM61 524v103h783v-103h-783z" />
<glyph unicode="&#x3e;" horiz-adv-x="835" d="M47 59v91q0 31 33 47l596 266l-596 266q-15 6 -23 18t-9 21l-1 8v88l8 -2q0 -10 25 -24l708 -316v-121l-708 -315q-25 -11 -25 -23z" />
<glyph unicode="?" horiz-adv-x="708" d="M68 803v188q102 82 241 82q151 0 239.5 -81t88.5 -214q0 -68 -40 -131.5t-97.5 -111.5t-114.5 -92t-97 -89.5t-40 -87.5v-59h-23v61q0 56 17 103.5t44.5 82t60.5 65.5t66 59t60.5 56.5t44.5 65.5t17 78q0 81 -59.5 137t-166.5 56q-100 0 -157 -49t-74 -119h-10zM168 61 q0 -31 22 -53t54 -22q31 0 53 22t22 53t-22 53.5t-53 22.5q-32 0 -54 -22.5t-22 -53.5z" />
<glyph unicode="@" horiz-adv-x="1167" d="M70 502q0 248 139.5 388t372.5 140q231 0 371.5 -140t140.5 -388q0 -79 -11 -130.5t-41 -105.5q-54 -102 -168 -102q-57 0 -93 43t-23 102q-4 -34 -72.5 -85.5t-155.5 -51.5q-66 0 -118 22t-83.5 60t-47 86t-11.5 103.5t27 109.5q61 142 139.5 198t184.5 56 q49 0 93.5 -16t81.5 -39t48 -27q16 -6 31.5 -8t23.5 -1l8 1l-98 -357q-19 -70 13 -100t80 -14.5t69 59.5q35 66 35 197q0 213 -113 327.5t-311 116.5q-200 -2 -313 -116t-113 -328q0 -212 113.5 -327.5t312.5 -117.5q70 2 112.5 10t87.5 31q21 -36 90 -47q-122 -78 -290 -78 q-232 0 -372 141t-140 388zM371 494q-28 -87 15 -156.5t144 -69.5q153 0 207 170l66 215q-9 7 -25 18t-62.5 29.5t-90.5 18.5q-102 0 -160 -56.5t-94 -168.5z" />
<glyph unicode="A" horiz-adv-x="907" d="M-33 -8l2 8q46 24 56 51l376 971l-8 22q-8 19 -22 19l-2 8h125q397 -1026 397 -1028q5 -12 18.5 -22.5t24.5 -15.5l10 -5l2 -2l2 -6q-52 10 -94 10t-90 -10l-4 10q4 1 9 4t11 13.5t2 23.5l-98 254h-453l-96 -244q-4 -14 0.5 -26.5t11.5 -18.5l7 -6l-2 -10q-48 10 -93 10 q-44 0 -92 -10zM270 399h373l-186 482z" />
<glyph unicode="B" horiz-adv-x="919" d="M100 0q4 3 11 17t14.5 42.5t7.5 59.5v823q0 31 -7.5 59.5t-14.5 42.5t-11 17v10q62 -10 84 -10h248q145 0 227 -74t82 -205q0 -126 -88 -204q85 -32 131.5 -103t46.5 -172q0 -135 -92.5 -220t-240.5 -85q-304 2 -314 2q-55 0 -84 -10v10zM236 145q0 -24 10 -34.5 t35 -10.5h217q105 0 167 55t62 148q0 194 -223 197h-268v-355zM236 602h196q94 0 150.5 49t56.5 131q0 176 -207 176h-196v-356z" />
<glyph unicode="C" horiz-adv-x="909" d="M72 524q0 237 133.5 378.5t357.5 141.5q42 0 101 -9t73 -9q16 0 30.5 4.5t20.5 9.5l7 4q-9 -40 -9 -77l9 -113h-11q-1 3 -8.5 11.5t-26 22t-42.5 25.5t-62.5 20.5t-81.5 8.5q-180 0 -283.5 -111t-103.5 -307q0 -199 106 -318.5t281 -119.5q103 0 173 32.5t81 59.5l4 4 l58 -94q-4 -4 -12.5 -11t-38.5 -25t-63.5 -32t-88 -25t-113.5 -11q-221 0 -356 148.5t-135 391.5z" />
<glyph unicode="D" horiz-adv-x="935" d="M100 0q4 3 11 17t14.5 42.5t7.5 59.5v823q0 31 -7.5 59.5t-14.5 42.5t-11 17v10q62 -10 84 -10h174q223 0 356.5 -141.5t133.5 -378.5q0 -244 -134 -392.5t-356 -148.5h-174q-22 0 -84 -10v10zM236 102h122q179 0 283 119t104 320q0 196 -102.5 306.5t-284.5 110.5h-122 v-856z" />
<glyph unicode="E" horiz-adv-x="788" d="M100 2q4 1 11.5 15.5t14.5 43.5t7 60v823q0 31 -7.5 59.5t-14.5 42.5t-11 17v10q62 -10 84 -10h533q-10 -33 -10 -70q0 -16 2.5 -39t4.5 -38l3 -15h-10l-5 7q-4 8 -11 16t-19 17t-32.5 14.5t-45.5 5.5h-358v-357h292q30 0 55 7t35.5 14t12.5 10h10q-8 -50 -8 -82 q0 -16 2 -37t4 -34l2 -13h-10q-1 4 -12 11t-36 14t-55 8h-292v-400h358q18 0 34 3t27 8.5t19.5 11t14.5 12.5t9.5 12t5.5 10l3 5h10q-10 -57 -10 -92q0 -16 2.5 -34t4.5 -28l3 -10h-533q-34 0 -84 -8v10z" />
<glyph unicode="F" horiz-adv-x="788" d="M100 2q4 1 11 14.5t14 39.5t8 55v833q0 31 -7.5 59.5t-14.5 42.5t-11 17v10q62 -10 84 -10h531q-8 -33 -8 -70l8 -92h-10q-30 60 -113 60h-356v-357h290q30 1 55.5 8.5t35.5 13t14 9.5h10q-10 -58 -10 -82q0 -16 2.5 -37t4.5 -34l3 -13h-10q-3 4 -14 10.5t-36 14t-55 8.5 h-290v-391q1 -18 4 -35.5t7.5 -30t8.5 -22.5t7 -15l3 -6v-10q-50 8 -82 8q-16 0 -37 -2t-34 -4l-13 -2v10z" />
<glyph unicode="G" horiz-adv-x="987" d="M72 526q0 237 133.5 379t357.5 142q59 0 111.5 -9.5t62.5 -9.5q12 0 26.5 5t22.5 9l9 5q-11 -41 -11 -78q0 -16 3 -44.5t5 -48.5l3 -20h-11q-3 4 -9.5 11.5t-25.5 22t-42.5 25.5t-62 20t-81.5 9q-181 0 -285 -111t-104 -307q0 -199 107 -318.5t282 -119.5q120 0 201 47 v230q0 25 -10 47t-23 35.5t-23 21t-14 8.5v10q50 -8 103 -8q16 0 33.5 2t26.5 4l9 2v-393q-3 -4 -13.5 -14t-37 -26.5t-59 -31t-84.5 -25.5t-109 -11q-222 0 -356.5 148.5t-134.5 391.5z" />
<glyph unicode="H" horiz-adv-x="1001" d="M100 2q4 1 11 14.5t14 39.5t8 55v839q-1 30 -8 57t-14 40t-11 16v10q62 -10 84 -10q16 0 37 2.5t34 4.5l13 3v-10q-4 -3 -10.5 -16t-13.5 -40t-8 -57v-366h530v366q0 30 -7.5 57.5t-13.5 39.5t-10 16v10q40 -10 82 -10q16 0 37 2.5t34 4.5l13 3v-10q-4 -3 -11 -16 t-14 -40t-8 -57v-839q2 -71 33 -109v-10q-50 8 -84 8q-16 0 -36.5 -2t-32.5 -4l-13 -2v10q3 1 9.5 14t13.5 40t8 55v370h-530v-370q1 -42 11.5 -71.5t20.5 -37.5v-10q-46 8 -84 8q-16 0 -37 -2t-34 -4l-13 -2v10z" />
<glyph unicode="I" horiz-adv-x="368" d="M100 4q4 1 10.5 14.5t13.5 39.5t9 55v839q-1 30 -8 57t-14 40t-11 16v10q62 -10 84 -10q16 0 36.5 2.5t33.5 4.5l12 3v-10q-3 -3 -9.5 -15.5t-13.5 -40t-7 -57.5v-839q1 -29 7 -54.5t12 -39t11 -15.5v-10q-50 8 -82 8q-16 0 -37 -2t-34 -4l-13 -2v10z" />
<glyph unicode="J" horiz-adv-x="503" d="M14 -45q21 -27 95 -27q66 0 112.5 44t46.5 143v839q-1 30 -8 57t-13.5 40t-10.5 16v10q62 -10 83 -10q16 0 36.5 2.5t32.5 4.5l13 3v-10q-3 -3 -9.5 -15.5t-13.5 -40t-7 -57.5v-833q0 -61 -21 -108.5t-52.5 -74t-74.5 -43.5t-80 -22.5t-75 -5.5z" />
<glyph unicode="K" horiz-adv-x="874" d="M100 2q4 1 10.5 14.5t13.5 39.5t9 55v839q-1 30 -8 57t-14 40t-11 16v10q62 -10 84 -10q16 0 36.5 2.5t33.5 4.5l12 3v-10q-3 -3 -9 -15.5t-13 -40t-8 -57.5v-839q1 -28 8 -55t13 -40t9 -14v-10q-46 8 -82 8q-16 0 -37 -2t-34 -4l-13 -2v10zM295 532l369 496q26 37 86 37 h116l-8 -16q-60 0 -80 -29l-364 -488l364 -487q20 -29 80 -29l8 -16h-116q-60 0 -86 37z" />
<glyph unicode="L" horiz-adv-x="745" d="M100 2q4 1 11.5 15.5t14.5 43.5t7 60v833q-1 28 -8 54t-14 39t-11 16v10q47 -10 84 -10q24 0 82 10v-10q-3 -3 -9 -16t-13 -39.5t-8 -53.5v-850h358q25 0 45.5 6t32 13.5t19.5 17.5t10.5 14.5t3.5 8.5h12q-10 -55 -10 -92q0 -16 2.5 -33.5t4.5 -26.5l3 -10h-451v-2h-82 q-34 0 -84 -8v10z" />
<glyph unicode="M" horiz-adv-x="1202" d="M100 2q4 1 11 14.5t14 39.5t8 55v839q-1 30 -8 57t-14 40t-11 16v10q38 -10 84 -10h52l364 -819l365 817v2h51q44 0 84 8v-10q-4 -1 -11 -14.5t-13.5 -41t-6.5 -57.5v-837q1 -29 7.5 -55t13 -39.5t10.5 -14.5v-12q-47 10 -84 10q-40 0 -82 -10v12q3 1 9.5 14t13.5 40 t8 55v704l-365 -813l-364 813v-704q1 -29 8 -54.5t13.5 -38t10.5 -16.5v-10q-50 8 -84 8q-16 0 -37 -2t-34 -4l-13 -2v10z" />
<glyph unicode="N" horiz-adv-x="1003" d="M102 2q3 1 9.5 14t13.5 40t8 55v839q0 30 -7.5 57.5t-13.5 39.5t-10 16v10q62 -10 82 -10h52l532 -766v653q-1 30 -8 57t-14 40t-11 16v10q62 -10 84 -10q16 0 37 2.5t34 4.5l13 3v-10q-4 -3 -11 -16t-14 -40t-8 -57v-973l-634 910l2 -776q1 -29 7.5 -55t12.5 -38.5 t10 -15.5v-10q-50 8 -84 8q-16 0 -36.5 -2t-33.5 -4l-12 -2v10z" />
<glyph unicode="O" horiz-adv-x="1114" d="M70 530q0 239 135.5 391t351.5 152t351.5 -152t135.5 -391q0 -240 -135.5 -392t-351.5 -152t-351.5 152t-135.5 392zM172 530q0 -198 104 -319.5t281 -122.5q177 1 281 122.5t104 319.5q0 197 -104 318.5t-281 122.5q-177 -1 -281 -122.5t-104 -318.5z" />
<glyph unicode="P" horiz-adv-x="804" d="M102 4q6 3 18.5 17.5t12.5 27.5v971q0 6 -2.5 12t-7 11.5t-8.5 9.5t-9 8l-4 4v10q57 -10 82 -10h84h166q144 0 225.5 -74t81.5 -205q0 -124 -86 -203t-221 -79h-198v-455q0 -13 11.5 -26t20.5 -19v-10q-38 6 -84 6q-48 0 -82 -6v10zM236 606h198q94 0 149.5 48.5 t55.5 131.5q0 177 -205 177h-198v-357z" />
<glyph unicode="Q" horiz-adv-x="1112" d="M70 532q0 239 134.5 391t350.5 152t351.5 -152t135.5 -391q0 -210 -105.5 -355t-279.5 -179q-27 -55 -104 -97.5t-172 -52.5q109 -84 231 -84q77 0 146.5 27.5t89.5 65.5h14q-2 -8 -7.5 -20.5t-27 -45t-49.5 -57.5t-78.5 -45.5t-111.5 -20.5q-66 0 -126.5 24t-95.5 53 t-66.5 53t-45.5 24q0 2 -0.5 4.5t-2 9.5t-1.5 9.5v4.5q77 14 170.5 51.5t132.5 86.5q-142 1 -252 70t-170.5 192.5t-60.5 281.5zM172 532q0 -198 103.5 -319.5t279.5 -122.5q177 1 281 122.5t104 319.5q0 197 -104 318.5t-281 122.5q-175 -1 -279 -122.5t-104 -318.5z" />
<glyph unicode="R" horiz-adv-x="841" d="M100 2q7 2 20 17t13 28v971q0 23 -33 45v10q62 -10 84 -10h84h-2h166q146 0 227.5 -74t81.5 -205q0 -121 -81.5 -199t-210.5 -83l294 -467q16 -31 80 -31l6 -14h-116q-62 0 -86 35l-338 536q-15 19 -15 27v16h158q94 0 150.5 48.5t56.5 131.5q0 177 -207 177h-196v-914 q0 -13 11.5 -27t20.5 -18v-10q-38 6 -84 6t-84 -6v10z" />
<glyph unicode="S" horiz-adv-x="776" d="M72 801q0 111 92.5 179.5t226.5 68.5q62 0 121.5 -8.5t87.5 -8.5q8 0 18 4t16 8l5 5q-8 -41 -8 -78l8 -113h-6q-87 111 -221 111q-106 0 -171 -43.5t-65 -124.5q0 -68 55.5 -121.5t155.5 -101.5q54 -26 89.5 -45t81.5 -52t73 -66t46 -80.5t19 -101.5q0 -110 -84 -178.5 t-217 -68.5q-64 0 -147.5 8t-110.5 8q-9 0 -19 -4t-16 -8l-6 -4q10 43 10 80l-10 110h6q40 -49 119 -79.5t154 -30.5q104 0 159.5 47t55.5 120q0 68 -53.5 119t-155.5 101q-80 41 -128.5 70.5t-94 71.5t-66 92t-20.5 114z" />
<glyph unicode="T" horiz-adv-x="800" d="M37 901q10 55 10 92q0 16 -2.5 33.5t-4.5 27.5l-3 9h729q-10 -33 -10 -70q0 -16 2.5 -39t5.5 -38l2 -15h-10l-4 7q-5 8 -12 16t-19 17t-32.5 14.5t-45.5 5.5h-190v-850q1 -29 7.5 -55t12.5 -38.5t10 -15.5v-10q-46 8 -82 8q-16 0 -37 -2t-34 -4l-13 -2v10q4 1 11 14.5 t14 39.5t8 55v850h-190q-25 0 -45.5 -5.5t-32.5 -14.5t-19 -17t-11 -16l-5 -7h-10z" />
<glyph unicode="U" horiz-adv-x="991" d="M100 1069v10h2q57 -10 82 -10q16 0 37 2.5t34 4.5l13 3v-10q-4 -3 -10.5 -16t-13.5 -40t-8 -57v-700q0 -67 61.5 -117.5t179.5 -50.5h47q119 0 180.5 50.5t61.5 117.5v700q-1 30 -8 57t-14 40t-11 16v10q62 -10 84 -10q16 0 36.5 2.5t32.5 4.5l13 3v-10q-3 -3 -9.5 -15.5 t-13.5 -40t-8 -57.5v-700q0 -39 -9.5 -75.5t-33.5 -72.5t-62 -62.5t-99.5 -43t-139.5 -16.5h-47q-78 0 -139.5 16.5t-99.5 43t-62 62.5t-33.5 72.5t-9.5 75.5v700q-1 30 -8 57t-14 40t-11 16z" />
<glyph unicode="V" horiz-adv-x="901" d="M-14 1047v18q20 -4 100 -4q114 0 133 4v-18q-23 1 -34 -29q-5 -14 -5 -34q0 -21 6 -48l263 -795l264 795q6 27 6 48q0 20 -5 34q-11 30 -34 29v18q18 -4 131 -4q79 0 102 4v-18q-73 -47 -98 -123l-295 -885q-55 -21 -104 -55h-21l-313 940q-25 77 -96 123z" />
<glyph unicode="W" horiz-adv-x="1404" d="M-20 1051v18q20 -4 100 -4q114 0 133 4v-18q-23 1 -35 -29q-6 -14 -6 -33q0 -21 8 -49l260 -823l211 671l-41 121q-25 76 -98 123v19q23 -4 102 -4q99 0 117 4v-19q-23 0 -34 -29q-5 -14 -5 -33q0 -21 6 -48l267 -799l264 817q6 27 6 48q0 20 -5 34q-11 30 -34 29v18 q19 -4 133 -4q81 0 101 4v-18q-72 -46 -97 -123l-286 -885q-57 -22 -105 -55h-18l-228 671l-192 -616q-57 -22 -105 -55h-20l-303 940q-24 75 -96 123z" />
<glyph unicode="X" horiz-adv-x="854" d="M-23 0v14q10 4 26.5 12.5t53.5 37.5t58 61l256 412l-242 395q-20 35 -58 64.5t-66 41.5l-28 13v18q46 -4 82 -4q109 0 154 10l-5 -12.5t-7 -29t4 -32.5l225 -368l225 371q7 16 5.5 31.5t-6.5 27.5l-5 12q36 -8 152 -8q12 -1 26 -1q25 0 58 3l-2 -18q-4 -2 -11.5 -5 t-28 -14.5t-38.5 -24t-38.5 -33t-33.5 -42.5l-241 -395l249 -404q20 -35 56 -64.5t62 -42.5l26 -12v-14h-74q-109 0 -154 -10q3 5 5.5 12.5t7 28t-3.5 30.5l-236 379l-233 -379q-6 -15 -4 -30.5t7 -28.5l5 -12q-45 10 -154 10h-74z" />
<glyph unicode="Y" horiz-adv-x="864" d="M-18 1067q46 -4 81 -4q109 0 154 10l-5 -12.5t-7 -29t4 -32.5l225 -436l228 438q6 16 4 32t-8 28l-5 12q36 -8 154 -8q10 -1 24 -1q24 0 58 3l-2 -18q-4 -2 -11.5 -5t-28 -14.5t-38.5 -24t-38.5 -33t-33.5 -42.5l-250 -477v-342q1 -28 8 -55t13.5 -40t9.5 -14v-10 q-47 8 -84 8q-32 0 -82 -8v8v2q3 1 9.5 14t13.5 40t8 55v338l-250 481q-20 35 -57 64.5t-64 41.5l-28 13z" />
<glyph unicode="Z" horiz-adv-x="991" d="M20 0l713 961h-483q-83 0 -113 -60h-10q10 55 10 92q0 16 -2.5 33.5t-4.5 27.5l-3 9h827l-718 -961h491q25 0 45.5 5.5t32.5 14.5t19 17t12 15l4 8h10q-10 -55 -10 -92q0 -16 2.5 -33.5t5.5 -26.5l2 -10h-813h-17z" />
<glyph unicode="[" horiz-adv-x="378" d="M133 -283v1362h172v-92q-12 8 -26 8q-43 0 -43 -55v-1083q0 -56 43 -56q6 0 12.5 2.5t10.5 4.5l3 2v-93h-172z" />
<glyph unicode="\" horiz-adv-x="536" d="M-25 1077h29q40 0 90 10l8 -10q-14 -14 23 -102l477 -1110h-39q-47 0 -80 -10l-8 12q14 14 -20 100z" />
<glyph unicode="]" horiz-adv-x="378" d="M74 -193q12 -8 26 -8q43 0 43 56v1083q0 55 -43 55q-6 0 -12.5 -2t-9.5 -4l-4 -2v92h172v-1362h-172v92z" />
<glyph unicode="^" horiz-adv-x="704" d="M35 510l4 8q11 0 22 25l232 520h121l231 -520q14 -25 25 -25l2 -8h-88q-33 0 -47 33l-183 407l-182 -407q-7 -15 -19 -23t-20 -9l-8 -1h-90z" />
<glyph unicode="_" horiz-adv-x="720" d="M25 -238h684v-102h-684v102z" />
<glyph unicode="`" horiz-adv-x="466" d="M92 1081h98q47 0 62 -24l162 -269h-60l-217 263q-23 20 -41 20z" />
<glyph unicode="a" horiz-adv-x="802" d="M53 225q0 127 83.5 195.5t230.5 68.5q146 0 208 -77v73q0 42 -5.5 71t-23 59.5t-57 46.5t-100.5 16q-194 0 -256 -103h-16v140q3 3 8.5 7t28 15.5t50.5 20t77.5 15.5t107.5 7q148 0 219.5 -80.5t71.5 -214.5v-342q0 -24 10.5 -46.5t25 -38.5t29 -29t25.5 -19l10 -6v-8 q-40 4 -82 4q-18 0 -38 -2.5t-31 -5.5l-11 -2l-45 127q-34 -51 -105.5 -92t-148.5 -41q-117 0 -191.5 60t-74.5 181zM156 225q0 -49 29 -82.5t64 -45t70 -11.5q55 0 103.5 21t80.5 53.5t51 69t21 69.5v41q-97 47 -208 47q-211 0 -211 -162z" />
<glyph unicode="b" horiz-adv-x="839" d="M88 1067v10q46 -8 102 -8h52v-362q73 69 172 69q163 0 251.5 -105t88.5 -286q0 -182 -100.5 -289.5t-268.5 -107.5q-73 0 -149 35q-17 5 -31 5q-35 0 -58 -28h-8v954q0 24 -5 44t-11.5 31.5t-15 21t-12.5 12.5t-7 4zM242 145q51 -51 143 -51q129 0 197.5 78t68.5 213 q0 132 -63.5 208.5t-173.5 76.5q-115 0 -172 -107v-418z" />
<glyph unicode="c" horiz-adv-x="702" d="M70 383q0 181 96.5 286t271.5 105q31 0 84.5 -7t63.5 -7q12 0 23 3.5t15 6.5l5 4q-6 -32 -6 -59l6 -94h-6q-3 6 -15 14.5t-58 20.5t-112 12q-132 0 -199 -75t-67 -210t68.5 -213t197.5 -78q41 0 75 8.5t53.5 21t30.5 23.5t15 19l4 2l58 -100q-3 -3 -9.5 -8.5t-28.5 -19.5 t-47.5 -24.5t-66 -19t-84.5 -8.5q-168 0 -268 107.5t-100 289.5z" />
<glyph unicode="d" horiz-adv-x="817" d="M72 379q0 182 100 289.5t266 107.5q72 0 144 -31v209q0 38 -12.5 65.5t-23 36.5t-16.5 11v10q50 -8 103 -8h51v-930q2 -44 27.5 -77t50.5 -44l24 -12v-8q-40 4 -81 4q-17 0 -37.5 -2t-32.5 -4l-12 -2l-33 102q-23 -44 -72 -76t-106 -32q-163 0 -251.5 105t-88.5 286z M174 379q0 -132 64 -208.5t174 -76.5q114 0 170 105v422q-53 49 -144 49q-128 0 -196 -78t-68 -213z" />
<glyph unicode="e" horiz-adv-x="761" d="M49 383q0 180 95.5 285.5t263.5 105.5q70 0 126.5 -24.5t89 -64t53.5 -87.5t25 -96q2 -19 1 -37q0 -27 -3 -51q-6 -40 -22 -66h-524q8 -120 75.5 -188t188.5 -68q41 0 75 8.5t53.5 21t30.5 23.5t15 19l4 2l57 -100q-3 -3 -9.5 -8.5t-28.5 -19.5t-47 -24.5t-65.5 -19 t-84.5 -8.5q-168 0 -268.5 107.5t-100.5 289.5zM156 453h438q4 19 4 37q0 55 -38 108q-50 70 -150 70q-217 0 -254 -215z" />
<glyph unicode="f" horiz-adv-x="471" d="M53 688v80h70q20 0 20 18v54q0 63 17.5 109t46.5 73.5t75 44t94 22t113 5.5v-107q-37 25 -100 25q-143 0 -143 -166v-60q0 -18 24 -18h185l-19 -80h-174q-16 0 -16 -16v-555q1 -30 8 -57t14 -40t11 -16v-10q-63 10 -84 10q-16 0 -36.5 -2.5t-32.5 -5.5l-13 -2v10 q3 3 9 15.5t13 40t8 57.5v553q0 18 -16 18h-74z" />
<glyph unicode="g" horiz-adv-x="860" d="M4 -158q0 58 46 110.5t114 74.5q-41 9 -68.5 39t-27.5 71q0 95 141 137q-94 72 -94 207q0 121 80.5 205.5t203.5 95.5q16 1 31 1q127 0 199 -89q19 36 58.5 63t78.5 27q51 0 77.5 -20.5t26.5 -56.5q0 -23 -17.5 -38.5t-37.5 -15.5q-21 0 -36 8t-21 18t-14 18t-17 8 q-27 0 -45 -16.5t-25 -37.5q27 -55 27 -125q0 -123 -80.5 -207.5t-204.5 -93.5q-15 -1 -29 -1q-50 0 -91 16q-109 -19 -109 -82q0 -27 23 -39.5t53 -12.5h231q47 0 85.5 -4.5t79 -17.5t68 -34t45 -58t17.5 -86q0 -26 -11 -56t-41.5 -66.5t-76 -65.5t-124.5 -48.5t-177 -19.5 q-90 0 -155.5 13t-100 32t-54 47.5t-24 50t-4.5 49.5zM106 -147q0 -31 19 -52.5t44.5 -31.5t64 -15t64 -5t58 1.5t33.5 1.5q21 0 60.5 7t92.5 22t90.5 48t37.5 77q0 36 -26.5 59.5t-62 32.5t-83.5 11q-24 1 -43.5 1t-34.5 -1q-30 -2 -58 -5q-256 -23 -256 -151zM219 504 q0 -84 48.5 -135.5t131.5 -51.5t132 51.5t49 135.5t-49 135t-132 51t-131.5 -51t-48.5 -135z" />
<glyph unicode="h" horiz-adv-x="866" d="M76 1059l6 18q40 -4 82 -4l72 2v-422q97 121 231 121q87 0 149 -40t89.5 -98t27.5 -126v-397q1 -28 8 -55.5t13.5 -41t9.5 -16.5v-10q-57 10 -82 10q-16 0 -37 -2.5t-34 -5.5l-13 -2v10q4 3 11 16.5t14 40.5t8 56v397q0 69 -41 113.5t-123 44.5q-80 0 -140.5 -48 t-90.5 -120v-387q1 -29 8 -56t13.5 -40.5t10.5 -16.5v-10q-62 10 -84 10q-16 0 -36.5 -2.5t-33.5 -5.5l-12 -2v10q3 3 9.5 16.5t13.5 41t8 55.5v825q0 76 -57 121z" />
<glyph unicode="i" horiz-adv-x="391" d="M86 750l6 18q40 -4 82 -4l72 2v-653q1 -28 8 -55.5t13 -41t9 -16.5v-10q-58 10 -81 10q-16 0 -37 -2.5t-34 -5.5l-13 -2v10q4 3 10.5 16.5t13.5 40.5t8 56v516q0 74 -57 121zM98 993q0 35 25.5 60.5t60.5 25.5q37 0 62.5 -25.5t25.5 -60.5t-25.5 -60.5t-62.5 -25.5 q-35 0 -60.5 25.5t-25.5 60.5z" />
<glyph unicode="j" horiz-adv-x="419" d="M-70 -207q40 -26 101 -26q28 0 50 6t44.5 22t35.5 51.5t13 87.5v695q0 74 -57 121l6 18q40 -4 82 -4l71 2v-827q0 -77 -25 -128.5t-74.5 -77.5t-107 -36t-139.5 -10v106zM129 993q0 35 25.5 60.5t60.5 25.5q37 0 62.5 -25.5t25.5 -60.5t-25.5 -60.5t-62.5 -25.5 q-35 0 -60.5 25.5t-25.5 60.5z" />
<glyph unicode="k" horiz-adv-x="722" d="M102 0q3 3 9.5 16t13.5 40t8 55v847q0 30 -7.5 57.5t-13.5 39.5t-10 16v10q62 -10 82 -10q16 0 37 2.5t34 4.5l13 3v-10q-4 -3 -10.5 -16t-13.5 -40t-8 -57v-847q1 -29 8 -55.5t13.5 -39.5t10.5 -16v-10q-62 10 -84 10q-16 0 -36.5 -2.5t-33.5 -5.5l-12 -2v10zM295 381 l264 356q20 27 64 27h116l-6 -10q-43 0 -57 -23l-262 -350l262 -350q14 -23 57 -23l6 -10h-116q-44 0 -64 27z" />
<glyph unicode="l" horiz-adv-x="389" d="M86 1061l6 18q30 -6 82 -6l72 2v-960q1 -29 8 -56t14 -40.5t11 -16.5v-10q-63 10 -84 10q-16 0 -36.5 -2.5t-32.5 -5.5l-13 -2v10q3 3 9 16.5t13 41t8 55.5v823q0 78 -57 123z" />
<glyph unicode="m" horiz-adv-x="1245" d="M76 754l6 18q40 -4 82 -4l72 2v-94q81 102 202 102q153 0 213 -116q87 116 213 116q65 0 115 -22.5t78 -61.5t41.5 -84t13.5 -96v-397q1 -29 8 -56t14 -40.5t11 -16.5v-10q-63 10 -84 10q-16 0 -36.5 -2.5t-32.5 -5.5l-13 -2v10q3 3 9.5 15.5t13.5 40t8 57.5v397 q0 158 -146 158q-117 0 -182 -111q4 -32 4 -47v-397q1 -28 8 -55.5t13.5 -41t9.5 -16.5v-10q-57 10 -82 10q-16 0 -37 -2.5t-34 -5.5l-13 -2v10q4 3 11 16t14 40t8 57v397q0 158 -146 158q-74 0 -125 -43t-77 -111v-401q1 -29 8 -56t13.5 -40.5t10.5 -16.5v-10 q-62 10 -84 10q-16 0 -37 -2.5t-34 -5.5l-13 -2v10q4 3 11 16t14 40t8 57v516q0 74 -57 121z" />
<glyph unicode="n" horiz-adv-x="864" d="M76 750l6 18q40 -4 82 -4l72 2v-113q97 121 229 121q87 0 149 -40t89.5 -98t27.5 -126v-397q1 -29 8 -56t14 -40.5t11 -16.5v-10q-62 10 -84 10q-16 0 -36.5 -2.5t-33.5 -5.5l-12 -2v10q4 4 10 16t13.5 39.5t7.5 57.5v397q0 70 -40.5 114t-123.5 44q-79 0 -139 -48 t-90 -120v-387q1 -29 8 -56t13.5 -40.5t10.5 -16.5v-10h-2q-58 10 -82 10q-16 0 -37 -2.5t-34 -5.5l-13 -2v10q4 3 11 16t14 40t8 57v516q0 74 -57 121z" />
<glyph unicode="o" horiz-adv-x="856" d="M70 385q0 177 99 288t259 111q159 0 258.5 -111.5t99.5 -287.5t-99.5 -287.5t-258.5 -111.5t-258.5 111.5t-99.5 287.5zM172 385q0 -130 69.5 -211t186.5 -82q117 1 186.5 82t69.5 211q0 132 -69.5 212.5t-186.5 80.5t-186.5 -80.5t-69.5 -212.5z" />
<glyph unicode="p" horiz-adv-x="835" d="M33 758v8q40 -4 82 -4q17 0 37.5 2t32.5 4l12 2l28 -88q77 92 183 92q163 0 251.5 -104t88.5 -285q0 -182 -100.5 -289.5t-268.5 -107.5q-75 0 -141 30v-208q0 -38 12.5 -65.5t22.5 -36.5t16 -11v-10q-50 8 -105 8q-52 0 -102 -8v10q6 2 16 11t22.5 36.5t12.5 65.5v815 q-2 44 -27 77t-49 44zM238 143q55 -51 141 -51q129 0 197.5 78.5t68.5 214.5q0 132 -63.5 208.5t-173.5 76.5q-114 0 -170 -105v-422z" />
<glyph unicode="q" horiz-adv-x="835" d="M90 397q0 181 89 285t251 104q105 0 178 -88l19 84q16 -8 96 -8q-18 -27 -18 -78v-874q0 -38 12.5 -65.5t22.5 -36.5t16 -11v-10q-50 8 -103 8q-56 0 -102 -8v10q3 1 7 4t12.5 12.5t15 21t11.5 31.5t5 44v209q-72 -31 -143 -31q-167 0 -268 107.5t-101 289.5zM193 397 q0 -136 69 -214.5t197 -78.5q83 0 143 52v422q-59 104 -172 104q-110 0 -173.5 -76.5t-63.5 -208.5z" />
<glyph unicode="r" horiz-adv-x="585" d="M76 752l6 18q40 -4 82 -4l51 2q21 -17 21 -117v-22q84 149 221 149q60 0 91.5 -24t31.5 -68q0 -29 -20.5 -46t-45.5 -17t-42.5 9t-24.5 20.5t-16.5 20.5t-20.5 9q-37 0 -68 -16t-51 -43t-33 -54t-22 -57v-397q1 -30 8 -57t13.5 -40t10.5 -16v-10q-62 10 -84 10 q-16 0 -37 -2.5t-34 -5.5l-13 -2v10q4 3 11 16t14 40t8 57v516q0 74 -57 121z" />
<glyph unicode="s" horiz-adv-x="589" d="M59 580q0 86 74.5 133t177.5 47q45 0 93 -6t67 -6q6 0 13.5 3t11.5 6l4 3q-6 -31 -6 -58l6 -90h-4q-20 27 -68.5 44.5t-101.5 17.5q-73 0 -117.5 -23.5t-44.5 -70.5q0 -19 7 -36t15.5 -28.5t30 -27t35.5 -24.5t47 -28q56 -34 90.5 -58.5t71.5 -58.5t54 -71t17 -80 q0 -86 -67.5 -134t-169.5 -48q-45 0 -100 6t-74 6q-6 0 -14 -3t-13 -6l-4 -3q8 30 8 57l-8 90h4q51 -61 187 -61q60 0 103.5 26t43.5 68q0 40 -26.5 66.5t-106.5 74.5q-40 24 -54.5 33t-47 31.5t-45.5 35t-35 35t-30.5 41.5t-16 44.5t-7.5 52.5z" />
<glyph unicode="t" horiz-adv-x="514" d="M27 688l12 45q57 6 102 49q19 19 31.5 51.5t15.5 54.5l2 23l48 11v-156h102q24 0 43.5 3t26.5 6l8 3v-90h-180v-448q0 -52 12.5 -86.5t35 -50.5t44 -21.5t49.5 -5.5t53 6t36 12l11 6v-108q-91 0 -150 9.5t-106 36.5t-68.5 78t-21.5 130v442h-106z" />
<glyph unicode="u" horiz-adv-x="866" d="M78 752l4 18q40 -4 82 -4l72 2v-512q0 -68 41 -113t122 -45q80 0 141 48t91 120v387q-1 30 -8 57t-14 40t-11 16v10q63 -10 84 -10h51v-629q0 -75 55 -121l-4 -18q-40 4 -82 4l-71 -2v113q-97 -121 -232 -121q-87 0 -149 40t-89.5 98t-27.5 126v375q0 75 -55 121z" />
<glyph unicode="v" horiz-adv-x="731" d="M6 748v18q40 -4 90 -4h62t71 4v-18q-23 0 -35 -28q-5 -13 -5 -30q0 -22 8 -51l133 -403l32 -91l35 88l131 406q8 30 8 52q0 17 -5 29q-11 28 -33 28v18q16 -4 69.5 -4h61.5q50 0 90 4v-18q-60 -40 -86 -121l-197 -578l-125 -65l-219 643q-26 81 -86 121z" />
<glyph unicode="w" horiz-adv-x="1124" d="M0 754v18q40 -4 80 -4h57t66 4v-18q-14 0 -22.5 -12.5t-9.5 -37t9 -59.5l174 -514l152 490l-4 12q-29 88 -78 121v18q40 -4 82 -4h49.5t58.5 4v-18q-22 0 -30 -28q-2 -9 -2 -21q0 -24 10 -60l174 -516l172 516q10 36 10 61q0 11 -2 20q-7 28 -28 28v18q16 -4 64 -4h56 q40 0 80 4v-18q-29 -20 -45 -48.5t-31 -72.5l-196 -578l-125 -65l-170 497l-131 -432l-123 -65l-221 643q-15 46 -30.5 73.5t-45.5 47.5z" />
<glyph unicode="x" horiz-adv-x="686" d="M10 0v14q8 4 20.5 12.5t43.5 38t53 62.5l160 254l-156 248q-20 35 -50 64.5t-51 42.5l-20 12v18q40 -4 51 -4q99 0 144 10q-6 -21 -6 -38q0 -20 8 -34l137 -231l135 231q7 12 7.5 30t-2.5 30l-3 12q48 -10 144 -10q11 0 51 4v-18q-8 -5 -21.5 -14t-45 -40t-52.5 -65 l-158 -248l162 -254q21 -33 49.5 -61t47.5 -40l18 -12v-14h-51q-96 0 -144 -10q7 21 7 38q0 20 -9 35l-135 230l-137 -230q-6 -13 -6.5 -31t1.5 -30l3 -12q-45 10 -144 10h-51z" />
<glyph unicode="y" horiz-adv-x="659" d="M-2 750v18q40 -4 51 -4q96 0 141 10q-4 -18 -4 -34q0 -22 9 -38l135 -268l137 268q6 12 6.5 30t-1.5 30l-3 12q45 -10 143 -10q12 0 52 4v-18q-9 -5 -22.5 -14t-46 -39.5t-52.5 -65.5l-162 -285v-231q1 -29 8 -56t14 -40.5t11 -16.5v-10q-63 10 -84 10q-16 0 -36.5 -2.5 t-33.5 -5.5l-12 -2v10q3 3 9.5 15.5t13.5 40t8 57.5v227l-162 289q-20 35 -49.5 64.5t-49.5 42.5z" />
<glyph unicode="z" horiz-adv-x="763" d="M35 0l506 676h-348q-85 0 -121 -72h-11q9 55 9 92q0 16 -2 33.5t-4 26.5l-3 10h668v-4l-510 -672h344q41 0 72 18t40.5 32t12.5 22h10q-10 -55 -10 -92q0 -16 2.5 -33.5t5.5 -26.5l2 -10h-663z" />
<glyph unicode="{" horiz-adv-x="327" d="M12 387q4 1 11 3.5t24.5 12.5t30.5 24t24 40.5t11 58.5v398q0 61 50 103t109 42h13v-92q-13 8 -27 8q-43 0 -43 -55v-418q0 -71 -68 -115q-1 -1 -24 -10q17 -3 24 -10q68 -41 68 -113v-418q0 -55 43 -55q6 0 13 2t11 4l3 2v-92h-13q-59 0 -109 42t-50 104v397 q0 31 -10.5 56.5t-25 40t-29.5 24t-26 13.5z" />
<glyph unicode="|" horiz-adv-x="348" d="M90 -287q33 22 33 47v1256q0 13 -13 28t-20 17v10q38 -6 84 -6q48 0 82 6v-10q-31 -21 -31 -45v-1256q0 -6 2.5 -12.5t7 -12t8 -9.5t8 -8t5.5 -5v-10q-46 8 -82 8q-34 0 -84 -8v10z" />
<glyph unicode="}" horiz-adv-x="327" d="M43 -201q13 -8 27 -8q43 0 43 55v418q0 73 67 113q6 6 25 10l-25 10q-67 43 -67 115v418q0 55 -43 55q-6 0 -13 -2t-11 -4l-3 -2v92h12q59 0 109.5 -42t50.5 -103v-398q0 -32 10.5 -58.5t25 -40.5t29 -24t24.5 -13l11 -3q-4 -1 -11 -3.5t-24 -13t-30 -24.5t-24 -39.5 t-11 -56.5v-397q0 -61 -50.5 -103.5t-109.5 -42.5h-12v92z" />
<glyph unicode="~" horiz-adv-x="788" d="M45 453q1 3 15 22t16 21q29 38 64.5 58t65.5 24t73.5 -6t70 -20.5t72.5 -31.5q148 -64 211 -10q19 17 28.5 39.5t6.5 40.5l8 4l65 -88q-2 -4 -15.5 -26t-16.5 -25q-28 -37 -59 -57t-61 -26t-70.5 1.5t-75 19.5t-85.5 35q-160 73 -217 0q-10 -11 -13 -29.5t1 -21.5l-4 -4z " />
<glyph unicode="&#xa1;" horiz-adv-x="370" d="M90 -387q4 1 11 14t14 39t8 55v480l14 270h74l14 -270v-480q0 -31 7.5 -57t14.5 -38t11 -13v-10q-46 8 -84 8q-16 0 -37 -2t-34 -4l-13 -2v10zM98 608q0 32 22.5 54t53.5 22t53.5 -22t22.5 -54q0 -31 -22.5 -53.5t-53.5 -22.5t-53.5 22.5t-22.5 53.5z" />
<glyph unicode="&#xa2;" horiz-adv-x="899" d="M74 522q0 205 101 340.5t276 169.5v2q-1 29 -8 55t-14 39.5t-11 14.5v10q34 -8 71 -8q22 0 72 8v-10q-4 -1 -10.5 -13t-13.5 -36.5t-9 -51.5q12 2 37 2q42 0 100.5 -9t71.5 -9q16 0 31 4.5t22 9.5l7 4q-9 -42 -9 -79l9 -111h-11q-1 3 -8.5 11t-26 21.5t-42.5 25.5 t-62.5 21t-81.5 9q-6 0 -18.5 -1t-18.5 -1v-854q12 -2 37 -2q103 0 173 32.5t81 59.5l4 4l58 -94q-4 -4 -12.5 -11t-38.5 -25t-63.5 -32t-88 -25t-113.5 -11q-25 0 -37 2v-11q1 -29 8 -54.5t14 -38t11 -15.5v-10q-35 10 -72 10q-17 0 -28 -1.5t-23 -4.5t-20 -4v10 q4 3 11 15.5t14 38t8 54.5v21q-174 37 -275.5 178.5t-101.5 349.5zM176 522q0 -163 74 -274.5t201 -147.5v828q-130 -32 -202.5 -138t-72.5 -268z" />
<glyph unicode="&#xa3;" horiz-adv-x="765" d="M82 -2q9 8 25 22.5t56 58.5t71 86.5t56 100.5t25 107q0 54 -20 119h-213v102h174q-3 7 -20 45.5t-21.5 50t-17 44t-16.5 51t-8.5 46t-4.5 52.5q0 100 70.5 169.5t189.5 69.5q41 0 88 -15.5t71.5 -29t33.5 -20.5q3 -2 7.5 -3.5t8.5 -2t7 -0.5h5h2v-148h-18q-3 5 -8 13 t-24 28t-40.5 35.5t-57 28t-73.5 12.5q-74 0 -117 -45.5t-43 -91.5q0 -22 4.5 -47.5t9 -44t16 -50.5t17 -46t21.5 -52.5t20 -48.5h285v-102h-246q21 -68 21 -119q0 -78 -34 -150t-83 -123h274q29 1 56 8t40.5 14t16.5 11h10q-10 -63 -10 -84v-51h-606z" />
<glyph unicode="&#xa4;" horiz-adv-x="806" d="M23 184l151 119q-51 65 -57 148t35 157l-129 101q30 12 59 43q14 13 24.5 27.5t14.5 22.5l4 9l94 -121q68 52 141 60q109 12 199 -52q4 -4 16 -12l99 125q12 -30 43 -59q13 -14 27.5 -24.5t23.5 -14.5l8 -4l-135 -105q36 -68 31.5 -148.5t-51.5 -146.5l-3 -2l158 -123 q-30 -14 -59 -43q-14 -14 -24.5 -28.5t-14.5 -22.5l-4 -8l-125 160q-67 -45 -148.5 -46.5t-152.5 42.5l-123 -156q-12 28 -43 59q-13 13 -27.5 23.5t-22.5 15.5zM222 440q12 -69 69 -110q60 -43 132.5 -31.5t115.5 70.5q42 60 30.5 132.5t-71.5 114.5q-55 40 -124.5 32 t-113.5 -62l-12 -17q-38 -60 -26 -129z" />
<glyph unicode="&#xa5;" horiz-adv-x="878" d="M-12 1055v18q40 -4 82 -4q105 0 153 10q-3 -5 -6 -12.5t-7 -28t5 -30.5l225 -363l226 363q6 16 4 31.5t-8 27.5l-5 12q54 -8 154 -8q62 0 82 2v-18q-4 -2 -11.5 -5t-28.5 -14.5t-39.5 -24t-39 -33t-33.5 -42.5l-198 -313h178v-103h-229v-147h229v-103h-229v-153 q1 -28 8 -55t13 -40t9 -14v-10q-45 10 -82 10q-21 0 -84 -10v10q4 1 11 14.5t14 39.5t8 55v153h-229v103h229v147h-229v103h174l-195 313q-21 35 -58.5 64.5t-64.5 41.5z" />
<glyph unicode="&#xa6;" horiz-adv-x="348" d="M90 -287q4 1 11 14.5t14 39.5t8 55v479h102v-479q0 -31 7 -57.5t14.5 -38.5t11.5 -13v-10q-46 8 -84 8q-16 0 -37 -2t-34 -4l-13 -2v10zM90 1061v10q47 -8 84 -8q38 0 84 8v-10q-4 -1 -11.5 -13t-14.5 -38.5t-7 -57.5v-479h-102v479q-1 29 -8 55t-14 39.5t-11 14.5z" />
<glyph unicode="&#xa7;" horiz-adv-x="790" d="M145 471q0 98 99 147q-99 79 -99 181q0 58 37 100t92.5 61t120.5 19q46 0 94 -5t68 -5q6 0 13.5 2.5t11.5 4.5l4 3q-6 -30 -6 -57l6 -91h-4q-20 27 -69 45.5t-101 18.5q-73 0 -117.5 -24.5t-44.5 -71.5q0 -43 30.5 -72t104.5 -72q56 -33 91 -57.5t71 -58t53.5 -71 t17.5 -81.5q0 -101 -98 -149q98 -81 98 -179q0 -84 -68.5 -132t-168.5 -48q-46 0 -101 6t-75 6q-6 0 -13.5 -3t-11.5 -6l-4 -3q8 31 8 58l-8 90h4q28 -33 81 -47.5t106 -14.5q60 0 102.5 26t42.5 68q0 41 -26.5 68t-104.5 74q-42 25 -62.5 38t-54 36.5t-50 41.5t-35.5 43 t-26.5 52.5t-7.5 58.5zM250 471q0 -23 7.5 -40.5t30 -36t39.5 -29.5t58 -35q23 -16 45 -29q38 11 60 33.5t22 52.5q0 41 -26 67.5t-105 73.5q-8 5 -24.5 14.5t-24.5 14.5q-82 -20 -82 -86z" />
<glyph unicode="&#xa8;" horiz-adv-x="884" d="M182 991q0 39 29 67.5t68 28.5q40 0 68 -28t28 -68t-28 -68t-68 -28q-39 0 -68 28.5t-29 67.5zM539 991q0 39 28.5 67.5t67.5 28.5q40 0 68 -28t28 -68t-28 -68t-68 -28q-39 0 -67.5 28.5t-28.5 67.5z" />
<glyph unicode="&#xa9;" horiz-adv-x="1191" d="M70 510q0 65 18 134.5t59 140t100 126t149 90.5t198 35t199 -35t150.5 -90.5t101 -126t59.5 -140t18 -134.5q0 -66 -18 -135.5t-59.5 -141t-100.5 -127.5t-150 -91t-200 -35q-108 0 -198.5 35t-149.5 91t-100 127.5t-58.5 141t-17.5 135.5zM154 510q0 -81 27 -158 t78.5 -142.5t138.5 -105.5t196 -41q110 1 197.5 41t139.5 105.5t79.5 142.5t27.5 158q0 80 -27.5 156.5t-79.5 141.5t-139.5 104.5t-197.5 39.5q-88 0 -162 -26t-124.5 -70t-85.5 -101.5t-51.5 -119t-16.5 -125.5zM279 510q0 166 89 263t250 97q29 0 79 -6t59 -6 q10 0 20.5 3t15.5 6l5 3q-9 -28 -9 -53l9 -86h-9q-3 5 -14 13.5t-53.5 19t-102.5 10.5q-122 0 -183.5 -69t-61.5 -195q0 -124 63 -196t182 -72q49 0 87.5 14.5t53.5 28t21 24.5l2 2l54 -94q-3 -3 -9 -8t-26 -17t-43.5 -21.5t-61 -17.5t-78.5 -8q-154 0 -246.5 99t-92.5 266z " />
<glyph unicode="&#xaa;" horiz-adv-x="491" />
<glyph unicode="&#xab;" horiz-adv-x="798" d="M49 379v121l391 252q25 16 25 24l8 2v-88q0 -29 -33 -47l-323 -203l327 -202q15 -9 23 -21t9 -19l1 -8v-90l-8 4q0 7 -25 23zM336 379v121l391 252q25 16 25 24l8 2v-88q0 -29 -33 -47l-324 -203l328 -202q15 -9 23 -21t9 -19l1 -8v-90l-8 4q0 7 -25 23z" />
<glyph unicode="&#xac;" horiz-adv-x="817" d="M55 440v103h682v-365h-102v262h-580z" />
<glyph unicode="&#xad;" horiz-adv-x="534" d="M76 313v115h375v-115h-375z" />
<glyph unicode="&#xae;" horiz-adv-x="866" d="M92 745q0 52 22.5 110t63.5 110.5t109.5 87t150.5 34.5q68 0 126 -23t95.5 -59t64.5 -82t38.5 -91t11.5 -87t-11.5 -87.5t-38 -92t-65 -82.5t-97 -59t-128.5 -23q-71 0 -130 23t-97 59t-65 82.5t-38.5 92t-11.5 87.5zM147 745q0 -52 17.5 -102t51 -92t90 -67.5 t128.5 -26.5q93 1 160.5 45.5t97 108t29.5 134.5q0 52 -17.5 101.5t-51.5 91.5t-90.5 68t-127.5 26t-128 -26t-90.5 -68t-51 -91.5t-17.5 -101.5zM287 516v6q16 16 16 23v399q0 7 -16 23v6q36 -6 43 -6h129q63 0 104 -32.5t41 -96.5q0 -62 -38 -96.5t-99 -34.5l102 -164 q11 -17 43 -17l2 -8h-59q-32 0 -45 19l-125 200q-8 8 -8 15v8h82q37 0 64.5 19.5t27.5 58.5q0 75 -92 75h-103v-368q0 -7 6.5 -14t10.5 -9v-6q-24 4 -43 4t-43 -4z" />
<glyph unicode="&#xaf;" horiz-adv-x="522" d="M76 846v115h375v-115h-375z" />
<glyph unicode="&#xb0;" horiz-adv-x="845" d="M287 1034q0 48 39 90.5t98 42.5q58 0 96.5 -42.5t38.5 -90.5q0 -60 -37.5 -97.5t-97.5 -37.5q-57 0 -97 39t-40 96zM360 1034q0 -28 18.5 -45.5t45.5 -17.5t45 17t18 46q0 22 -19 42t-44 20q-28 0 -46 -19t-18 -43z" />
<glyph unicode="&#xb1;" horiz-adv-x="849" d="M27 4v102h788v-102h-788zM31 410v102h340v340h102v-340h340v-102h-340v-263h-102v263h-340z" />
<glyph unicode="&#xb2;" horiz-adv-x="524" />
<glyph unicode="&#xb3;" horiz-adv-x="524" />
<glyph unicode="&#xb4;" horiz-adv-x="518" d="M92 788l162 269q15 24 61 24h99l-4 -10q-8 0 -18 -5t-16 -10l-7 -5l-217 -263h-60z" />
<glyph unicode="&#xb5;" horiz-adv-x="866" d="M78 -274q55 46 55 110v799q0 75 -55 121l6 18q40 -4 80 -4l72 2v-514q2 -69 42 -112.5t121 -43.5q80 0 141 48t91 120v387q-1 29 -8 55.5t-14 40.5t-11 15v12q42 -10 84 -10h51v-629q0 -74 55 -123l-4 -16q-40 4 -82 4l-71 -2v113q-97 -121 -232 -121q-95 0 -163 49v-328 h-158v9z" />
<glyph unicode="&#xb6;" horiz-adv-x="829" d="M72 662q0 152 73 239.5t209 87.5q20 0 61 -6.5t64 -7.5h164q16 0 37 2.5t34 4.5l13 3v-10q-4 -3 -11 -16t-14 -40t-8 -57l2 -848q1 -29 7.5 -55t13 -39t10.5 -16v-10q-63 10 -84 10q-26 0 -39.5 30.5t-11.5 79.5v848q0 63 -31 94q-29 -39 -31 -94l2 -848q2 -49 -12 -79.5 t-41 -30.5q-16 0 -36.5 -2.5t-32.5 -5.5l-13 -2v10q3 3 9.5 15.5t13.5 39.5t8 55v322q-28 -4 -49 -4q-140 0 -223.5 89.5t-83.5 240.5zM174 662q0 -113 48.5 -168.5t156.5 -55.5q33 0 49 2v422v12q-30 9 -74 9q-92 0 -136 -54t-44 -167z" />
<glyph unicode="&#xb7;" horiz-adv-x="434" d="M94 510q0 50 35 84.5t84 34.5t84 -34.5t35 -84.5t-35 -84.5t-84 -34.5t-84 34.5t-35 84.5z" />
<glyph unicode="&#xb8;" horiz-adv-x="706" d="M262 -176h19v-25q0 -31 21.5 -53t53.5 -22q31 0 53.5 22t22.5 53t-22.5 53.5t-53.5 22.5q-10 0 -14 -2l57 113q54 -3 119 8l-59 -94q5 -4 12 -11.5t19 -35t12 -58.5q0 -56 -41.5 -100.5t-102.5 -44.5q-31 0 -49 6.5t-47 26.5v141z" />
<glyph unicode="&#xb9;" horiz-adv-x="524" />
<glyph unicode="&#xba;" horiz-adv-x="491" />
<glyph unicode="&#xbb;" horiz-adv-x="804" d="M49 100v90q0 28 33 48l328 202l-324 203q-15 8 -23 19.5t-9 19.5l-1 8v88l8 -2q0 -8 25 -24l391 -252v-121l-395 -252q-25 -16 -25 -23zM336 100v90q0 28 33 48l327 202l-323 203q-15 8 -23 19.5t-9 19.5l-1 8v88l8 -2q0 -8 25 -24l391 -252v-121l-395 -252 q-25 -16 -25 -23z" />
<glyph unicode="&#xbc;" horiz-adv-x="1097" />
<glyph unicode="&#xbd;" horiz-adv-x="1097" />
<glyph unicode="&#xbe;" horiz-adv-x="1097" />
<glyph unicode="&#xbf;" horiz-adv-x="645" d="M35 -113q0 68 40 131.5t97.5 111.5t114.5 92t97 89.5t40 87.5v60h22v-62q0 -56 -17 -103.5t-44.5 -82t-60 -65.5t-65.5 -59t-60.5 -56.5t-44.5 -65.5t-17 -78q0 -81 59 -136.5t166 -55.5q100 0 157.5 49t74.5 119h10v-189q-102 -82 -242 -82q-151 0 -239 81t-88 214z M352 604q0 31 22.5 53.5t53.5 22.5q32 0 54 -22.5t22 -53.5t-22 -53.5t-54 -22.5q-31 0 -53.5 22.5t-22.5 53.5z" />
<glyph unicode="&#xc0;" horiz-adv-x="915" d="M-39 -8l2 8q45 24 55 51l377 971l-8 22q-8 19 -22 19l-3 8h125q398 -1026 398 -1028q5 -12 18.5 -22.5t24.5 -15.5l10 -5l2 -2l2 -6q-52 10 -94 10t-90 -10l-4 10q4 1 9 4t11 13.5t2 23.5l-98 254h-453l-96 -244q-4 -14 0.5 -26.5t10.5 -18.5l7 -6l-2 -10q-48 10 -92 10 t-92 -10zM125 1464h98q47 0 62 -24l161 -269h-59l-217 263q-23 20 -41 20zM264 399h373l-186 482z" />
<glyph unicode="&#xc1;" horiz-adv-x="901" d="M-39 -8l2 8q45 24 55 51l377 971l-8 22q-8 19 -22 19l-3 8h125q398 -1026 398 -1028q5 -12 18.5 -22.5t24.5 -15.5l10 -5l2 -2l2 -6q-52 10 -94 10t-90 -10l-4 10q4 1 9 4t11 13.5t2 23.5l-98 254h-453l-96 -244q-4 -14 0.5 -26.5t10.5 -18.5l7 -6l-2 -10q-48 10 -92 10 t-92 -10zM264 399h373l-186 482zM362 1171l162 269q15 24 62 24h98l-4 -10q-8 0 -18 -5t-16 -10l-7 -5l-217 -263h-60z" />
<glyph unicode="&#xc2;" horiz-adv-x="903" d="M-39 -8l2 8q45 24 55 51l377 971l-8 22q-8 19 -22 19l-3 8h125q398 -1026 398 -1028q5 -12 18.5 -22.5t24.5 -15.5l10 -5l2 -2l2 -6q-52 10 -94 10t-90 -10l-4 10q4 1 9 4t11 13.5t2 23.5l-98 254h-453l-96 -244q-4 -14 0.5 -26.5t10.5 -18.5l7 -6l-2 -10q-48 10 -92 10 t-92 -10zM221 1176v65l182 154l183 -154v-65l-183 110zM264 399h373l-186 482z" />
<glyph unicode="&#xc3;" horiz-adv-x="901" d="M-39 -8l2 8q45 24 55 51l377 971l-8 22q-8 19 -22 19l-3 8h125q398 -1026 398 -1028q5 -12 18.5 -22.5t24.5 -15.5l10 -5l2 -2l2 -6q-52 10 -94 10t-90 -10l-4 10q4 1 9 4t11 13.5t2 23.5l-98 254h-453l-96 -244q-4 -14 0.5 -26.5t10.5 -18.5l7 -6l-2 -10q-48 10 -92 10 t-92 -10zM264 399h373l-186 482zM268 1225v92q20 14 45 14q28 0 120 -34.5t118 -34.5q29 0 29 24h8v-92q-20 -14 -45 -14q-32 0 -120 34.5t-118 34.5q-29 0 -29 -24h-8z" />
<glyph unicode="&#xc4;" horiz-adv-x="901" d="M-39 -8l2 8q45 24 55 51l377 971l-8 22q-8 19 -22 19l-3 8h125q398 -1026 398 -1028q5 -12 18.5 -22.5t24.5 -15.5l10 -5l2 -2l2 -6q-52 10 -94 10t-90 -10l-4 10q4 1 9 4t11 13.5t2 23.5l-98 254h-453l-96 -244q-4 -14 0.5 -26.5t10.5 -18.5l7 -6l-2 -10q-48 10 -92 10 t-92 -10zM225 1282q0 29 21.5 49.5t50.5 20.5q28 0 49 -20.5t21 -49.5t-21 -49.5t-49 -20.5q-29 0 -50.5 20.5t-21.5 49.5zM264 399h373l-186 482zM485 1282q0 29 21 49.5t49 20.5q31 0 51.5 -20.5t20.5 -49.5t-20.5 -49.5t-51.5 -20.5q-28 0 -49 20.5t-21 49.5z" />
<glyph unicode="&#xc5;" horiz-adv-x="901" d="M-39 -8l2 8q45 24 55 51l377 971l-8 22q-8 19 -22 19l-3 8h125q398 -1026 398 -1028q5 -12 18.5 -22.5t24.5 -15.5l10 -5l2 -2l2 -6q-52 10 -94 10t-90 -10l-4 10q4 1 9 4t11 13.5t2 23.5l-98 254h-453l-96 -244q-4 -14 0.5 -26.5t10.5 -18.5l7 -6l-2 -10q-48 10 -92 10 t-92 -10zM264 399h373l-186 482zM287 1298q0 48 39 91t98 43q58 0 96.5 -43t38.5 -91q0 -60 -37.5 -97.5t-97.5 -37.5q-57 0 -97 39t-40 96zM360 1298q0 -28 18.5 -45.5t45.5 -17.5t45 17t18 46q0 22 -19 42t-44 20q-28 0 -46 -19t-18 -43z" />
<glyph unicode="&#xc6;" horiz-adv-x="1261" d="M2 -10l2 10q45 24 55 51q4 11 112 224t238 468.5t146 288.5q0 7 -3.5 14.5t-7.5 11t-5 3.5v10q50 -8 84 -8h530q-8 -35 -8 -72l8 -92h-10q-1 4 -3.5 8.5t-11 14.5t-19.5 17t-32 13t-47 6l-356 3v-359h291q30 1 55 8.5t35.5 14t13.5 10.5h10q-10 -62 -10 -84 q0 -16 2.5 -37t4.5 -34l3 -13h-10q-3 4 -13.5 10.5t-35.5 14t-55 8.5h-291v-398h356q83 0 113 60h10q-8 -55 -8 -92q0 -16 2 -33.5t4 -26.5l2 -10h-530q-46 0 -84 -10v10q4 3 11 17t14 42.5t7 59.5v176h-278q-117 -228 -123 -244q-4 -13 0.5 -25.5t11.5 -19.5l6 -6l-2 -10 q-46 12 -92 12q-48 0 -92 -12zM344 397h227v443q-175 -342 -227 -443z" />
<glyph unicode="&#xc7;" horiz-adv-x="921" d="M72 524q0 237 133.5 378.5t357.5 141.5q42 0 101 -9t73 -9q16 0 30.5 4.5t20.5 9.5l7 4q-9 -40 -9 -77l9 -113h-11q-1 3 -8.5 11.5t-26 22t-42.5 25.5t-62.5 20.5t-81.5 8.5q-180 0 -283.5 -111t-103.5 -307q0 -199 106 -318.5t281 -119.5q103 0 173 32.5t81 59.5l4 4 l58 -94q-4 -4 -12.5 -11t-38.5 -25t-63.5 -32t-88 -25t-113.5 -11q-221 0 -356 148.5t-135 391.5zM262 -176h19v-25q0 -31 21.5 -53t53.5 -22q31 0 53.5 22t22.5 53t-22.5 53.5t-53.5 22.5q-10 0 -14 -2l57 113q54 -3 119 8l-59 -94q5 -4 12 -11.5t19 -35t12 -58.5 q0 -56 -41.5 -100.5t-102.5 -44.5q-31 0 -49 6.5t-47 26.5v141z" />
<glyph unicode="&#xc8;" horiz-adv-x="755" d="M100 2q4 1 11.5 15.5t14.5 43.5t7 60v823q0 31 -7.5 59.5t-14.5 42.5t-11 17v10q62 -10 84 -10h533q-10 -33 -10 -70q0 -16 2.5 -39t4.5 -38l3 -15h-10l-5 7q-4 8 -11 16t-19 17t-32.5 14.5t-45.5 5.5h-358v-357h292q30 0 55 7t35.5 14t12.5 10h10q-8 -50 -8 -82 q0 -16 2 -37t4 -34l2 -13h-10q-1 4 -12 11t-36 14t-55 8h-292v-400h358q18 0 34 3t27 8.5t19.5 11t14.5 12.5t9.5 12t5.5 10l3 5h10q-10 -57 -10 -92q0 -16 2.5 -34t4.5 -28l3 -10h-533q-34 0 -84 -8v10zM125 1464h98q47 0 62 -24l161 -269h-59l-217 263q-23 20 -41 20z" />
<glyph unicode="&#xc9;" horiz-adv-x="755" d="M100 2q4 1 11.5 15.5t14.5 43.5t7 60v823q0 31 -7.5 59.5t-14.5 42.5t-11 17v10q62 -10 84 -10h533q-10 -33 -10 -70q0 -16 2.5 -39t4.5 -38l3 -15h-10l-5 7q-4 8 -11 16t-19 17t-32.5 14.5t-45.5 5.5h-358v-357h292q30 0 55 7t35.5 14t12.5 10h10q-8 -50 -8 -82 q0 -16 2 -37t4 -34l2 -13h-10q-1 4 -12 11t-36 14t-55 8h-292v-400h358q18 0 34 3t27 8.5t19.5 11t14.5 12.5t9.5 12t5.5 10l3 5h10q-10 -57 -10 -92q0 -16 2.5 -34t4.5 -28l3 -10h-533q-34 0 -84 -8v10zM254 1171l162 269q15 24 61 24h98l-4 -10q-8 0 -18.5 -5t-16.5 -10 l-6 -5l-217 -263h-59z" />
<glyph unicode="&#xca;" horiz-adv-x="755" d="M100 2q4 1 11.5 15.5t14.5 43.5t7 60v823q0 31 -7.5 59.5t-14.5 42.5t-11 17v10q62 -10 84 -10h533q-10 -33 -10 -70q0 -16 2.5 -39t4.5 -38l3 -15h-10l-5 7q-4 8 -11 16t-19 17t-32.5 14.5t-45.5 5.5h-358v-357h292q30 0 55 7t35.5 14t12.5 10h10q-8 -50 -8 -82 q0 -16 2 -37t4 -34l2 -13h-10q-1 4 -12 11t-36 14t-55 8h-292v-400h358q18 0 34 3t27 8.5t19.5 11t14.5 12.5t9.5 12t5.5 10l3 5h10q-10 -57 -10 -92q0 -16 2.5 -34t4.5 -28l3 -10h-533q-34 0 -84 -8v10zM221 1176v65l182 154l183 -154v-65l-183 110z" />
<glyph unicode="&#xcb;" horiz-adv-x="755" d="M100 2q4 1 11.5 15.5t14.5 43.5t7 60v823q0 31 -7.5 59.5t-14.5 42.5t-11 17v10q62 -10 84 -10h533q-10 -33 -10 -70q0 -16 2.5 -39t4.5 -38l3 -15h-10l-5 7q-4 8 -11 16t-19 17t-32.5 14.5t-45.5 5.5h-358v-357h292q30 0 55 7t35.5 14t12.5 10h10q-8 -50 -8 -82 q0 -16 2 -37t4 -34l2 -13h-10q-1 4 -12 11t-36 14t-55 8h-292v-400h358q18 0 34 3t27 8.5t19.5 11t14.5 12.5t9.5 12t5.5 10l3 5h10q-10 -57 -10 -92q0 -16 2.5 -34t4.5 -28l3 -10h-533q-34 0 -84 -8v10zM225 1282q0 29 21.5 49.5t50.5 20.5q28 0 49 -20.5t21 -49.5 t-21 -49.5t-49 -20.5q-29 0 -50.5 20.5t-21.5 49.5zM485 1282q0 29 21 49.5t49 20.5q31 0 51.5 -20.5t20.5 -49.5t-20.5 -49.5t-51.5 -20.5q-28 0 -49 20.5t-21 49.5z" />
<glyph unicode="&#xcc;" horiz-adv-x="385" d="M-88 1464h98q47 0 62 -24l161 -269h-59l-217 263q-23 20 -41 20zM106 4q4 1 10.5 14.5t13.5 39.5t9 55v839q-1 30 -8 57t-14 40t-11 16v10q63 -10 84 -10q16 0 36.5 2.5t33.5 4.5l12 3v-10q-3 -3 -9.5 -15.5t-13.5 -40t-7 -57.5v-839q1 -29 7 -54.5t12 -39t11 -15.5v-10 q-50 8 -82 8q-16 0 -37 -2t-34 -4l-13 -2v10z" />
<glyph unicode="&#xcd;" horiz-adv-x="385" d="M106 4q4 1 10.5 14.5t13.5 39.5t9 55v839q-1 30 -8 57t-14 40t-11 16v10q63 -10 84 -10q16 0 36.5 2.5t33.5 4.5l12 3v-10q-3 -3 -9.5 -15.5t-13.5 -40t-7 -57.5v-839q1 -29 7 -54.5t12 -39t11 -15.5v-10q-50 8 -82 8q-16 0 -37 -2t-34 -4l-13 -2v10zM125 1171l162 269 q15 24 61 24h98l-4 -10q-8 0 -18.5 -5t-16.5 -10l-6 -5l-217 -263h-59z" />
<glyph unicode="&#xce;" horiz-adv-x="385" d="M-16 1176v65l182 154l182 -154v-65l-182 110zM106 4q4 1 10.5 14.5t13.5 39.5t9 55v839q-1 30 -8 57t-14 40t-11 16v10q63 -10 84 -10q16 0 36.5 2.5t33.5 4.5l12 3v-10q-3 -3 -9.5 -15.5t-13.5 -40t-7 -57.5v-839q1 -29 7 -54.5t12 -39t11 -15.5v-10q-50 8 -82 8 q-16 0 -37 -2t-34 -4l-13 -2v10z" />
<glyph unicode="&#xcf;" horiz-adv-x="385" d="M-31 1282q0 29 21.5 49.5t50.5 20.5q28 0 49 -20.5t21 -49.5t-21 -49.5t-49 -20.5q-29 0 -50.5 20.5t-21.5 49.5zM106 4q4 1 10.5 14.5t13.5 39.5t9 55v839q-1 30 -8 57t-14 40t-11 16v10q63 -10 84 -10q16 0 36.5 2.5t33.5 4.5l12 3v-10q-3 -3 -9.5 -15.5t-13.5 -40 t-7 -57.5v-839q1 -29 7 -54.5t12 -39t11 -15.5v-10q-50 8 -82 8q-16 0 -37 -2t-34 -4l-13 -2v10zM229 1282q0 29 21 49.5t49 20.5q31 0 51.5 -20.5t20.5 -49.5t-20.5 -49.5t-51.5 -20.5q-28 0 -49 20.5t-21 49.5z" />
<glyph unicode="&#xd0;" horiz-adv-x="966" d="M12 479v103h168v360q0 31 -7.5 59.5t-14.5 42.5t-11 17v10q62 -10 84 -10h175q223 0 356 -142t133 -378q0 -244 -133.5 -392.5t-355.5 -148.5q-150 -2 -175 -2q-34 0 -84 -8v10q4 1 11.5 15t14.5 43t7 61v360h-168zM283 102h123q179 0 283 119t104 320 q0 196 -102.5 306.5t-284.5 110.5h-123v-376h288v-103h-288v-377z" />
<glyph unicode="&#xd1;" horiz-adv-x="1005" d="M104 2q3 1 9.5 14t13.5 40t8 55v839q0 30 -7.5 57.5t-13.5 39.5t-10 16v10q63 -10 82 -10h52l532 -766v653q-1 30 -8 57t-14 40t-11 16v10q63 -10 84 -10q16 0 37 2.5t34 4.5l13 3v-10q-4 -3 -11 -16t-14 -40t-8 -57v-973l-634 910l2 -776q1 -29 7.5 -55t12.5 -38.5 t10 -15.5v-10q-50 8 -84 8q-16 0 -36.5 -2t-33.5 -4l-12 -2v10zM289 1225v92q20 14 45 14q28 0 119.5 -34.5t117.5 -34.5q29 0 29 24h8v-92q-20 -14 -45 -14q-32 0 -119.5 34.5t-117.5 34.5q-29 0 -29 -24h-8z" />
<glyph unicode="&#xd2;" horiz-adv-x="1110" d="M70 530q0 239 135.5 391t351.5 152t351.5 -152t135.5 -391q0 -240 -135.5 -392t-351.5 -152t-351.5 152t-135.5 392zM172 530q0 -198 104 -319.5t281 -122.5q177 1 281 122.5t104 319.5q0 197 -104 318.5t-281 122.5q-177 -1 -281 -122.5t-104 -318.5zM266 1464h99 q46 0 61 -24l162 -269h-60l-217 263q-23 20 -41 20z" />
<glyph unicode="&#xd3;" horiz-adv-x="1114" d="M70 530q0 239 135.5 391t351.5 152t351.5 -152t135.5 -391q0 -240 -135.5 -392t-351.5 -152t-351.5 152t-135.5 392zM172 530q0 -198 104 -319.5t281 -122.5q177 1 281 122.5t104 319.5q0 197 -104 318.5t-281 122.5q-177 -1 -281 -122.5t-104 -318.5zM453 1171l161 269 q15 24 62 24h98l-4 -10q-8 0 -18 -5t-16 -10l-7 -5l-217 -263h-59z" />
<glyph unicode="&#xd4;" horiz-adv-x="1114" d="M70 530q0 239 135.5 391t351.5 152t351.5 -152t135.5 -391q0 -240 -135.5 -392t-351.5 -152t-351.5 152t-135.5 392zM172 530q0 -198 104 -319.5t281 -122.5q177 1 281 122.5t104 319.5q0 197 -104 318.5t-281 122.5q-177 -1 -281 -122.5t-104 -318.5zM369 1176v65 l182 154l182 -154v-65l-182 110z" />
<glyph unicode="&#xd5;" horiz-adv-x="1114" d="M70 530q0 239 135.5 391t351.5 152t351.5 -152t135.5 -391q0 -240 -135.5 -392t-351.5 -152t-351.5 152t-135.5 392zM172 530q0 -198 104 -319.5t281 -122.5q177 1 281 122.5t104 319.5q0 197 -104 318.5t-281 122.5q-177 -1 -281 -122.5t-104 -318.5zM395 1225v92 q20 14 45 14q28 0 120 -34.5t118 -34.5q29 0 29 24h8v-92q-20 -14 -45 -14q-32 0 -120 34.5t-118 34.5q-29 0 -29 -24h-8z" />
<glyph unicode="&#xd6;" horiz-adv-x="1114" d="M70 530q0 239 135.5 391t351.5 152t351.5 -152t135.5 -391q0 -240 -135.5 -392t-351.5 -152t-351.5 152t-135.5 392zM172 530q0 -198 104 -319.5t281 -122.5q177 1 281 122.5t104 319.5q0 197 -104 318.5t-281 122.5q-177 -1 -281 -122.5t-104 -318.5zM338 1282 q0 29 21.5 49.5t50.5 20.5q28 0 48.5 -20.5t20.5 -49.5t-20.5 -49.5t-48.5 -20.5q-29 0 -50.5 20.5t-21.5 49.5zM598 1282q0 29 21 49.5t49 20.5q30 0 50.5 -20t20.5 -50t-20.5 -50t-50.5 -20q-28 0 -49 20.5t-21 49.5z" />
<glyph unicode="&#xd7;" horiz-adv-x="819" d="M109 221l241 240l-241 239l73 74l240 -242l240 242l73 -74l-241 -239l241 -240l-73 -74l-240 242l-240 -242z" />
<glyph unicode="&#xd8;" horiz-adv-x="1114" d="M61 530q0 239 136 391t352 152q83 0 153 -24q18 57 9 69l8 12q33 -10 80 -10h39l-47 -110q115 -67 180 -193t65 -287q0 -240 -135.5 -392t-351.5 -152q-103 0 -184 34l-5 -10q-37 -87 -22 -102l-8 -10q-50 10 -90 10h-29l68 158q-103 70 -160.5 190.5t-57.5 273.5z M164 530q0 -252 155 -370l343 794q-60 17 -113 17q-177 -1 -281 -122.5t-104 -318.5zM403 113q67 -25 146 -25q177 1 281 122.5t104 319.5q0 130 -48 230.5t-136 154.5z" />
<glyph unicode="&#xd9;" horiz-adv-x="1001" d="M100 1069v10h2q57 -10 82 -10q16 0 37 2.5t34 4.5l13 3v-10q-4 -3 -10.5 -16t-13.5 -40t-8 -57v-700q0 -67 61.5 -117.5t179.5 -50.5h47q119 0 180.5 50.5t61.5 117.5v700q-1 30 -8 57t-14 40t-11 16v10q62 -10 84 -10q16 0 36.5 2.5t32.5 4.5l13 3v-10q-3 -3 -9.5 -15.5 t-13.5 -40t-8 -57.5v-700q0 -39 -9.5 -75.5t-33.5 -72.5t-62 -62.5t-99.5 -43t-139.5 -16.5h-47q-78 0 -139.5 16.5t-99.5 43t-62 62.5t-33.5 72.5t-9.5 75.5v700q-1 30 -8 57t-14 40t-11 16zM211 1464h98q47 0 62 -24l161 -269h-59l-217 263q-23 20 -41 20z" />
<glyph unicode="&#xda;" horiz-adv-x="1001" d="M100 1069v10h2q57 -10 82 -10q16 0 37 2.5t34 4.5l13 3v-10q-4 -3 -10.5 -16t-13.5 -40t-8 -57v-700q0 -67 61.5 -117.5t179.5 -50.5h47q119 0 180.5 50.5t61.5 117.5v700q-1 30 -8 57t-14 40t-11 16v10q62 -10 84 -10q16 0 36.5 2.5t32.5 4.5l13 3v-10q-3 -3 -9.5 -15.5 t-13.5 -40t-8 -57.5v-700q0 -39 -9.5 -75.5t-33.5 -72.5t-62 -62.5t-99.5 -43t-139.5 -16.5h-47q-78 0 -139.5 16.5t-99.5 43t-62 62.5t-33.5 72.5t-9.5 75.5v700q-1 30 -8 57t-14 40t-11 16zM375 1171l162 269q15 24 61 24h98l-4 -10q-8 0 -18 -5t-16 -10l-7 -5l-217 -263 h-59z" />
<glyph unicode="&#xdb;" horiz-adv-x="1001" d="M100 1069v10h2q57 -10 82 -10q16 0 37 2.5t34 4.5l13 3v-10q-4 -3 -10.5 -16t-13.5 -40t-8 -57v-700q0 -67 61.5 -117.5t179.5 -50.5h47q119 0 180.5 50.5t61.5 117.5v700q-1 30 -8 57t-14 40t-11 16v10q62 -10 84 -10q16 0 36.5 2.5t32.5 4.5l13 3v-10q-3 -3 -9.5 -15.5 t-13.5 -40t-8 -57.5v-700q0 -39 -9.5 -75.5t-33.5 -72.5t-62 -62.5t-99.5 -43t-139.5 -16.5h-47q-78 0 -139.5 16.5t-99.5 43t-62 62.5t-33.5 72.5t-9.5 75.5v700q-1 30 -8 57t-14 40t-11 16zM297 1176v65l182 154l183 -154v-65l-183 110z" />
<glyph unicode="&#xdc;" horiz-adv-x="1001" d="M100 1069v10h2q57 -10 82 -10q16 0 37 2.5t34 4.5l13 3v-10q-4 -3 -10.5 -16t-13.5 -40t-8 -57v-700q0 -67 61.5 -117.5t179.5 -50.5h47q119 0 180.5 50.5t61.5 117.5v700q-1 30 -8 57t-14 40t-11 16v10q62 -10 84 -10q16 0 36.5 2.5t32.5 4.5l13 3v-10q-3 -3 -9.5 -15.5 t-13.5 -40t-8 -57.5v-700q0 -39 -9.5 -75.5t-33.5 -72.5t-62 -62.5t-99.5 -43t-139.5 -16.5h-47q-78 0 -139.5 16.5t-99.5 43t-62 62.5t-33.5 72.5t-9.5 75.5v700q-1 30 -8 57t-14 40t-11 16zM295 1282q0 29 21.5 49.5t50.5 20.5q28 0 48.5 -20.5t20.5 -49.5t-20.5 -49.5 t-48.5 -20.5q-29 0 -50.5 20.5t-21.5 49.5zM555 1282q0 29 21 49.5t49 20.5q31 0 51 -20t20 -50t-20 -50t-51 -20q-28 0 -49 20.5t-21 49.5z" />
<glyph unicode="&#xdd;" horiz-adv-x="862" d="M-18 1067q46 -4 81 -4q109 0 154 10l-5 -12.5t-7 -29t4 -32.5l225 -436l228 438q6 16 4 32t-8 28l-5 12q36 -8 154 -8q27 -3 82 2l-2 -18q-4 -2 -11.5 -5t-28 -14.5t-38.5 -24t-38.5 -33t-33.5 -42.5l-250 -477v-342q1 -28 8 -55t13.5 -40t9.5 -14v-10q-47 8 -84 8 q-32 0 -82 -8v8v2q3 1 9.5 14t13.5 40t8 55v338l-250 481q-20 35 -57 64.5t-64 41.5l-28 13zM360 1171l162 269q15 24 62 24h98l-4 -10q-8 0 -18 -5t-16 -10l-7 -5l-217 -263h-60z" />
<glyph unicode="&#xde;" horiz-adv-x="755" d="M102 4q4 1 10.5 14.5t13 39.5t7.5 55l2 848q-1 30 -8 57t-14 40.5t-11 14.5v10q50 -8 84 -8q16 0 36.5 2t33.5 4l12 2v-10q-3 -1 -9.5 -14t-13.5 -40.5t-7 -57.5v-56h168q50 0 94.5 -16t86 -52.5t65.5 -107t24 -168.5v-45q0 -98 -24 -168.5t-65.5 -107t-86 -52.5 t-94.5 -16h-168v-59q1 -28 8 -55t13 -40t9 -14v-10q-50 8 -82 8q-16 0 -37 -2t-34 -4l-13 -2v10zM238 274h168q68 0 117.5 61t49.5 181v45q0 119 -50 180.5t-117 61.5h-168v-529z" />
<glyph unicode="&#xdf;" horiz-adv-x="888" d="M100 -145q4 3 11 16.5t14.5 42.5t7.5 61v781q0 127 85 216t214 89q134 0 221.5 -75t87.5 -204q0 -42 -16 -78t-35 -55.5t-35 -42t-16 -41.5q0 -12 19.5 -29.5t47.5 -40t56 -51t47.5 -73.5t19.5 -97q0 -132 -90 -204t-241 -72h-52v143h11q3 -5 9 -11.5t26 -18t43 -11.5 q81 0 136.5 43.5t55.5 130.5q0 41 -20.5 75t-49.5 57t-58.5 45t-50 51t-20.5 63q0 33 17.5 60.5t38 44.5t38 46.5t17.5 65.5q0 87 -54 131.5t-153 44.5q-93 0 -144.5 -59t-51.5 -143v-901h-52q-15 0 -84 -11v11z" />
<glyph unicode="&#xe0;" horiz-adv-x="802" d="M53 225q0 127 83.5 195.5t230.5 68.5q146 0 208 -77v73q0 42 -5.5 71t-23 59.5t-57 46.5t-100.5 16q-194 0 -256 -103h-16v140q3 3 8.5 7t28 15.5t50.5 20t77.5 15.5t107.5 7q148 0 219.5 -80.5t71.5 -214.5v-342q0 -24 10.5 -46.5t25 -38.5t29 -29t25.5 -19l10 -6v-8 q-40 4 -82 4q-18 0 -38 -2.5t-31 -5.5l-11 -2l-45 127q-34 -51 -105.5 -92t-148.5 -41q-117 0 -191.5 60t-74.5 181zM125 1169h98q47 0 62 -24l161 -268h-59l-217 262q-23 20 -41 20zM156 225q0 -49 29 -82.5t64 -45t70 -11.5q55 0 103.5 21t80.5 53.5t51 69t21 69.5v41 q-97 47 -208 47q-211 0 -211 -162z" />
<glyph unicode="&#xe1;" horiz-adv-x="802" d="M53 225q0 127 83.5 195.5t230.5 68.5q146 0 208 -77v73q0 42 -5.5 71t-23 59.5t-57 46.5t-100.5 16q-194 0 -256 -103h-16v140q3 3 8.5 7t28 15.5t50.5 20t77.5 15.5t107.5 7q148 0 219.5 -80.5t71.5 -214.5v-342q0 -24 10.5 -46.5t25 -38.5t29 -29t25.5 -19l10 -6v-8 q-40 4 -82 4q-18 0 -38 -2.5t-31 -5.5l-11 -2l-45 127q-34 -51 -105.5 -92t-148.5 -41q-117 0 -191.5 60t-74.5 181zM156 225q0 -49 29 -82.5t64 -45t70 -11.5q55 0 103.5 21t80.5 53.5t51 69t21 69.5v41q-97 47 -208 47q-211 0 -211 -162zM248 877l162 268q15 24 61 24h98 l-4 -10q-8 0 -18.5 -5t-16.5 -10l-6 -5l-217 -262h-59z" />
<glyph unicode="&#xe2;" horiz-adv-x="802" d="M53 225q0 127 83.5 195.5t230.5 68.5q146 0 208 -77v73q0 42 -5.5 71t-23 59.5t-57 46.5t-100.5 16q-194 0 -256 -103h-16v140q3 3 8.5 7t28 15.5t50.5 20t77.5 15.5t107.5 7q148 0 219.5 -80.5t71.5 -214.5v-342q0 -24 10.5 -46.5t25 -38.5t29 -29t25.5 -19l10 -6v-8 q-40 4 -82 4q-18 0 -38 -2.5t-31 -5.5l-11 -2l-45 127q-34 -51 -105.5 -92t-148.5 -41q-117 0 -191.5 60t-74.5 181zM156 225q0 -49 29 -82.5t64 -45t70 -11.5q55 0 103.5 21t80.5 53.5t51 69t21 69.5v41q-97 47 -208 47q-211 0 -211 -162zM180 858v66l182 153l183 -153v-66 l-183 111z" />
<glyph unicode="&#xe3;" horiz-adv-x="802" d="M53 225q0 127 83.5 195.5t230.5 68.5q146 0 208 -77v73q0 42 -5.5 71t-23 59.5t-57 46.5t-100.5 16q-194 0 -256 -103h-16v140q3 3 8.5 7t28 15.5t50.5 20t77.5 15.5t107.5 7q148 0 219.5 -80.5t71.5 -214.5v-342q0 -24 10.5 -46.5t25 -38.5t29 -29t25.5 -19l10 -6v-8 q-40 4 -82 4q-18 0 -38 -2.5t-31 -5.5l-11 -2l-45 127q-34 -51 -105.5 -92t-148.5 -41q-117 0 -191.5 60t-74.5 181zM156 225q0 -49 29 -82.5t64 -45t70 -11.5q55 0 103.5 21t80.5 53.5t51 69t21 69.5v41q-97 47 -208 47q-211 0 -211 -162zM236 924v92q20 14 45 14 q28 0 119.5 -34.5t117.5 -34.5q29 0 29 24h8v-92q-20 -14 -45 -14q-32 0 -120 34.5t-118 34.5q-28 0 -28 -24h-8z" />
<glyph unicode="&#xe4;" horiz-adv-x="802" d="M53 225q0 127 83.5 195.5t230.5 68.5q146 0 208 -77v73q0 42 -5.5 71t-23 59.5t-57 46.5t-100.5 16q-194 0 -256 -103h-16v140q3 3 8.5 7t28 15.5t50.5 20t77.5 15.5t107.5 7q148 0 219.5 -80.5t71.5 -214.5v-342q0 -24 10.5 -46.5t25 -38.5t29 -29t25.5 -19l10 -6v-8 q-40 4 -82 4q-18 0 -38 -2.5t-31 -5.5l-11 -2l-45 127q-34 -51 -105.5 -92t-148.5 -41q-117 0 -191.5 60t-74.5 181zM156 225q0 -49 29 -82.5t64 -45t70 -11.5q55 0 103.5 21t80.5 53.5t51 69t21 69.5v41q-97 47 -208 47q-211 0 -211 -162zM195 932q0 29 21 49t50 20 q28 0 49 -20t21 -49t-21 -49.5t-49 -20.5q-29 0 -50 20.5t-21 49.5zM455 932q0 29 20.5 49t48.5 20q31 0 51.5 -20t20.5 -49t-20.5 -49.5t-51.5 -20.5q-28 0 -48.5 20.5t-20.5 49.5z" />
<glyph unicode="&#xe5;" horiz-adv-x="802" d="M53 225q0 127 83.5 195.5t230.5 68.5q146 0 208 -77v73q0 42 -5.5 71t-23 59.5t-57 46.5t-100.5 16q-194 0 -256 -103h-16v140q3 3 8.5 7t28 15.5t50.5 20t77.5 15.5t107.5 7q148 0 219.5 -80.5t71.5 -214.5v-342q0 -24 10.5 -46.5t25 -38.5t29 -29t25.5 -19l10 -6v-8 q-40 4 -82 4q-18 0 -38 -2.5t-31 -5.5l-11 -2l-45 127q-34 -51 -105.5 -92t-148.5 -41q-117 0 -191.5 60t-74.5 181zM156 225q0 -49 29 -82.5t64 -45t70 -11.5q55 0 103.5 21t80.5 53.5t51 69t21 69.5v41q-97 47 -208 47q-211 0 -211 -162zM287 1034q0 48 39 90.5t98 42.5 q58 0 96.5 -42.5t38.5 -90.5q0 -60 -37.5 -97.5t-97.5 -37.5q-57 0 -97 39t-40 96zM360 1034q0 -28 18.5 -45.5t45.5 -17.5t45 17t18 46q0 22 -19 42t-44 20q-28 0 -46 -19t-18 -43z" />
<glyph unicode="&#xe6;" horiz-adv-x="1333" d="M78 233q0 126 82.5 194.5t228.5 68.5q145 0 211 -76v74q0 41 -5.5 69.5t-23.5 59t-58 46t-101 15.5q-193 0 -254 -102h-17v141q3 3 8.5 7t27.5 15t50 19t77.5 15t107.5 7q202 0 266 -151q94 133 287 133q83 0 145.5 -34.5t94 -86.5t45.5 -110.5t8 -110t-25 -82.5h-524 q8 -121 75.5 -189.5t188.5 -68.5q41 0 75 9t54.5 22t31.5 24t15 19l2 2l57 -101q-3 -3 -9 -8.5t-28 -19t-47 -24t-66 -19t-85 -8.5q-107 0 -189.5 46.5t-128.5 131.5q-48 -73 -131.5 -120.5t-179.5 -47.5q-117 0 -191.5 59.5t-74.5 181.5zM180 233q0 -49 29.5 -82.5 t64.5 -45t70 -11.5q106 0 177.5 69.5t78.5 143.5v39q-97 47 -211 47q-209 0 -209 -160zM713 449h436q10 47 -5.5 95.5t-62.5 84t-114 35.5q-222 0 -254 -215z" />
<glyph unicode="&#xe7;" horiz-adv-x="720" d="M70 383q0 181 96.5 286t271.5 105q31 0 84.5 -7t63.5 -7q12 0 23 3.5t15 6.5l5 4q-6 -32 -6 -59l6 -94h-6q-3 6 -15 14.5t-58 20.5t-112 12q-132 0 -199 -75t-67 -210t68.5 -213t197.5 -78q41 0 75 8.5t53.5 21t30.5 23.5t15 19l4 2l58 -100q-3 -3 -9.5 -8.5t-28.5 -19.5 t-47.5 -24.5t-66 -19t-84.5 -8.5q-168 0 -268 107.5t-100 289.5zM262 -176h19v-25q0 -31 21.5 -53t53.5 -22q31 0 53.5 22t22.5 53t-22.5 53.5t-53.5 22.5q-10 0 -14 -2l57 113q54 -3 119 8l-59 -94q5 -4 12 -11.5t19 -35t12 -58.5q0 -56 -41.5 -100.5t-102.5 -44.5 q-31 0 -49 6.5t-47 26.5v141zM262 -176h19v-25q0 -31 21.5 -53t53.5 -22q31 0 53.5 22t22.5 53t-22.5 53.5t-53.5 22.5q-10 0 -14 -2l57 113q54 -3 119 8l-59 -94q5 -4 12 -11.5t19 -35t12 -58.5q0 -56 -41.5 -100.5t-102.5 -44.5q-31 0 -49 6.5t-47 26.5v141z" />
<glyph unicode="&#xe8;" horiz-adv-x="782" d="M49 383q0 180 95.5 285.5t263.5 105.5q70 0 126.5 -24.5t89 -64t53.5 -87.5t25 -96t-2 -88.5t-22 -65.5h-524q8 -120 75.5 -188t188.5 -68q41 0 75 8.5t53.5 21t30.5 23.5t15 19l4 2l57 -100q-3 -3 -9.5 -8.5t-28.5 -19.5t-47 -24.5t-65.5 -19t-84.5 -8.5 q-168 0 -268.5 107.5t-100.5 289.5zM137 1169h99q46 0 61 -24l162 -268h-60l-217 262q-23 20 -41 20zM156 453h438q17 75 -33.5 145t-150.5 70q-217 0 -254 -215z" />
<glyph unicode="&#xe9;" horiz-adv-x="782" d="M49 383q0 180 95.5 285.5t263.5 105.5q70 0 126.5 -24.5t89 -64t53.5 -87.5t25 -96t-2 -88.5t-22 -65.5h-524q8 -120 75.5 -188t188.5 -68q41 0 75 8.5t53.5 21t30.5 23.5t15 19l4 2l57 -100q-3 -3 -9.5 -8.5t-28.5 -19.5t-47 -24.5t-65.5 -19t-84.5 -8.5 q-168 0 -268.5 107.5t-100.5 289.5zM156 453h438q17 75 -33.5 145t-150.5 70q-217 0 -254 -215zM297 877l162 268q15 24 61 24h98l-4 -10q-8 0 -18 -5t-16 -10l-7 -5l-217 -262h-59z" />
<glyph unicode="&#xea;" horiz-adv-x="782" d="M49 383q0 180 95.5 285.5t263.5 105.5q70 0 126.5 -24.5t89 -64t53.5 -87.5t25 -96t-2 -88.5t-22 -65.5h-524q8 -120 75.5 -188t188.5 -68q41 0 75 8.5t53.5 21t30.5 23.5t15 19l4 2l57 -100q-3 -3 -9.5 -8.5t-28.5 -19.5t-47 -24.5t-65.5 -19t-84.5 -8.5 q-168 0 -268.5 107.5t-100.5 289.5zM156 453h438q17 75 -33.5 145t-150.5 70q-217 0 -254 -215zM221 858v66l182 153l183 -153v-66l-183 111z" />
<glyph unicode="&#xeb;" horiz-adv-x="782" d="M49 383q0 180 95.5 285.5t263.5 105.5q70 0 126.5 -24.5t89 -64t53.5 -87.5t25 -96t-2 -88.5t-22 -65.5h-524q8 -120 75.5 -188t188.5 -68q41 0 75 8.5t53.5 21t30.5 23.5t15 19l4 2l57 -100q-3 -3 -9.5 -8.5t-28.5 -19.5t-47 -24.5t-65.5 -19t-84.5 -8.5 q-168 0 -268.5 107.5t-100.5 289.5zM156 453h438q17 75 -33.5 145t-150.5 70q-217 0 -254 -215zM195 932q0 29 21 49t50 20q28 0 49 -20t21 -49t-21 -49.5t-49 -20.5q-29 0 -50 20.5t-21 49.5zM455 932q0 29 20.5 49t48.5 20q31 0 51.5 -20t20.5 -49t-20.5 -49.5 t-51.5 -20.5q-28 0 -48.5 20.5t-20.5 49.5z" />
<glyph unicode="&#xec;" horiz-adv-x="389" d="M-39 1169h98q47 0 62 -24l162 -268h-60l-217 262q-23 20 -41 20zM86 750l6 18q40 -4 82 -4l72 2v-653q1 -28 8 -55.5t13 -41t9 -16.5v-10q-58 10 -81 10q-16 0 -37 -2.5t-34 -5.5l-13 -2v10q4 3 10.5 16.5t13.5 40.5t8 56v516q0 74 -57 121z" />
<glyph unicode="&#xed;" horiz-adv-x="389" d="M76 877l162 268q15 24 61 24h98l-4 -10q-8 0 -18.5 -5t-16.5 -10l-6 -5l-217 -262h-59zM86 750l6 18q40 -4 82 -4l72 2v-653q1 -28 8 -55.5t13 -41t9 -16.5v-10q-58 10 -81 10q-16 0 -37 -2.5t-34 -5.5l-13 -2v10q4 3 10.5 16.5t13.5 40.5t8 56v516q0 74 -57 121z" />
<glyph unicode="&#xee;" horiz-adv-x="337" d="M-16 858v66l182 153l182 -153v-66l-182 111zM66 750l6 18q40 -4 82 -4l71 2v-653q1 -28 8 -55.5t13.5 -41t9.5 -16.5v-10q-58 10 -82 10q-16 0 -37 -2.5t-34 -5.5l-13 -2v10q4 3 11 16.5t14 40.5t8 56v516q0 74 -57 121z" />
<glyph unicode="&#xef;" horiz-adv-x="389" d="M-6 932q0 29 21 49t51 20q28 0 48.5 -20t20.5 -49t-20.5 -49.5t-48.5 -20.5q-29 0 -50.5 20.5t-21.5 49.5zM86 750l6 18q40 -4 82 -4l72 2v-653q1 -28 8 -55.5t13 -41t9 -16.5v-10q-58 10 -81 10q-16 0 -37 -2.5t-34 -5.5l-13 -2v10q4 3 10.5 16.5t13.5 40.5t8 56v516 q0 74 -57 121zM254 932q0 29 21 49t49 20q31 0 51 -20t20 -49q0 -30 -20.5 -50t-50.5 -20q-28 0 -49 20.5t-21 49.5z" />
<glyph unicode="&#xf0;" horiz-adv-x="806" d="M72 346q0 83 26.5 152t69.5 112t95.5 66.5t107.5 23.5q121 0 194 -69q-7 49 -38.5 105t-77.5 102l-211 -97q-21 -12 -21 -20l-6 -2v74q0 26 27 38l43 19l96 45q-60 31 -105 31q-16 0 -28 -3t-16 -7l-3 -3h-14v115q144 0 264 -88l96 41q21 8 21 18l6 5v-74q2 -27 -27 -39 q-4 0 -28 -12q90 -92 141 -229.5t51 -303.5q0 -110 -49 -194t-123.5 -125t-159.5 -41q-62 0 -121 24.5t-106 69t-75.5 114t-28.5 152.5zM176 350q0 -116 65.5 -186t161.5 -70q97 0 162.5 69t65.5 187q0 108 -64.5 179t-177.5 71q-56 0 -99 -23t-66.5 -61t-35.5 -80t-12 -86z " />
<glyph unicode="&#xf1;" horiz-adv-x="864" d="M76 750l6 18q40 -4 82 -4l72 2v-113q97 121 229 121q87 0 149 -40t89.5 -98t27.5 -126v-397q1 -29 8 -56t14 -40.5t11 -16.5v-10q-62 10 -84 10q-16 0 -36.5 -2.5t-33.5 -5.5l-12 -2v10q4 4 10 16t13.5 39.5t7.5 57.5v397q0 70 -40.5 114t-123.5 44q-79 0 -139 -48 t-90 -120v-387q1 -29 8 -56t13.5 -40.5t10.5 -16.5v-10h-2q-58 10 -82 10q-16 0 -37 -2.5t-34 -5.5l-13 -2v10q4 3 11 16t14 40t8 57v516q0 74 -57 121zM262 924v92q20 14 45 14q28 0 120 -34.5t118 -34.5q28 0 28 24h9v-92q-20 -14 -45 -14q-32 0 -120 34.5t-118 34.5 q-29 0 -29 -24h-8z" />
<glyph unicode="&#xf2;" horiz-adv-x="856" d="M70 385q0 177 99 288t259 111q159 0 258.5 -111.5t99.5 -287.5t-99.5 -287.5t-258.5 -111.5t-258.5 111.5t-99.5 287.5zM172 385q0 -130 69.5 -211t186.5 -82q117 1 186.5 82t69.5 211q0 132 -69.5 212.5t-186.5 80.5t-186.5 -80.5t-69.5 -212.5zM238 1169h98 q46 0 61 -24l162 -268h-59l-217 262q-23 20 -41 20z" />
<glyph unicode="&#xf3;" horiz-adv-x="856" d="M70 385q0 177 99 288t259 111q159 0 258.5 -111.5t99.5 -287.5t-99.5 -287.5t-258.5 -111.5t-258.5 111.5t-99.5 287.5zM172 385q0 -130 69.5 -211t186.5 -82q117 1 186.5 82t69.5 211q0 132 -69.5 212.5t-186.5 80.5t-186.5 -80.5t-69.5 -212.5zM238 877l161 268 q15 24 62 24h98l-4 -10q-8 0 -18.5 -5t-16.5 -10l-6 -5l-217 -262h-59z" />
<glyph unicode="&#xf4;" horiz-adv-x="856" d="M70 385q0 177 99 288t259 111q159 0 258.5 -111.5t99.5 -287.5t-99.5 -287.5t-258.5 -111.5t-258.5 111.5t-99.5 287.5zM172 385q0 -130 69.5 -211t186.5 -82q117 1 186.5 82t69.5 211q0 132 -69.5 212.5t-186.5 80.5t-186.5 -80.5t-69.5 -212.5zM252 858v66l182 153 l182 -153v-66l-182 111z" />
<glyph unicode="&#xf5;" horiz-adv-x="856" d="M70 385q0 177 99 288t259 111q159 0 258.5 -111.5t99.5 -287.5t-99.5 -287.5t-258.5 -111.5t-258.5 111.5t-99.5 287.5zM172 385q0 -130 69.5 -211t186.5 -82q117 1 186.5 82t69.5 211q0 132 -69.5 212.5t-186.5 80.5t-186.5 -80.5t-69.5 -212.5zM252 924v92q20 14 45 14 q28 0 120 -34.5t118 -34.5q28 0 28 24h8v-92q-20 -14 -45 -14q-32 0 -119.5 34.5t-117.5 34.5q-29 0 -29 -24h-8z" />
<glyph unicode="&#xf6;" horiz-adv-x="856" d="M70 385q0 177 99 288t259 111q159 0 258.5 -111.5t99.5 -287.5t-99.5 -287.5t-258.5 -111.5t-258.5 111.5t-99.5 287.5zM172 385q0 -130 69.5 -211t186.5 -82q117 1 186.5 82t69.5 211q0 132 -69.5 212.5t-186.5 80.5t-186.5 -80.5t-69.5 -212.5zM231 932q0 29 21 49 t51 20q28 0 49 -20t21 -49t-21 -49.5t-49 -20.5q-29 0 -50.5 20.5t-21.5 49.5zM492 932q0 29 20.5 49t48.5 20q31 0 51.5 -20t20.5 -49t-20.5 -49.5t-51.5 -20.5q-28 0 -48.5 20.5t-20.5 49.5z" />
<glyph unicode="&#xf7;" horiz-adv-x="854" d="M33 379v102h782v-102h-782zM348 178q0 32 22.5 54t53.5 22q32 0 54 -22t22 -54q0 -31 -22 -53.5t-54 -22.5q-31 0 -53.5 22.5t-22.5 53.5zM348 680q0 32 22.5 54t53.5 22q32 0 54 -22t22 -54q0 -31 -22 -53.5t-54 -22.5q-31 0 -53.5 22.5t-22.5 53.5z" />
<glyph unicode="&#xf8;" horiz-adv-x="847" d="M61 455q0 175 100 287t259 112q62 0 117 -18l22 53q34 87 21 100l8 12q33 -10 80 -10h39l-86 -198q74 -53 114.5 -140.5t40.5 -197.5q0 -175 -99 -287.5t-257 -112.5q-58 0 -107 15l-20 -47q-37 -89 -23 -103l-8 -10q-50 10 -90 10h-29l82 191q-78 52 -121 141t-43 203z M164 455q0 -168 104 -246l226 528q-42 11 -74 11q-117 -1 -186.5 -82t-69.5 -211zM354 168q30 -6 66 -6q117 0 185.5 80.5t68.5 212.5q0 158 -94 237z" />
<glyph unicode="&#xf9;" horiz-adv-x="866" d="M78 752l4 18q40 -4 82 -4l72 2v-512q0 -68 41 -113t122 -45q80 0 141 48t91 120v387q-1 30 -8 57t-14 40t-11 16v10q63 -10 84 -10h51v-629q0 -75 55 -121l-4 -18q-40 4 -82 4l-71 -2v113q-97 -121 -232 -121q-87 0 -149 40t-89.5 98t-27.5 126v375q0 75 -55 121z M238 1169h98q46 0 61 -24l162 -268h-59l-217 262q-23 20 -41 20z" />
<glyph unicode="&#xfa;" horiz-adv-x="866" d="M78 752l4 18q40 -4 82 -4l72 2v-512q0 -68 41 -113t122 -45q80 0 141 48t91 120v387q-1 30 -8 57t-14 40t-11 16v10q63 -10 84 -10h51v-629q0 -75 55 -121l-4 -18q-40 4 -82 4l-71 -2v113q-97 -121 -232 -121q-87 0 -149 40t-89.5 98t-27.5 126v375q0 75 -55 121z M238 877l161 268q15 24 62 24h98l-4 -10q-8 0 -18.5 -5t-16.5 -10l-6 -5l-217 -262h-59z" />
<glyph unicode="&#xfb;" horiz-adv-x="866" d="M78 752l4 18q40 -4 82 -4l72 2v-512q0 -68 41 -113t122 -45q80 0 141 48t91 120v387q-1 30 -8 57t-14 40t-11 16v10q63 -10 84 -10h51v-629q0 -75 55 -121l-4 -18q-40 4 -82 4l-71 -2v113q-97 -121 -232 -121q-87 0 -149 40t-89.5 98t-27.5 126v375q0 75 -55 121z M217 858v66l182 153l183 -153v-66l-183 111z" />
<glyph unicode="&#xfc;" horiz-adv-x="866" d="M78 752l4 18q40 -4 82 -4l72 2v-512q0 -68 41 -113t122 -45q80 0 141 48t91 120v387q-1 30 -8 57t-14 40t-11 16v10q63 -10 84 -10h51v-629q0 -75 55 -121l-4 -18q-40 4 -82 4l-71 -2v113q-97 -121 -232 -121q-87 0 -149 40t-89.5 98t-27.5 126v375q0 75 -55 121z M195 932q0 29 21 49t50 20q28 0 49 -20t21 -49t-21 -49.5t-49 -20.5q-29 0 -50 20.5t-21 49.5zM455 932q0 29 20.5 49t48.5 20q31 0 51.5 -20t20.5 -49t-20.5 -49.5t-51.5 -20.5q-28 0 -48.5 20.5t-20.5 49.5z" />
<glyph unicode="&#xfd;" horiz-adv-x="661" d="M-2 750v18q40 -4 51 -4q96 0 141 10q-11 -45 5 -72l135 -268l137 268q6 12 6.5 30t-1.5 30l-3 12q45 -10 143 -10q12 0 52 4v-18q-9 -5 -22.5 -14t-46 -39.5t-52.5 -65.5l-162 -285v-231q1 -29 8 -56t14 -40.5t11 -16.5v-10q-63 10 -84 10q-16 0 -36.5 -2.5t-33.5 -5.5 l-12 -2v10q3 3 9.5 15.5t13.5 40t8 57.5v227l-162 289q-20 35 -49.5 64.5t-49.5 42.5zM238 877l161 268q15 24 62 24h98l-4 -10q-8 0 -18.5 -5t-16.5 -10l-6 -5l-217 -262h-59z" />
<glyph unicode="&#xfe;" horiz-adv-x="745" d="M102 -319q4 3 10.5 16t13 39t7.5 55v1174q-1 30 -7.5 57t-13 40.5t-10.5 14.5v10q50 -8 84 -8q16 0 36.5 2t33.5 4l12 2v-10q-3 -1 -9.5 -14t-13.5 -40.5t-7 -57.5v-111q84 55 168 55q52 0 96.5 -16t85.5 -52.5t64.5 -107t23.5 -168.5v-45q0 -98 -24.5 -168.5t-66 -107 t-85.5 -52.5t-94 -16q-81 0 -168 70v-455q1 -28 8 -55t13 -39.5t9 -15.5v-11q-69 11 -82 11q-16 0 -37 -2.5t-34 -5.5l-13 -3v11zM238 342q74 -63 168 -63q70 0 118.5 60t48.5 181v45q0 119 -49.5 180.5t-117.5 61.5q-93 0 -168 -51v-414z" />
<glyph unicode="&#xff;" horiz-adv-x="661" d="M-2 750v18q40 -4 51 -4q96 0 141 10q-11 -45 5 -72l135 -268l137 268q6 12 6.5 30t-1.5 30l-3 12q45 -10 143 -10q12 0 52 4v-18q-9 -5 -22.5 -14t-46 -39.5t-52.5 -65.5l-162 -285v-231q1 -29 8 -56t14 -40.5t11 -16.5v-10q-63 10 -84 10q-16 0 -36.5 -2.5t-33.5 -5.5 l-12 -2v10q3 3 9.5 15.5t13.5 40t8 57.5v227l-162 289q-20 35 -49.5 64.5t-49.5 42.5zM127 932q0 29 21 49t51 20q28 0 48.5 -20t20.5 -49t-20.5 -49.5t-48.5 -20.5q-29 0 -50.5 20.5t-21.5 49.5zM387 932q0 29 21 49t49 20q31 0 51 -20t20 -49q0 -30 -20 -50t-51 -20 q-28 0 -49 20.5t-21 49.5z" />
<glyph unicode="&#x152;" horiz-adv-x="1339" d="M72 541q0 238 133 380t358 142q21 0 57 -5t52 -5q15 0 33 2.5t30.5 5t14.5 2.5h530q-8 -33 -8 -70l8 -94h-10q-1 4 -3.5 9t-11 15.5t-19.5 18t-32 13.5t-47 6h-356v-359h293q29 1 53 8t35 14t14 11h10q-10 -63 -10 -84q0 -16 2.5 -36.5t5.5 -32.5l2 -13h-10q-4 4 -14 9.5 t-35 13t-53 8.5h-293v-398h356q83 0 113 60h10q-8 -55 -8 -92q0 -16 2 -33.5t4 -26.5l2 -10h-530q-2 0 -27.5 5t-50.5 5q-22 0 -56 -5t-53 -5q-222 0 -356.5 148.5t-134.5 392.5zM174 541q0 -198 107 -318.5t282 -120.5q70 0 135 21v811q-67 27 -135 27q-180 0 -284.5 -112 t-104.5 -308z" />
<glyph unicode="&#x153;" horiz-adv-x="1396" d="M70 389q0 175 99 287t257 112q100 0 179.5 -45.5t125.5 -128.5q43 84 122 129t187 45q70 0 126.5 -24.5t89.5 -63t53.5 -86.5t25 -95t-1.5 -88t-22 -66h-525q8 -121 76 -190t189 -69q53 0 94.5 15.5t58.5 31t21 27.5l4 2l57 -102q-3 -3 -9 -8.5t-28 -19t-47 -23.5 t-66 -18.5t-85 -8.5q-107 0 -188.5 45t-127.5 127q-45 -86 -125.5 -135t-183.5 -49q-158 0 -257 112t-99 287zM172 389q0 -130 69 -211t185 -82q118 1 187 81.5t69 211.5q0 132 -69.5 212.5t-186.5 80.5q-116 0 -185 -80.5t-69 -212.5zM791 467h436q10 47 -6 96t-63 85 t-114 36q-221 0 -253 -217z" />
<glyph unicode="&#x160;" horiz-adv-x="784" d="M72 801q0 111 92.5 179.5t226.5 68.5q62 0 121.5 -8.5t87.5 -8.5q8 0 18 4t16 8l5 5q-8 -41 -8 -78l8 -113h-6q-87 111 -221 111q-106 0 -171 -43.5t-65 -124.5q0 -68 55.5 -121.5t155.5 -101.5q54 -26 89.5 -45t81.5 -52t73 -66t46 -80.5t19 -101.5q0 -110 -84 -178.5 t-217 -68.5q-64 0 -147.5 8t-110.5 8q-9 0 -19 -4t-16 -8l-6 -4q10 43 10 80l-10 110h6q40 -49 119 -79.5t154 -30.5q104 0 159.5 47t55.5 120q0 68 -53.5 119t-155.5 101q-80 41 -128.5 70.5t-94 71.5t-66 92t-20.5 114zM221 1329v66l182 -111l183 111v-66l-183 -153z" />
<glyph unicode="&#x161;" horiz-adv-x="567" d="M59 580q0 86 74.5 133t177.5 47q45 0 93 -6t67 -6q6 0 13.5 3t11.5 6l4 3q-6 -31 -6 -58l6 -90h-4q-20 27 -68.5 44.5t-101.5 17.5q-73 0 -117.5 -23.5t-44.5 -70.5q0 -19 7 -36t15.5 -28.5t30 -27t35.5 -24.5t47 -28q56 -34 90.5 -58.5t71.5 -58.5t54 -71t17 -80 q0 -86 -67.5 -134t-169.5 -48q-45 0 -100 6t-74 6q-6 0 -14 -3t-13 -6l-4 -3q8 30 8 57l-8 90h4q51 -61 187 -61q60 0 103.5 26t43.5 68q0 40 -26.5 66.5t-106.5 74.5q-40 24 -54.5 33t-47 31.5t-45.5 35t-35 35t-30.5 41.5t-16 44.5t-7.5 52.5zM106 1032v66l183 -111 l182 111v-66l-182 -153z" />
<glyph unicode="&#x178;" horiz-adv-x="870" d="M-18 1067q46 -4 81 -4q109 0 154 10l-5 -12.5t-7 -29t4 -32.5l225 -436l228 438q6 16 4 32t-8 28l-5 12q36 -8 154 -8q27 -3 82 2l-2 -18q-4 -2 -11.5 -5t-28 -14.5t-38.5 -24t-38.5 -33t-33.5 -42.5l-250 -477v-342q1 -28 8 -55t13.5 -40t9.5 -14v-10q-47 8 -84 8 q-32 0 -82 -8v8v2q3 1 9.5 14t13.5 40t8 55v338l-250 481q-20 35 -57 64.5t-64 41.5l-28 13zM242 1282q0 29 21 49.5t50 20.5q28 0 49 -20.5t21 -49.5t-21 -49.5t-49 -20.5q-29 0 -50 20.5t-21 49.5zM502 1282q0 29 20.5 49.5t48.5 20.5q31 0 51.5 -20.5t20.5 -49.5 t-20.5 -49.5t-51.5 -20.5q-28 0 -48.5 20.5t-20.5 49.5z" />
<glyph unicode="&#x192;" horiz-adv-x="815" />
<glyph unicode="&#x2c6;" horiz-adv-x="733" d="M180 858v66l182 153l183 -153v-66l-183 111z" />
<glyph unicode="&#x2dc;" horiz-adv-x="829" d="M262 924v92q20 14 45 14q28 0 120 -34.5t118 -34.5q28 0 28 24h9v-92q-20 -14 -45 -14q-32 0 -120 34.5t-118 34.5q-29 0 -29 -24h-8z" />
<glyph unicode="&#x300;" />
<glyph unicode="&#x301;" />
<glyph unicode="&#x303;" />
<glyph unicode="&#x323;" />
<glyph unicode="&#xe00;" horiz-adv-x="876" />
<glyph unicode="&#xe01;" horiz-adv-x="946" d="M61 725l7 29q16 7 58 35t83.5 54t110.5 48t141 22q86 0 153 -23.5t103 -56.5t59 -75t30 -73t7 -56v-588q0 -26 23 -41v-6q-31 8 -72 8q-43 0 -76 -8v6q6 2 14.5 15t8.5 26v582q0 26 -12 55.5t-38 61t-78 51.5t-122 20q-47 0 -93 -11t-71.5 -22t-61.5 -30t-45 -23 q38 -15 79 -52.5t61 -84.5l-2 -8q-39 -13 -65.5 -49.5t-26.5 -75.5v-414q0 -26 22 -41v-6q-31 8 -72 8q-42 0 -75 -8v6q6 2 14 15t8 26v414q0 43 29.5 79t75.5 48q-55 105 -177 143z" />
<glyph unicode="&#xe02;" horiz-adv-x="839" d="M102 268v109q0 60 14 108.5t33.5 79t39 56.5t33.5 55t14 61q0 27 -18.5 50.5t-51.5 35.5v19q42 15 86 59q34 -16 61 -53t27 -98q0 -45 -21 -91.5t-46.5 -81t-46.5 -88.5t-21 -112v-109q0 -180 205 -180q194 0 194 170v586q0 28 -22 43v4q38 -6 73 -6q39 0 74 6v-4 q-22 -22 -22 -43v-586q0 -37 -6.5 -70.5t-26.5 -71.5t-51.5 -66t-86 -46t-126.5 -18t-127.5 17.5t-89 45.5t-55 66t-29 75t-7.5 78z" />
<glyph unicode="&#xe03;" horiz-adv-x="839" d="M55 850q41 10 76 47q6 -23 25.5 -37t44.5 -14q24 0 43 12.5t26 34.5q97 0 97 -113q0 -42 -25.5 -88.5t-55.5 -83.5t-55.5 -96.5t-25.5 -124.5v-119q0 -180 205 -180q44 0 77.5 8.5t54 23.5t34 31.5t19 37.5t7.5 36t2 33v580q0 13 -8 26t-14 15v6h147v-6q-22 -15 -22 -41 v-580q0 -37 -6.5 -70.5t-26.5 -71.5t-51.5 -66t-86 -46t-126.5 -18q-71 0 -127.5 20.5t-89.5 51t-54.5 70t-29 74t-7.5 66.5v119q0 66 16.5 119t40.5 86.5t48 61.5t40.5 56.5t16.5 57.5v6q-20 -18 -71 -18q-32 0 -57.5 9.5t-40 23.5t-24 28t-13.5 23z" />
<glyph unicode="&#xe04;" horiz-adv-x="1024" d="M111 -2q22 15 22 41v498q0 154 102.5 263t276.5 109q89 0 162 -31.5t119.5 -83.5t72 -118.5t25.5 -138.5v-498q0 -26 22 -41v-4q-35 6 -71 6q-38 0 -76 -6v4q22 15 22 41v498q0 70 -29 130t-93.5 100t-153.5 40q-132 0 -204 -79t-72 -191v-240q66 93 159 143.5t193 32.5 v-129h-13q-5 21 -32 21q-121 0 -208.5 -86t-98.5 -199v-45q2 -14 -9 -25t-26 -10l-54 -2q-12 0 -36 -4v4z" />
<glyph unicode="&#xe05;" horiz-adv-x="1024" d="M111 -2q22 15 22 41v498q0 138 68.5 233t193.5 125q2 -4 6 -9.5t16 -21t25 -27t32.5 -21t37.5 -9.5q29 0 59 22t45 44l15 22q125 -30 192.5 -125t67.5 -233v-498q0 -26 22 -41v-4q-35 6 -71 6q-38 0 -76 -6v4q22 15 22 41v498q0 93 -39.5 158.5t-119.5 92.5 q-4 -7 -13 -16.5t-39 -26t-65 -16.5q-34 0 -63 14.5t-41 29.5l-13 15q-80 -27 -119.5 -92.5t-39.5 -158.5v-242q66 94 159.5 145.5t192.5 32.5v-129h-10q-8 21 -33 21q-126 0 -215 -91.5t-94 -210.5v-24q0 -15 -16 -27t-36 -12q-36 0 -73 -6v4z" />
<glyph unicode="&#xe06;" horiz-adv-x="958" d="M90 8q55 49 55 123v131q-47 54 -55 64q49 36 55 63q2 61 19.5 111.5t40.5 82t46 58.5t38.5 54.5t15.5 56.5v6q-20 -17 -69 -17q-50 0 -84.5 23.5t-43.5 46.5l-10 23q41 12 74 47q8 -23 26.5 -37.5t43.5 -14.5q24 0 42.5 14t26.5 36q99 -3 99 -115q0 -41 -23.5 -85.5 t-52 -79.5t-55 -90.5t-31.5 -113.5v-114q185 -181 291 -181q85 0 134.5 40.5t49.5 113.5v586q0 13 -9 25.5t-14 15.5v6q50 -8 74 -8t74 8v-6q-7 -4 -15 -15.5t-8 -25.5v-582q0 -109 -69 -186.5t-189 -77.5q-137 0 -319 166v-94q0 -34 -19 -52t-53 -18q-36 0 -82 -4z" />
<glyph unicode="&#xe07;" horiz-adv-x="770" d="M-4 475h154l4 -6q-20 -8 -9 -49q17 -48 46 -128t65 -183q4 -7 10 -7h47q125 0 202 88t77 271q0 168 -66 258t-176 104v15q47 24 92 69q119 -40 185.5 -151.5t66.5 -294.5q0 -230 -104.5 -345.5t-278.5 -115.5h-127l-137 387q-11 27 -24 49t-20 30z" />
<glyph unicode="&#xe08;" horiz-adv-x="759" d="M37 719v137q122 70 264 70q172 0 277.5 -118t105.5 -347q0 -114 -29.5 -205t-78 -145t-105.5 -82.5t-117 -28.5h-166q5 6 11.5 17.5t18 59.5t11.5 109q0 56 -22 108.5t-53 87t-62.5 55t-52.5 20.5l10 20h160q74 -51 106.5 -155.5t14.5 -217.5h35q36 0 72.5 20t69.5 60 t54 112t21 165q0 185 -76.5 273.5t-202.5 88.5q-106 0 -172 -31t-88 -73h-6z" />
<glyph unicode="&#xe09;" horiz-adv-x="960" d="M78 520l6 19q40 -4 61 -4q31 0 93 8v-289q0 -73 48.5 -113.5t133.5 -40.5q110 0 291 181v307q0 38 -8.5 68.5t-32.5 63.5t-77.5 52t-133.5 19q-69 0 -128 -11t-93 -27.5t-58.5 -32.5t-33.5 -27l-9 -11h-6v119q33 27 124 59.5t204 32.5q94 0 163.5 -24.5t105 -57.5 t56 -79.5t25 -78t4.5 -65.5v-195q0 -12 14.5 -28.5t28.5 -27.5l14 -11q-4 -4 -22.5 -25.5t-34.5 -38.5v-131q0 -76 57 -123l-6 -18q-30 6 -82 6q-34 0 -52.5 18t-18.5 52v94q-178 -166 -320 -166q-120 0 -189 77.5t-69 186.5v141q0 75 -55 121z" />
<glyph unicode="&#xe0a;" horiz-adv-x="839" d="M102 270v109q0 60 13.5 108.5t32.5 79t38.5 56.5t33 55t13.5 61q0 26 -17.5 50.5t-49.5 35.5v17q48 17 84 59q34 -14 61 -50.5t27 -98.5q0 -45 -21 -92t-45.5 -81.5t-45.5 -88t-21 -111.5v-109q0 -182 205 -182q194 0 194 172v307q0 48 -37.5 80.5t-93.5 32.5h-45 q24 50 35 92h6q60 3 97.5 34.5t37.5 80.5v18q0 56 -26 74l4 12q24 -6 61 -6q18 0 34 2.5t23 4.5l7 3v-108q0 -40 -24.5 -84.5t-68.5 -75.5q44 -31 68.5 -75.5t24.5 -84.5v-307q0 -36 -6.5 -70.5t-26.5 -72.5t-52 -66t-86.5 -46.5t-125.5 -18.5q-72 0 -127.5 18t-89 46 t-55 66.5t-29 75.5t-7.5 78z" />
<glyph unicode="&#xe0b;" horiz-adv-x="839" d="M55 856q41 12 74 47q6 -23 25.5 -37t44.5 -14q24 0 42.5 13t26.5 34q99 0 99 -113q0 -42 -25.5 -88.5t-55.5 -83.5t-55.5 -96.5t-25.5 -124.5v-108q0 -183 203 -183q196 0 196 172v308q0 47 -38 79.5t-95 32.5h-43q24 50 35 92h6q60 3 97.5 34.5t37.5 80.5v33 q-3 44 -26 59l4 13q24 -7 63 -7q17 0 32.5 2.5t22.5 5.5l7 3v-109q0 -40 -24.5 -84.5t-68.5 -75.5q44 -31 68.5 -75t24.5 -84v-308q0 -36 -7 -70.5t-27 -72.5t-51.5 -66t-86.5 -46.5t-127 -18.5t-127.5 18t-88.5 46t-54 67t-28.5 76t-7.5 78v108q0 66 16.5 119.5t40 87 t47 61t40 56t16.5 57.5v6q-20 -16 -69 -16q-32 0 -57.5 9.5t-40 23t-24 27t-13.5 22.5z" />
<glyph unicode="&#xe0c;" horiz-adv-x="1411" d="M61 725l7 31q18 6 54.5 34t73 54.5t100.5 48.5t136 22q63 0 114 -12.5t84 -32t58 -47t38 -53t20.5 -55t9.5 -48t2 -36.5v-355q154 -167 262 -167q82 0 119 38.5t37 114.5v586q0 13 -9 25.5t-14 15.5v4q37 -6 74 -6q35 0 73 6v-4q-22 -15 -22 -41v-582 q0 -115 -55.5 -189.5t-173.5 -74.5q-135 0 -291 152v-80q0 -33 -19.5 -52.5t-52.5 -19.5q-62 0 -82 -4l-6 18q57 47 57 121v127q-16 18 -34.5 42t-22.5 28q57 42 57 67v224q0 22 -4 43t-17.5 48.5t-36.5 47.5t-65.5 34.5t-99.5 14.5q-47 0 -88 -11t-63.5 -23.5t-50 -30 t-40.5 -23.5q37 -16 77.5 -53t60.5 -84v-8q-39 -12 -65.5 -48.5t-26.5 -76.5v-314q1 -26 17 -40.5t42 -14.5q35 0 59 12q-13 -39 -16 -96h-43q-162 0 -162 137v316q0 43 29 79.5t74 49.5q-56 104 -175 141z" />
<glyph unicode="&#xe0d;" horiz-adv-x="1411" d="M61 713q-1 0 0.5 7.5t2.5 15.5l2 7q17 7 54 35t74 54.5t101 48.5t135 22q87 0 151.5 -24t97 -56.5t52 -76.5t23.5 -72t4 -56v-354q0 -70 51 -119t158 -49q106 0 157.5 49.5t51.5 118.5v572q0 13 -9 25.5t-14 15.5v4q44 -7 74 -7q29 0 73 7v-4q-22 -15 -22 -41v-572 q0 -51 -14 -95t-46.5 -85.5t-96.5 -65.5t-154 -24q-55 0 -107 10q-22 -39 -57.5 -70.5t-67.5 -44.5q112 -86 242 -86q77 0 125.5 24t48.5 67v4q20 -7 63 -7q19 0 32.5 1.5t17.5 3.5l4 2q0 -29 -15.5 -60t-47.5 -61.5t-91.5 -50t-136.5 -19.5q-72 0 -136.5 21t-101 46 t-73.5 52.5t-54 34.5v1q0 1 -0.5 3.5l-1 5t-1.5 5.5t-1.5 5t-0.5 4t-1 3v1q120 40 174 144q-127 66 -127 231v348q0 22 -4 43.5t-17.5 49t-36.5 48t-65.5 34.5t-99.5 14q-46 0 -86.5 -10.5t-63.5 -23.5t-50 -29.5t-42 -22.5q39 -17 79.5 -55t60.5 -85l-2 -8q-38 -12 -64 -48 t-26 -75v-315q0 -26 16 -40.5t41 -14.5q33 0 61 14q-13 -42 -16 -98h-45q-78 0 -119 35t-41 102v317q0 43 29 79t74 48q-55 105 -175 142z" />
<glyph unicode="&#xe0e;" horiz-adv-x="956" d="M25 96q24 -12 59 -12q26 0 42 14.5t17 40.5v314q0 43 29 79.5t74 49.5q-56 104 -174 141l6 31q17 6 58.5 34t83 54.5t110 48.5t139.5 22q87 0 154 -23.5t103.5 -57t59.5 -75.5t30 -72.5t7 -55.5v-910q0 -16 -26 -43.5t-70 -56t-116.5 -49.5t-151.5 -21q-62 0 -132.5 21.5 t-118.5 46.5t-85.5 46.5t-42.5 21.5v102q101 0 181.5 38t127.5 107h84q-32 -73 -110 -135.5t-158 -81.5q47 -26 121 -44.5t133 -18.5q66 0 129 20t98 44.5t35 41.5v865q0 26 -12 55t-38.5 60.5t-79 52t-122.5 20.5q-46 0 -91.5 -11t-71 -22.5t-61.5 -31t-44 -23.5 q37 -15 77 -52.5t60 -84.5v-8q-39 -12 -65.5 -48.5t-26.5 -76.5v-316q0 -137 -162 -137h-45q0 42 -14 96z" />
<glyph unicode="&#xe0f;" horiz-adv-x="956" d="M25 96q24 -12 59 -12q26 0 42 14.5t17 40.5v314q0 43 29.5 79t73.5 50q-53 103 -174 141l6 31q17 6 58.5 34t83 54.5t110.5 48.5t141 22q86 0 153 -23.5t103 -57t59 -75.5t30 -72.5t7 -55.5v-910q0 -14 -43 -51.5t-99.5 -70.5t-88.5 -33q-1 4 -4 10t-13 21.5t-22.5 27.5 t-34 21.5t-45.5 9.5t-44.5 -9.5t-33 -22.5t-22 -26t-13.5 -22l-4 -10q-36 0 -85 19t-87 41.5t-68.5 41.5t-33.5 19v102q100 0 180.5 38t126.5 107h84q-31 -73 -109 -135.5t-157 -81.5q79 -45 131 -51q2 3 5.5 7.5t15.5 16t26.5 20.5t38 16.5t49.5 7.5q40 0 71.5 -15 t43.5 -30l12 -15q39 6 80 36.5t41 49.5v865q0 20 -6.5 42.5t-24.5 49t-45 47.5t-72 35t-102 14q-47 0 -92.5 -11t-71.5 -23t-61 -30.5t-45 -23.5q38 -15 78 -52.5t59 -84.5v-8q-39 -12 -65.5 -48.5t-26.5 -76.5v-316q0 -137 -162 -137h-43q-3 57 -16 96z" />
<glyph unicode="&#xe10;" horiz-adv-x="768" d="M-33 -115q89 -12 156 26.5t108 104.5q33 69 33 172q0 56 -22.5 108.5t-53.5 87t-62.5 55t-51.5 20.5l8 20h162q72 -52 105.5 -156.5t15.5 -216.5h20q31 0 65.5 13t67.5 38t54.5 70t21.5 101v12q0 242 -578 326l-30 55q7 1 27 24t51.5 53.5t74 61t107 51.5t137.5 21 q72 0 139 -17.5t98 -34.5l31 -18v-137h-8q-58 104 -260 104q-41 0 -80.5 -10.5t-66.5 -25t-48 -29t-31 -24.5l-10 -11q114 -14 210 -44t173.5 -76.5t121.5 -115.5t44 -153v-18q-1 -42 -14 -85.5t-39.5 -85.5t-63 -75t-89 -53.5t-113.5 -20.5h-45q-11 -23 -29.5 -47 t-48.5 -52.5t-75.5 -49.5t-98.5 -27q95 -51 147 -57q8 10 23.5 23t46.5 27.5t61 14.5q33 0 64.5 -14.5t45 -26.5t17.5 -18q62 0 98 48.5t17 106.5q46 12 113 50q17 -71 -4 -142t-82.5 -120.5t-149.5 -49.5q-2 4 -6 9.5t-16.5 21t-25.5 27t-32.5 21t-38.5 9.5q-29 0 -58 -22 t-44 -44l-14 -22q-46 0 -111 30t-113 59.5t-51 29.5v98z" />
<glyph unicode="&#xe11;" horiz-adv-x="944" d="M86 838q41 12 76 47q6 -23 25 -37t44 -14q24 0 43 13t27 34q98 0 98 -113q16 26 13 55q25 29 65 47.5t78 18.5q121 0 188.5 -73t67.5 -191v-584q0 -26 23 -41v-4q-34 6 -74 6q-36 0 -74 -6v4q6 2 14.5 15t8.5 26v575q0 75 -34 126t-112 51q-47 0 -98.5 -33t-97.5 -92 q-6 -10 -50 -72.5t-62.5 -110.5t-18.5 -110v-338q3 -24 22 -37v-4l-57 6l-51 -2q-15 0 -39 -4v4q22 15 22 41v334q0 66 16.5 119.5t40.5 87t48 61t40.5 56t16.5 57.5v6q-21 -17 -70 -17q-32 0 -58.5 9.5t-40.5 23.5t-24 27.5t-13 22.5z" />
<glyph unicode="&#xe12;" horiz-adv-x="1472" d="M70 426q0 210 56 324.5t179 146.5q7 -10 20 -25.5t48.5 -41t66.5 -25.5q30 0 64.5 23t53.5 46l20 23q121 -30 181 -123.5t60 -234.5v-267q155 -168 262 -168q82 0 119 39t37 115v586q0 13 -8.5 26t-14.5 15v4q38 -6 74 -6t74 6v-4q-23 -15 -23 -41v-582 q0 -115 -55.5 -189.5t-173.5 -74.5q-131 0 -291 152v-80q0 -34 -19.5 -53t-51.5 -19q-62 0 -82 -4l-7 18q58 48 58 121v127q-12 13 -25 29.5t-21 26t-12 12.5q58 42 58 69v142q0 97 -32 160.5t-110 91.5q-7 -7 -19 -17.5t-47.5 -28.5t-68.5 -18t-66 15.5t-50 30.5l-17 15 q-78 -29 -106.5 -113t-28.5 -249q0 -74 9 -136.5t21.5 -98t25 -60.5t21.5 -34l9 -9q35 14 77 67t69 130t16 143q-3 11 -8 19t-9 10l-4 2v12h129q12 -67 -3 -139t-48 -129.5t-74 -104t-82 -72.5t-71 -26h-49q-5 4 -14 12.5t-31.5 43t-40 78t-31.5 122t-14 170.5z" />
<glyph unicode="&#xe13;" horiz-adv-x="1427" d="M61 723l7 29q17 7 54 35.5t73.5 55t100.5 48.5t136 22q63 0 114 -12.5t84 -32t58 -47t38 -53t20.5 -55t9.5 -48t2 -36.5v-369q0 -154 162 -154q106 0 254 164v576q0 15 -8.5 27t-14.5 14v6q38 -6 74 -6q39 0 73 6v-6q-22 -15 -22 -41v-447q0 -12 14 -29.5t28 -28.5 l15 -11q-4 -4 -12 -14t-21.5 -27t-23.5 -29v-125q0 -74 57 -121l-6 -18q-20 4 -82 4q-33 0 -52 19t-19 53v75q-151 -147 -283 -147q-117 0 -176.5 75.5t-59.5 188.5v359q0 22 -4 43t-17.5 48.5t-36.5 47.5t-65.5 34.5t-99.5 14.5q-60 0 -104.5 -15t-85.5 -41.5t-52 -31.5 q37 -16 77.5 -53t60.5 -84v-8q-39 -12 -65.5 -48.5t-26.5 -76.5v-314q1 -26 17 -40.5t42 -14.5q35 0 59 12q-13 -52 -16 -96h-43q-162 0 -162 137v316q0 43 29 79.5t74 49.5q-56 104 -175 141z" />
<glyph unicode="&#xe14;" horiz-adv-x="999" d="M80 428q0 237 110.5 360t286.5 123q177 0 283 -104t106 -268v-498q0 -26 23 -41v-4q-37 6 -74 6t-74 -6v4q23 23 23 41v498q0 119 -77 194.5t-210 75.5q-131 0 -213 -95.5t-82 -285.5q0 -75 8.5 -137.5t21 -98t25 -60t21.5 -33.5l8 -9q36 14 77.5 66.5t69 129t15.5 142.5 q-2 11 -7 19.5t-9 10.5l-4 3v10h131q12 -67 -3 -138.5t-48.5 -129t-74.5 -104t-82 -72t-71 -25.5h-49q-5 4 -14 12t-31.5 42.5t-40 78t-31.5 122t-14 171.5z" />
<glyph unicode="&#xe15;" horiz-adv-x="987" d="M80 428q0 403 256 469q7 -10 19.5 -25t47.5 -40t66 -25q30 0 64.5 22.5t53.5 44.5l19 23q125 -30 192.5 -125t67.5 -233v-498q0 -26 23 -41v-4q-37 6 -74 6t-74 -6v4q6 2 14.5 15t8.5 26v498q0 93 -39.5 159t-120.5 93q-7 -7 -19 -17.5t-47.5 -28.5t-68.5 -18t-66 16 t-50 32l-17 16q-81 -32 -117.5 -120t-36.5 -243q0 -75 8.5 -137.5t21 -98t25 -60t21.5 -33.5l8 -9q36 14 77.5 66.5t69 129t15.5 142.5q-2 11 -6.5 19.5t-7.5 10.5l-4 3v10h129q12 -67 -3 -139t-48.5 -129.5t-74.5 -104t-82 -72.5t-71 -26h-49q-5 4 -14 12.5t-31.5 43 t-40 78t-31.5 122.5t-14 172z" />
<glyph unicode="&#xe16;" horiz-adv-x="946" d="M61 723l7 29q17 7 58.5 35.5t83 55t110.5 48.5t141 22q86 0 153 -23.5t103 -57t59 -75.5t30 -72.5t7 -55.5v-590q0 -26 23 -41v-4q-34 6 -74 6q-36 0 -74 -6v4q6 2 14.5 15t8.5 26v584q0 20 -6.5 42.5t-24.5 49t-45 47.5t-72 35t-102 14q-47 0 -92.5 -11t-71.5 -23 t-61.5 -30.5t-45.5 -23.5q38 -15 78.5 -52.5t59.5 -84.5v-8q-39 -12 -65.5 -48.5t-26.5 -76.5v-314q1 -26 17 -40.5t42 -14.5q35 0 59 12q-14 -54 -14 -96h-45q-162 0 -162 137v316q0 43 29.5 79t73.5 50q-53 103 -175 141z" />
<glyph unicode="&#xe17;" horiz-adv-x="946" d="M76 868l6 19q40 -4 63 -4q33 0 91 8v-164q146 158 319 158q120 0 189 -78t69 -189v-581q0 -14 8 -25.5t15 -15.5v-4q-38 6 -74 6q-40 0 -74 -6h-2v4q6 2 15.5 15t9.5 26v573q0 68 -52 122t-133 54q-152 0 -290 -163v-586q0 -26 22 -41v-4q-34 6 -74 6q-36 0 -73 -6v4 q6 2 14 15t8 26v711q0 75 -57 120z" />
<glyph unicode="&#xe18;" horiz-adv-x="915" d="M119 702q7 1 27 24t51.5 53.5t74 61t107 51.5t137.5 21q72 0 138.5 -17.5t97.5 -34.5l30 -17v-137h-6q-61 104 -260 104q-41 0 -80.5 -10.5t-66.5 -25t-48.5 -29t-31.5 -24.5l-10 -11q152 -18 274 -69t199 -139.5t77 -199.5v-47q0 -39 -9.5 -75.5t-33.5 -72.5t-62 -62.5 t-99.5 -43t-139.5 -16.5h-8q-98 0 -168.5 24t-107 65.5t-52.5 86t-16 94.5l-2 205q25 -8 64 -8l63 4l2 -11q-24 -19 -24 -75v-115q0 -68 60.5 -118t180.5 -50h8q119 0 180.5 50.5t61.5 117.5v47q0 91 -78.5 162t-204 114t-294.5 68z" />
<glyph unicode="&#xe19;" horiz-adv-x="964" d="M76 870l6 19q40 -4 63 -4q39 0 91 10v-635q0 -73 49 -113.5t133 -40.5q110 0 291 181v559q0 28 -23 43v4q37 -6 74 -6q40 0 74 6v-4q-23 -23 -23 -43v-447q1 -12 15 -28.5t28 -27.5l14 -11q-4 -4 -22.5 -25.5t-34.5 -38.5v-133q0 -74 57 -121l-6 -18q-20 4 -82 4 q-32 0 -51.5 19t-19.5 53v92q-180 -164 -320 -164q-120 0 -188 76.5t-68 187.5v486q0 73 -57 120z" />
<glyph unicode="&#xe1a;" horiz-adv-x="964" d="M78 874l4 17q40 -4 63 -4q43 0 91 10v-641q0 -67 61.5 -117.5t179.5 -50.5h10q119 0 180.5 50.5t61.5 117.5v592q0 21 -22 43v4q37 -6 73 -6q37 0 74 6v-4q-23 -17 -23 -43v-592q0 -39 -9.5 -75t-34 -72t-62 -63t-99 -43.5t-139.5 -16.5h-10q-78 0 -139.5 16.5t-99 43.5 t-62 63t-34 72t-9.5 75v496q0 73 -55 122z" />
<glyph unicode="&#xe1b;" horiz-adv-x="964" d="M78 872l4 19q40 -4 63 -4q52 0 91 8v-639q0 -67 61.5 -117.5t179.5 -50.5h10q119 0 180.5 50.5t61.5 117.5v952q0 21 -22 43v4q37 -6 73 -6q37 0 74 6v-4q-23 -17 -23 -43v-952q0 -39 -9.5 -75.5t-33.5 -72.5t-62 -62.5t-99.5 -43t-139.5 -16.5h-10q-78 0 -139.5 16.5 t-99.5 43t-62 62.5t-33.5 72.5t-9.5 75.5v496q0 74 -55 120z" />
<glyph unicode="&#xe1c;" horiz-adv-x="1011" d="M80 426q0 193 70.5 310t193.5 155q15 -54 43 -103q-205 -56 -205 -362q0 -74 8.5 -136.5t21 -98t25 -60.5t21.5 -34l8 -9l160 358q46 18 82 54l186 -412q3 3 9 9.5t20.5 33t25.5 61t20 97.5t9 137v405q0 13 -8 26t-14 15v5q44 -7 73 -7q30 0 74 7v-5q-22 -15 -22 -41 v-419q-1 -89 -15 -164.5t-32.5 -119t-37 -74.5t-31.5 -42l-13 -12h-117l-154 352l-155 -352h-117q-5 4 -14 12.5t-31 43t-39 78t-31 122t-14 170.5z" />
<glyph unicode="&#xe1d;" horiz-adv-x="1011" d="M80 426q0 193 70.5 310t193.5 155q15 -54 43 -103q-205 -56 -205 -362q0 -74 8.5 -136.5t21 -98t25 -60.5t21.5 -34l8 -9l160 358q46 18 82 54l186 -412q3 3 9 9.5t20.5 33t25.5 61t20 97.5t9 137v782q0 13 -8 26t-14 15v4q38 -6 73 -6q36 0 74 6v-4q-22 -15 -22 -41 v-796q-1 -89 -15 -164.5t-32.5 -119t-37 -74.5t-31.5 -42l-13 -12h-117l-154 352l-155 -352h-117q-5 4 -14 12.5t-31 43t-39 78t-31 122t-14 170.5z" />
<glyph unicode="&#xe1e;" horiz-adv-x="1239" d="M4 870v19q20 -4 64 -4q47 0 92 10l241 -743l191 559l-41 114q-8 19 -23 38.5t-20 21.5v6q27 -6 80 -6h41l258 -733l221 669q5 19 -2.5 39.5t-13.5 22.5v4q36 -4 73 -4h70l-293 -895q-53 44 -117 65l-188 533l-195 -598q-55 46 -114 65l-228 695q-24 73 -96 122z" />
<glyph unicode="&#xe1f;" horiz-adv-x="1189" d="M6 856v18q23 -4 64 -4q44 0 94 11l215 -748l176 561l-39 115q-8 20 -23 39.5t-20 21.5v7q31 -7 80 -7h41l250 -737l260 1032q4 15 1 28.5t-7.5 23t-7.5 10.5v4q48 -6 71 -6h70l-324 -1252q-56 47 -116 66l-191 532l-182 -598q-51 42 -115 66l-201 694q-25 77 -96 123z " />
<glyph unicode="&#xe20;" horiz-adv-x="948" d="M14 96q24 -12 62 -12q25 0 41 14.5t16 40.5v314q0 43 29.5 79t75.5 50q-56 104 -175 141q-1 0 0.5 7.5t2.5 14.5l2 7q17 7 59 35.5t83.5 55t110.5 48.5t140 22q86 0 153 -23.5t103.5 -57t60 -75.5t30.5 -72.5t7 -55.5v-590q0 -14 8 -25.5t15 -15.5v-4q-37 6 -74 6 q-40 0 -74 -6h-2v4q6 2 15.5 15t9.5 26v584q0 26 -12 55t-38.5 60.5t-79 52t-122.5 20.5q-47 0 -92.5 -11t-71.5 -23t-61.5 -30.5t-45.5 -23.5q38 -15 79 -52.5t61 -84.5l-2 -8q-39 -12 -65.5 -48.5t-26.5 -76.5v-316q0 -67 -41 -102t-119 -35h-45q-3 53 -17 96z" />
<glyph unicode="&#xe21;" horiz-adv-x="962" d="M94 12q56 46 56 121v133q-11 12 -24 27t-21 24t-11 13q6 4 15.5 11t25 24.5t15.5 31.5v351q0 74 -56 120l6 19q40 -4 62 -4q32 0 90 8v-606q185 -181 293 -181q84 0 133 40.5t49 113.5v586q0 13 -8.5 25.5t-13.5 15.5v4q37 -6 73 -6t74 6v-4q-23 -15 -23 -41v-582 q0 -110 -68.5 -187t-189.5 -77q-135 0 -319 164v-92q0 -34 -19 -53t-53 -19q-60 0 -80 -4z" />
<glyph unicode="&#xe22;" horiz-adv-x="931" d="M100 266q0 64 31.5 117.5t83.5 81.5q-115 57 -115 192q0 94 62.5 162t150.5 68h58q-25 -56 -33 -101q-22 2 -51.5 -8t-56.5 -41.5t-27 -79.5q0 -64 47.5 -99.5t107.5 -35.5q-25 -51 -36 -100q-55 -4 -87 -52.5t-32 -103.5q0 -23 5.5 -45t22 -47t43 -43t73 -30.5 t108.5 -12.5q118 0 179.5 50.5t61.5 117.5v592q0 21 -22 43v4q38 -6 74 -6t73 6v-4q-22 -17 -22 -43v-592q0 -39 -9.5 -75t-34 -72t-62 -63t-99 -43.5t-139.5 -16.5q-88 0 -155 21t-104 51.5t-59.5 71.5t-29.5 73t-7 63z" />
<glyph unicode="&#xe23;" horiz-adv-x="821" d="M23 702q7 1 27 24t51.5 53.5t74 61t107 51.5t137.5 21q72 0 139 -17.5t98 -34.5l31 -17v-137h-8q-58 104 -260 104q-64 0 -123 -25t-86 -50l-27 -25q112 -13 210 -46.5t175 -83.5t121.5 -122t44.5 -156v-47q0 -38 -9.5 -74.5t-31.5 -72.5t-54 -63t-82.5 -43.5 t-111.5 -16.5q-74 0 -134.5 31.5t-73.5 60.5q45 45 59 84h16q12 -32 49 -53t84 -21q88 0 137.5 51t49.5 117v47q0 91 -79 162t-204.5 114t-294.5 68z" />
<glyph unicode="&#xe24;" horiz-adv-x="946" d="M61 723l7 29q17 7 58.5 35.5t83 55t110.5 48.5t141 22q86 0 153 -23.5t103 -57t59 -76t30 -73.5t7 -56v-1035q0 -26 23 -41v-4q-40 7 -72 7t-76 -7v4q6 2 14.5 15t8.5 26v1031q0 20 -6.5 42.5t-24.5 49t-45 47.5t-72 35t-102 14q-47 0 -92.5 -11t-71.5 -23t-61.5 -30.5 t-45.5 -23.5q38 -15 79 -52.5t61 -84.5l-2 -8q-40 -13 -66 -49t-26 -76v-314q1 -26 17 -40.5t42 -14.5q35 0 59 12q-14 -54 -14 -96h-45q-162 0 -162 137v316q0 43 29.5 79t73.5 50q-53 103 -175 141z" />
<glyph unicode="&#xe25;" horiz-adv-x="923" d="M82 217v59q3 137 92.5 215t243.5 78q163 0 270 -114v159q0 25 -4.5 48t-20 52.5t-41.5 51t-74 36.5t-112 15q-196 0 -250 -106h-6v139q53 30 123 50t133 20q68 0 124 -13.5t92 -34t63 -50t41 -57t22.5 -59t10.5 -52t2 -40.5v-575q0 -26 22 -41v-4q-37 6 -74 6 q-35 0 -73 -6v4q5 3 13.5 15.5t8.5 25.5v235q0 92 -75.5 142.5t-194.5 50.5q-231 0 -234 -197v-53q0 -69 38 -103t87 -34q15 0 28.5 3t22 6t9.5 3q-17 -53 -17 -96h-57q-90 0 -151.5 60.5t-61.5 160.5z" />
<glyph unicode="&#xe26;" horiz-adv-x="956" d="M25 96q1 -1 8.5 -4t21.5 -5.5t29 -2.5q26 0 42 14.5t17 40.5v314q0 43 29 79.5t74 49.5q-56 104 -174 141q-1 0 0 7.5t2 14.5l2 7q18 7 60 35.5t83.5 55t110 48.5t139.5 22q87 0 154 -23.5t103.5 -57t59.5 -76t30 -73.5t7 -56v-1035q0 -26 23 -41v-4q-44 7 -74 7t-74 -7 v4q5 3 14 15.5t9 25.5v1031q0 26 -12 55t-38.5 60.5t-79 52t-122.5 20.5q-46 0 -91.5 -11t-71 -22.5t-61.5 -31t-44 -23.5q37 -15 77 -52.5t60 -84.5v-8q-40 -13 -66 -49t-26 -76v-318q0 -66 -42 -100.5t-120 -34.5h-45q0 42 -14 96z" />
<glyph unicode="&#xe27;" horiz-adv-x="813" d="M47 711v137q54 28 135 51t162 23q173 0 278 -118t105 -349q0 -230 -104.5 -348.5t-276.5 -118.5q-75 0 -136.5 31t-74.5 59q45 45 60 86h16q12 -34 48 -54t87 -20q125 0 202 90.5t77 274.5q0 182 -77.5 271t-201.5 89q-59 0 -110.5 -10.5t-83.5 -26t-55 -31t-33 -25.5 l-9 -11h-8z" />
<glyph unicode="&#xe28;" horiz-adv-x="1026" d="M111 -2q22 15 22 43v496q0 154 102.5 263t276.5 109q8 0 24 -1t23 -1h92q60 0 97.5 19.5t46.5 44.5l2 26q4 -4 43 -4q17 0 32.5 2t21.5 4l7 2v-4q0 -63 -38.5 -107t-104.5 -63q65 -52 100 -128t35 -162v-496q0 -27 22 -43v-4q-37 6 -73 6q-38 0 -76 -6v4q22 15 22 43v496 q0 70 -29 130t-93.5 100t-153.5 40q-131 0 -203.5 -79t-72.5 -191v-240q66 93 159.5 144t192.5 32v-129h-13q-5 21 -32 21q-121 0 -208.5 -85.5t-98.5 -199.5v-45q2 -14 -9 -24.5t-26 -10.5l-54 -2q-12 0 -36 -4v4z" />
<glyph unicode="&#xe29;" horiz-adv-x="964" d="M78 877l4 16q40 -4 63 -4q43 0 91 10v-641q0 -67 61.5 -117.5t179.5 -50.5h10q119 0 180.5 50.5t61.5 117.5v213q-66 -16 -131 -16q-101 0 -168 26v131h16q37 -59 158 -59q63 0 125 10v287q0 21 -22 43v4q37 -6 73 -6q37 0 74 6v-4q-23 -17 -23 -43v-264q18 4 34.5 9.5 t24.5 8.5l7 4v-73q-27 -15 -66 -31v-246q0 -39 -9.5 -75t-34 -72t-62 -63t-99 -43.5t-139.5 -16.5h-10q-78 0 -139.5 16.5t-99 43.5t-62 63t-34 72t-9.5 75v496q0 74 -55 123z" />
<glyph unicode="&#xe2a;" horiz-adv-x="923" d="M82 221v60q4 138 93.5 215t242.5 77q70 0 132 -23.5t89.5 -45t48.5 -45.5v159q0 25 -4.5 48t-20 52.5t-41 51t-73 36.5t-111.5 15q-196 0 -250 -106h-8v139q126 70 258 70q28 0 74 -4q88 0 132.5 18.5t51.5 44.5q3 7 4 14t0 10v3q4 -4 41 -4q18 0 34 2t23 4l7 2v-4 q0 -112 -115 -160q101 -81 101 -232v-575q0 -26 22 -41v-4q-35 6 -72 6t-75 -6v4q22 15 22 41v225v13q0 91 -75 140.5t-195 49.5q-114 0 -173 -50t-61 -147v-53q0 -69 38.5 -103t88.5 -34q14 0 28 3t21.5 6.5t8.5 4.5q-15 -62 -15 -98h-57q-92 0 -153.5 60.5t-61.5 160.5z " />
<glyph unicode="&#xe2b;" horiz-adv-x="944" d="M76 872l6 19q40 -4 63 -4q33 0 91 8v-377q41 41 103 78.5t118 63t107.5 51t82.5 54.5t31 62q0 11 -4 21.5t-8 15.5l-4 4v13q37 0 68.5 7t44.5 14l13 7v-26q0 -79 -41.5 -141.5t-140.5 -110.5q96 -18 150.5 -91t54.5 -169v-330q0 -14 8 -25.5t15 -15.5v-4q-38 6 -74 6 t-74 -6v4q23 23 23 41v319q0 91 -50 144t-143 53q-158 0 -280 -160v-356q0 -26 22 -41v-4q-38 6 -74 6t-73 -6v4q6 2 14 15t8 26v711q0 73 -57 120z" />
<glyph unicode="&#xe2c;" horiz-adv-x="1228" d="M10 860v19q25 -5 64 -5q44 0 94 11l235 -719l195 532l-39 115q-7 19 -22 39t-21 22v7q31 -7 82 -7h53l252 -706l164 498q66 196 -100 196h-62q5 11 13 24.5t13 25t9 26.5h25q48 0 82 32t34 81v34q-3 42 -26 60l4 10q24 -4 63 -4q17 0 32.5 2t22.5 4l7 2v-108 q0 -41 -23.5 -79.5t-68.5 -62.5q43 -17 67 -48.5t27.5 -70.5t-1 -71.5t-14.5 -65.5l-221 -676h-2q-56 46 -114 66q-5 12 -183 506l-200 -572q-48 40 -115 66l-230 694q-25 77 -96 123z" />
<glyph unicode="&#xe2d;" horiz-adv-x="903" d="M74 256v29q0 100 61.5 160.5t151.5 60.5q18 0 42.5 -4t28.5 -6v-129h-12q-10 24 -65 24q-10 0 -20 -1.5t-26.5 -8t-28.5 -17t-21 -31t-9 -48.5v-29q0 -67 61.5 -117.5t180.5 -50.5h8q119 0 180.5 50.5t61.5 117.5v371q0 25 -4.5 48t-20 52.5t-41 50.5t-73 36t-111.5 15 q-196 0 -250 -106h-8v139q53 30 123.5 50t134.5 20q68 0 123.5 -13.5t91 -34t62.5 -49.5t40.5 -56.5t22 -59t10.5 -52t2 -40.5v-371q0 -50 -16 -94t-52.5 -85.5t-107 -66t-168.5 -24.5h-8q-98 0 -168.5 24.5t-107 66t-52.5 85.5t-16 94z" />
<glyph unicode="&#xe2e;" horiz-adv-x="905" d="M76 264v29q0 100 61.5 160.5t151.5 60.5q18 0 42.5 -4t28.5 -6v-129h-12q-10 24 -65 24q-10 0 -20 -1.5t-26.5 -8t-28.5 -17t-21 -31t-9 -48.5v-29q0 -67 61.5 -117.5t180.5 -50.5h8q119 0 180.5 50.5t61.5 117.5v371q0 25 -4.5 48t-20 52.5t-41 51t-73 36.5t-111.5 15 q-195 0 -250 -107h-8v139q53 30 123.5 50t134.5 20q23 0 69 -4h37q59 0 94 19t44 44l2 27q10 -4 49 -4q17 0 32.5 2t22.5 4l6 2v-4q0 -107 -108 -158q104 -82 104 -233v-371q0 -50 -16 -94t-52.5 -85.5t-107 -66t-168.5 -24.5h-8q-98 0 -168.5 24.5t-107 66t-52.5 85.5 t-16 94z" />
<glyph unicode="&#xe2f;" horiz-adv-x="884" d="M61 657q0 118 66.5 187t165.5 69h39q4 -64 16 -102q-24 12 -59 12q-55 0 -90 -44t-35 -122q0 -79 63.5 -128.5t159.5 -49.5q103 0 182 51t80 138v129q0 55 -26 73l4 11q24 -4 61 -4q18 0 34 2t23 4l7 2v-594q0 -28 -0.5 -41.5t-6 -50.5t-15.5 -60t-32.5 -55.5t-54 -51 t-82.5 -32.5t-115 -14q-37 0 -79 7t-65 14l-23 7v119h8q12 -15 54.5 -30t104.5 -15q56 0 96.5 14t60.5 32.5t31 49.5t13 52.5t2 54.5v198q-105 -112 -262 -112q-138 0 -232 80t-94 200z" />
<glyph unicode="&#xe30;" horiz-adv-x="434" d="M82 68v127h27q3 -4 9 -10t31.5 -15.5t59.5 -9.5t75.5 10t65.5 20l25 9v-64l-9 -9t-26 -20.5t-42 -25.5t-56 -20t-70 -9q-21 0 -43.5 4.5t-34.5 8.5zM82 637v129h27q3 -4 9 -9.5t31.5 -14.5t59.5 -9t75.5 9.5t65.5 19.5l25 10v-63l-9 -9t-26 -20.5t-42 -25.5t-56 -20 t-70 -9q-21 0 -43.5 3t-34.5 6z" />
<glyph unicode="&#xe31;" d="M-600 1112q42 36 59 84h19q17 -32 74 -55t116 -23q79 0 159 26.5t120 57.5v-65q-30 -36 -114.5 -76.5t-168.5 -40.5q-94 0 -168 28.5t-96 63.5z" />
<glyph unicode="&#xe32;" horiz-adv-x="606" d="M0 778v119q84 31 168 31q49 0 90.5 -8t71 -20.5t53 -32t38.5 -38t25.5 -44t15.5 -43.5t7.5 -44t3 -38t0.5 -32v-5v-582q0 -26 23 -41v-6q-31 8 -72 8q-43 0 -76 -8v6q6 2 14.5 15t8.5 26v582q0 32 -2 53.5t-13 52.5t-31 49.5t-60.5 32.5t-96.5 14q-60 0 -104 -15.5 t-56 -31.5h-8z" />
<glyph unicode="&#xe33;" horiz-adv-x="606" d="M-537 1178q0 64 45.5 106.5t110.5 42.5q64 0 109 -42.5t45 -106.5t-45 -107t-109 -43q-65 0 -110.5 43t-45.5 107zM-453 1178q0 -30 21 -51t51 -21q29 0 50.5 21.5t21.5 50.5q0 30 -21 50.5t-51 20.5q-31 0 -51.5 -20t-20.5 -51zM0 778v119q84 31 168 31q49 0 90.5 -8 t71 -20.5t53 -32t38.5 -38t25.5 -44t15.5 -43.5t7.5 -44t3 -38t0.5 -32v-5v-582q0 -26 23 -41v-6q-31 8 -72 8q-43 0 -76 -8v6q6 2 14.5 15t8.5 26v582q0 32 -2 53.5t-13 52.5t-31 49.5t-60.5 32.5t-96.5 14q-60 0 -104 -15.5t-56 -31.5h-8z" />
<glyph unicode="&#xe34;" d="M-827 1028v78q6 0 50.5 17.5t126 35t177.5 17.5q95 0 177 -17.5t127.5 -35t51.5 -17.5v-78q-14 5 -41 12.5t-119.5 20t-195.5 12.5q-104 0 -192.5 -11.5t-124.5 -22.5z" />
<glyph unicode="&#xe35;" d="M-772 1028v80q13 10 34 21.5t90 29t150 17.5q8 0 17 5.5t12 16.5q14 70 14 127l95 18q0 -28 3.5 -64.5t6.5 -58.5l4 -22q6 -20 31 -24q142 -20 211 -66v-80q-11 5 -34 12.5t-109.5 20t-192.5 12.5q-105 0 -188 -11.5t-114 -22.5z" />
<glyph unicode="&#xe36;" d="M-817 1026v78q102 49 264 65q-8 28 -8 45q0 57 45.5 97.5t109.5 40.5t110 -40.5t46 -97.5q0 -36 -14 -61q44 -9 82.5 -21t55.5 -20l17 -8v-78q-14 5 -40.5 12.5t-118.5 20t-195 12.5q-104 0 -192.5 -11.5t-124.5 -22.5zM-477 1214q0 -24 16 -40q49 0 107 -7q20 20 20 47 q0 26 -21.5 45t-50.5 19t-50 -19t-21 -45z" />
<glyph unicode="&#xe37;" d="M-825 1024v78q132 53 245 59q14 0 21 21q16 66 16 121l74 18l14 -143q0 -2 3.5 -4.5t7.5 -2.5q35 4 67 0q8 0 8 7l15 125l73 18q0 -27 3.5 -65t7.5 -62l4 -25q4 -9 26 -18q26 -8 51 -17.5t39.5 -16t29 -13.5t16.5 -8v-72q-15 5 -43 12.5t-122 20t-198 12.5 q-103 0 -192.5 -11.5t-127.5 -22.5z" />
<glyph unicode="&#xe38;" d="M-258 -129h106q16 0 25.5 -10.5t9.5 -24.5v-153q0 -28 17 -45q-28 0 -57.5 -8t-45.5 -16l-16 -9v170q0 25 -9.5 43.5t-19.5 23.5l-10 6v23z" />
<glyph unicode="&#xe39;" d="M-526 -135h108q14 0 23.5 -10.5t9.5 -24.5v-76q1 -26 17 -40.5t42 -14.5h45q26 0 42.5 14.5t17.5 40.5v111h102v-123q0 -66 -41.5 -100.5t-120.5 -34.5h-45q-161 0 -161 135v27q0 25 -9.5 43.5t-19.5 23.5l-10 6v23z" />
<glyph unicode="&#xe3a;" d="M-256 -221q0 35 25.5 60.5t60.5 25.5t60.5 -25.5t25.5 -60.5t-25.5 -60.5t-60.5 -25.5t-60.5 25.5t-25.5 60.5z" />
<glyph unicode="&#xe3f;" horiz-adv-x="937" d="M100 0q4 3 11 17t14.5 42.5t7.5 59.5v823q0 31 -7.5 59.5t-14.5 42.5t-11 17v10q62 -10 84 -10h82h107q-3 25 -10 47.5t-12.5 33t-8.5 11.5v10q35 -8 72 -8q23 0 69 8v-10q-3 -1 -8.5 -11.5t-12 -33t-9.5 -47.5q135 -6 211.5 -79.5t76.5 -199.5t-88 -204 q85 -32 130.5 -103t45.5 -172q0 -135 -92 -220t-239 -85h-45v-14q1 -28 8 -54.5t13 -39t9 -15.5v-10q-32 10 -69 10q-17 0 -28 -1.5t-23.5 -4.5t-20.5 -4v10q4 3 10.5 15.5t13.5 38.5t9 55v14q-38 0 -84 0.5t-77 1.5h-30q-22 0 -84 -10v10zM236 145q0 -24 10 -34.5t35 -10.5 h94v400h-139v-355zM236 602h139v356h-139v-356zM453 100h45q104 0 166.5 55.5t62.5 147.5q0 194 -223 197h-51v-400zM453 602q85 6 135.5 55t50.5 125q0 167 -186 176v-356z" />
<glyph unicode="&#xe40;" horiz-adv-x="368" d="M111 887v4q37 -6 73 -6t74 6v-4q-22 -22 -22 -43v-705q1 -26 17 -40.5t42 -14.5q35 0 59 12q-14 -54 -14 -96h-45q-162 0 -162 137v707q0 21 -22 43z" />
<glyph unicode="&#xe41;" horiz-adv-x="661" d="M111 885v4q37 -6 73 -6h52v-746q1 -26 17 -40.5t42 -14.5q15 0 29 2.5t21.5 5.5t8.5 4q-14 -54 -14 -96h-45q-78 0 -120 35t-42 102v707q0 28 -22 43zM416 135v748h51q37 0 74 6v-4q-23 -17 -23 -43v-705q0 -26 16 -40.5t41 -14.5q17 0 41 12q-13 -39 -16 -96h-25 q-159 0 -159 137z" />
<glyph unicode="&#xe42;" horiz-adv-x="368" d="M-78 1352q8 3 36.5 25.5t61 44.5t93 40.5t129.5 18.5q70 0 133.5 -20t92.5 -40l28 -20v-90h-7q-15 19 -88.5 45t-154.5 26q-61 0 -112 -9t-72 -18l-21 -9q53 -19 90 -47.5t57.5 -57.5t31.5 -70t13.5 -73.5t2.5 -79.5v-879q1 -26 17 -40.5t42 -14.5q35 0 59 12 q-14 -54 -14 -96h-45q-162 0 -162 137v881q0 127 -40.5 191.5t-143.5 76.5z" />
<glyph unicode="&#xe43;" horiz-adv-x="368" d="M-18 1276q0 86 60 146.5t146 60.5t146.5 -60.5t60.5 -146.5q0 -49 -25 -98t-54.5 -81.5t-54.5 -70.5t-25 -68v-819q1 -26 17 -40.5t42 -14.5q35 0 59 12q-14 -54 -14 -96h-45q-162 0 -162 137v821q0 39 17 75t41 64t48 54.5t41 58.5t17 66q0 44 -31.5 76t-77.5 32 q-44 0 -76 -32t-32 -76q0 -45 29 -74h-113q-14 32 -14 74z" />
<glyph unicode="&#xe44;" horiz-adv-x="368" d="M-63 1341v84q79 -34 233 -34q69 0 128.5 9t81 15.5t30.5 11.5v-90q-68 -40 -121 -98.5t-53 -130.5v-969q1 -26 17 -40.5t42 -14.5q35 0 59 12q-14 -54 -14 -96h-45q-162 0 -162 137v971q0 38 15 73t38.5 60t45 41t42.5 27q-40 -13 -104 -13q-121 0 -233 45z" />
<glyph unicode="&#xe45;" horiz-adv-x="563" d="M-43 778v119q84 31 168 31q49 0 90.5 -8t71 -20.5t53 -32t38.5 -38t25.5 -44t15.5 -43.5t7.5 -44t3 -38t0.5 -32v-5v-1033q0 -26 23 -41v-6q-31 8 -72 8q-43 0 -76 -8v6q6 2 14.5 15t8.5 26v1033q0 32 -2 53.5t-13 52.5t-31 49.5t-60.5 32.5t-96.5 14q-60 0 -104 -15.5 t-56 -31.5h-8z" />
<glyph unicode="&#xe46;" horiz-adv-x="755" d="M43 694v148q65 59 162 69l5 -10t15 -22t26 -28t37 -22t48 -10q42 0 74.5 23t44.5 46l12 23q124 -30 170.5 -97.5t46.5 -203.5q0 -60 -29.5 -131t-64.5 -126t-64.5 -124.5t-29.5 -126.5v-505q0 -26 22 -41v-5q-44 7 -74 7q-29 0 -73 -7v5q22 22 22 41v505q0 63 29.5 136.5 t65 129t65 123t29.5 119.5q0 87 -22 129.5t-75 57.5q-6 -6 -18 -16t-50.5 -26t-80.5 -16q-43 0 -79.5 14.5t-51.5 28.5l-15 15q-50 0 -87.5 -33t-47.5 -70h-12z" />
<glyph unicode="&#xe47;" d="M-715 1016v96q0 246 291 246h156q129 0 129 37h6v-103q0 -37 -135 -37h-191q-74 0 -113.5 -35t-39.5 -102h112q80 0 80 51v15h86v-15q0 -51 74 -51h53q46 3 60 29h14v-131h-135q-80 0 -109 92q-17 -44 -50.5 -68t-57.5 -24h-230z" />
<glyph unicode="&#xe48;" d="M-467 1524v37q26 -7 61 -7q16 0 32.5 2t25.5 4l8 1v-37q-16 -72 -16 -127l-95 -21q0 28 -4 65t-8 60z" />
<glyph unicode="&#xe49;" d="M-582 1565q17 53 17 96h41q76 0 104.5 -52.5t-16.5 -115.5v-4q29 -29 108 -29t159 26.5t120 57.5v-65q-30 -36 -114.5 -76.5t-168.5 -40.5q-92 0 -151.5 27.5t-83.5 64.5q14 11 27.5 25.5t20.5 22.5l7 9q16 19 9.5 42.5t-34.5 23.5q-21 0 -45 -12z" />
<glyph unicode="&#xe4a;" d="M-631 1331v111q0 68 41 105.5t103 37.5h28q77 0 111 -92q16 43 46.5 67.5t53.5 24.5h131v-151h27q65 0 65 57v33q0 23 5 38t14.5 21.5t17.5 8t21 1.5h82v-8q-17 0 -27 -19t-10 -42v-33q0 -83 -47 -121.5t-113 -38.5h-43h-94v152h-25q-69 0 -69 -72v-14h-74v14 q0 72 -72 72h-18q-22 0 -36.5 -13.5t-14.5 -33.5v-31q3 -41 26 -59v-15h-129z" />
<glyph unicode="&#xe4b;" d="M-565 1470v103h90q18 0 18 18v70l103 27v-97q0 -18 16 -18h92v-103h-92q-16 0 -16 -18v-49l-103 -17v66q0 18 -18 18h-90z" />
<glyph unicode="&#xe4c;" d="M-369 1307v79q0 68 40.5 106t103.5 38h43q61 0 61 16h8v-61q0 -14 -1.5 -22t-8 -17.5t-21 -14t-38.5 -4.5h-33q-22 0 -36.5 -13.5t-14.5 -33.5q0 -41 24 -59v-14h-127z" />
<glyph unicode="&#xe4d;" d="M-537 1126q0 64 45.5 110t110.5 46q63 0 108.5 -46t45.5 -110t-45.5 -109.5t-108.5 -45.5q-65 0 -110.5 45.5t-45.5 109.5zM-453 1126q0 -30 20.5 -50.5t51.5 -20.5q29 0 50.5 21t21.5 50q0 30 -21 51t-51 21q-31 0 -51.5 -20.5t-20.5 -51.5z" />
<glyph unicode="&#xe4e;" d="M-666 1217q0 64 41 115.5t105 72.5q-25 52 -25 96q0 77 55.5 118.5t127.5 41.5q8 0 16 12h6v-88q-45 8 -80 -14.5t-35 -73.5q0 -28 14.5 -52t37.5 -38v-100q-55 32 -111.5 3.5t-56.5 -93.5q0 -49 29 -77t53 -28q15 0 24.5 7.5t9.5 13.5h15l-6 -121q-45 -5 -94.5 15 t-87.5 70.5t-38 119.5z" />
<glyph unicode="&#xe4f;" horiz-adv-x="921" d="M115 334q0 144 100 244q102 102 246 102q142 0 244 -102t102 -244q0 -144 -102 -246q-100 -100 -244 -100q-146 0 -246 100t-100 246zM186 334q0 -116 78 -197q80 -80 197 -80q114 0 194 80q80 83 80 197t-80 194t-194 80q-115 0 -195 -80t-80 -194zM258 334q0 85 59 144 t144 59t144 -59t59 -144t-59 -145t-144 -60t-144 60t-59 145zM330 334q0 -56 38 -93.5t93 -37.5t93 37.5t38 93.5q0 54 -38 92.5t-93 38.5t-93 -38.5t-38 -92.5z" />
<glyph unicode="&#xe50;" horiz-adv-x="909" d="M61 385q0 178 108 288.5t286 110.5t285.5 -110.5t107.5 -288.5q0 -176 -108 -287.5t-285 -111.5t-285.5 111.5t-108.5 287.5zM164 385q0 -132 76.5 -212.5t214.5 -80.5t214 80.5t76 212.5q0 133 -76.5 213t-213.5 80t-214 -80t-77 -213z" />
<glyph unicode="&#xe51;" horiz-adv-x="1011" d="M82 389q0 93 35.5 169t95.5 125t136.5 75t160.5 26q116 0 214.5 -61t155 -164t56.5 -221q0 -233 -131.5 -373.5t-351.5 -140.5h-82q-26 0 -37 -17h-17l60 99q13 20 31 20h45q169 0 275 111t106 301q0 42 -11.5 87.5t-37 92t-62.5 82.5t-93 59t-122 23q-77 0 -140 -26.5 t-102.5 -69t-60.5 -93.5t-21 -104q0 -71 25 -125.5t62.5 -81.5t72.5 -40t64 -13q33 0 60 7.5t39.5 15.5t12.5 14h6v-123q-37 -20 -88 -20q-150 0 -253 97.5t-103 268.5z" />
<glyph unicode="&#xe52;" horiz-adv-x="1101" d="M57 879v6h158v-615q0 -67 61.5 -117.5t180.5 -50.5h188q119 0 180.5 50.5t61.5 117.5v179q0 95 -26 162t-77 81q-6 -6 -18.5 -15t-51.5 -24.5t-81 -15.5q-43 0 -81 13.5t-54 27.5l-17 14q-31 0 -61.5 -35.5t-30.5 -95.5q0 -135 90 -135q10 0 20.5 4.5t10.5 9.5h8v-123 q-117 0 -175 64.5t-58 175.5q0 101 57 163t154 87l5 -10t15.5 -21.5t27 -27.5t38.5 -21.5t51 -9.5q42 0 75 22.5t46 44.5l12 23q120 -29 171.5 -120.5t51.5 -237.5v-179q0 -39 -9.5 -75t-34 -72t-62 -63t-99 -43.5t-139.5 -16.5h-188q-78 0 -139.5 16.5t-99 43.5t-62 63 t-34 72t-9.5 75v496q0 67 -56 113z" />
<glyph unicode="&#xe53;" horiz-adv-x="1019" d="M113 223v326q0 120 56.5 179.5t147.5 59.5q124 0 193 -229q69 229 192 229q90 0 147.5 -60t57.5 -179v-549h-102v549q0 137 -88 137q-47 0 -87 -66.5t-58.5 -138.5t-18.5 -114v-129h-86v129q0 41 -18.5 113t-58.5 139t-87 67q-88 0 -88 -137v-322q1 -65 28 -96t64 -31 q11 0 22 5.5t11 11.5h6v-125q-116 0 -174.5 63.5t-58.5 167.5z" />
<glyph unicode="&#xe54;" horiz-adv-x="1011" d="M82 369q0 90 30.5 160.5t76 111.5t104 67.5t108 36t95.5 9.5h209q99 0 129 47l28 47q24 37 86 37h76l-6 -17q-22 0 -39 -28l-70 -111q-49 -78 -204 -78h-209q-38 0 -77 -7t-82.5 -26.5t-76.5 -50t-54.5 -81.5t-21.5 -117q0 -65 21.5 -116t52.5 -79.5t71 -47t71.5 -24.5 t58.5 -6q49 0 90 15.5t63.5 33t42 45t23 36t8.5 20.5q2 35 11 65t19.5 47.5t21 29.5t17.5 17l7 5h160v-17q-22 0 -44.5 -8t-46 -26t-38.5 -55t-15 -87q0 -36 13 -71t32 -60.5t37.5 -45.5t31.5 -30l13 -10h-94q-7 4 -19 12t-39.5 36t-43.5 61q-91 -115 -250 -115q-36 0 -79 8 t-97.5 33.5t-97.5 65t-73 109.5t-30 159z" />
<glyph unicode="&#xe55;" horiz-adv-x="1005" d="M82 369q0 84 25.5 150.5t70.5 107.5t93 65.5t104 38.5q-6 18 -6 37q0 54 39.5 91.5t95.5 37.5q57 0 97 -37.5t40 -91.5q0 -4 -1 -10.5t-1 -9.5h66q95 0 129 53l28 47q24 37 86 37h76l-6 -17q-22 0 -39 -28l-70 -111q-53 -84 -204 -84h-209q-39 0 -77 -6.5t-82 -25 t-76.5 -48t-54.5 -80.5t-22 -116t21.5 -116t52.5 -79.5t71 -47t71.5 -24.5t58.5 -6q49 0 90 15.5t63.5 33t42 45t23 36t8.5 20.5q2 35 11 65t19.5 47.5t21 29.5t17.5 17l7 5h160v-17q-22 0 -44.5 -8t-46 -26t-38.5 -55t-15 -87q0 -36 13 -71t32 -60.5t37.5 -45.5t31.5 -30 l13 -10h-94q-7 4 -19 12t-39.5 36t-43.5 61q-91 -115 -250 -115q-36 0 -79 8t-97.5 33.5t-97.5 65t-73 109.5t-30 159zM444 768q0 -18 17 -31q13 -8 45 -8q26 0 41 6q16 13 16 33q0 23 -15.5 38t-43.5 15t-44 -15t-16 -38z" />
<glyph unicode="&#xe56;" horiz-adv-x="980" d="M12 860v17h62q30 0 47.5 -18.5t17.5 -47.5v-111q0 -53 11 -76t38 -32q95 194 330 194q177 0 279 -110t102 -295q0 -189 -105.5 -292t-263.5 -103q-166 0 -259 86t-93 202q0 29 6.5 53t15.5 37t18 22t16 12l6 3h149v-16q-96 0 -96 -111q0 -88 70 -137t167 -49 q48 0 92.5 15.5t85 48t65 92t24.5 137.5q0 74 -21 131t-51.5 88.5t-70.5 51.5t-72.5 26t-63.5 6q-71 0 -125 -20.5t-81 -49t-43 -57.5t-19 -49l-4 -21h-45q-22 0 -47.5 10.5t-53 32.5t-45.5 66.5t-18 103.5v125q0 35 -25 35z" />
<glyph unicode="&#xe57;" horiz-adv-x="1216" d="M113 223v326q0 121 52.5 180t141.5 59q28 0 52 -13.5t40.5 -32.5t32 -52.5t25 -61t22.5 -69.5q13 44 22 70t24.5 60t32 53t40.5 32.5t53 13.5q88 0 141.5 -59.5t53.5 -179.5v-443h41q52 0 83 28t31 81v602q0 29 17.5 47.5t48.5 18.5h61v-15q-11 0 -17 -9t-7 -19v-9v-616 q0 -60 -21.5 -104t-56 -67t-69.5 -33.5t-70 -10.5h-144v549q0 44 -3.5 69.5t-21.5 46.5t-52 21q-36 0 -65.5 -39t-45.5 -94t-24.5 -105t-8.5 -81v-56h-86v56q0 31 -8.5 80.5t-24.5 104.5t-45 94.5t-65 39.5q-26 0 -42.5 -10.5t-23.5 -32t-9.5 -42t-2.5 -52.5v-322 q1 -65 28 -96t64 -31q11 0 22 5.5t11 11.5h6v-125q-116 0 -174.5 63.5t-58.5 167.5z" />
<glyph unicode="&#xe58;" horiz-adv-x="968" d="M113 326v131q0 130 80 213.5t196 83.5h262q99 0 129 47l29 47q24 37 86 37h76l-6 -17q-22 0 -39 -28l-70 -111q-49 -78 -205 -78h-262q-85 0 -129.5 -49.5t-44.5 -144.5v-131q0 -97 41.5 -163.5t83.5 -66.5q2 3 6 8.5t19 19.5t33 24.5t48 19t64 8.5t64 -8.5t48.5 -20.5 t31.5 -24t18 -21l6 -8q36 0 76.5 40.5t40.5 98.5q0 70 -26 103t-64 33q-11 0 -22 -4.5t-11 -10.5h-6v123q116 0 174.5 -66.5t58.5 -177.5q0 -101 -78.5 -173t-173.5 -72l-5 10t-15.5 22t-27 28t-38.5 22t-51 10q-42 0 -75 -23t-45 -46l-13 -23q-81 0 -142 47t-91.5 123 t-30.5 168z" />
<glyph unicode="&#xe59;" horiz-adv-x="1062" d="M82 416q0 170 83.5 274.5t203.5 104.5q155 0 235 -129q40 88 139 88h15q103 0 129 47l31 47q21 37 86 37h75l-8 -17q-19 0 -39 -28l-67 -111q-53 -78 -207 -78h-15q-45 0 -62.5 -41.5t7.5 -113.5q159 -347 268 -463q20 -23 62 -23l4 -10h-117q-25 0 -37.5 5.5t-23.5 21.5 q-42 52 -115 182.5t-125 234.5l-53 105q-34 69 -73.5 106t-108.5 37q-24 0 -52.5 -13t-60 -42t-52 -86.5t-20.5 -134.5q0 -83 22.5 -147.5t58 -100.5t73 -54t72.5 -18q39 0 69 14t41 28l10 14h13v-138q-52 -20 -133 -20q-59 0 -119 27.5t-105 76.5q-104 112 -104 318z" />
<glyph unicode="&#xe5a;" horiz-adv-x="1140" d="M59 666q0 118 66.5 187t165.5 69h39q4 -65 16 -103q-30 15 -57 15q-57 0 -92 -45t-35 -123q0 -79 63.5 -129t159.5 -50q103 0 182 51t80 138v129q0 56 -26 74l4 10q24 -4 61 -4q18 0 34 2.5t23 4.5l7 3v-397q77 19 126.5 64.5t49.5 113.5v129q0 57 -25 74l2 10 q25 -4 64 -4q17 0 32.5 2.5t22.5 4.5l6 3v-596v-35.5t-3.5 -43.5t-10.5 -52.5t-22 -50t-36 -49.5t-55.5 -38t-77.5 -28l-104 -14v118h6q45 -8 98 5q35 12 57.5 32.5t31.5 50.5t11.5 51t2.5 54v199q-72 -78 -176 -103v-96q0 -28 -0.5 -41.5t-6 -50.5t-15.5 -60t-32.5 -55.5 t-54 -51t-82.5 -32.5t-115 -14q-37 0 -79 7t-65 15l-24 7v120h9q11 -16 54.5 -31.5t104.5 -15.5q56 0 96.5 14t60.5 32.5t31 49.5t13 52.5t2 54.5v199q-106 -113 -262 -113q-138 0 -232 80.5t-94 200.5z" />
<glyph unicode="&#xe5b;" horiz-adv-x="1622" d="M102 395q0 207 105 320q46 49 104.5 76.5t118.5 27.5q74 0 131 -22v-138h-10q-4 6 -12 16t-39 26t-70 16q-36 0 -73.5 -18.5t-72.5 -54.5t-57 -101t-22 -148q0 -76 20.5 -133.5t51.5 -86.5t59.5 -42.5t52.5 -13.5q60 0 108.5 38.5t82 101t61 128t59.5 133.5t62 103 q21 24 61 24h119l-6 -10q-42 0 -62 -23q-18 -15 -42 -51t-37 -67q-18 -68 -12.5 -118t28.5 -82t48.5 -47.5t47.5 -15.5q30 0 49.5 14t27 40.5t9.5 46.5t2 51v135q1 39 13 65.5t28.5 37t33.5 15.5t28 4l12 -1q-23 -40 -23 -125q0 -43 19.5 -63.5t48.5 -20.5h131q33 0 52 9 t40 38l31 49q10 14 16 20t19.5 10.5t36.5 4.5h116l-8 -14q-62 0 -78 -31l-69 -110q-53 -78 -156 -78h-131q-50 0 -68 37q0 -42 -9.5 -81.5t-29 -75t-56 -57.5t-85.5 -22q-150 0 -196 195l-49 -107q-12 -24 -16.5 -34t-20 -36.5t-28 -40t-35 -34t-46 -31t-56.5 -19t-71 -8.5 q-119 0 -203 105t-84 274z" />
<glyph unicode="&#x2000;" horiz-adv-x="844" />
<glyph unicode="&#x2001;" horiz-adv-x="1688" />
<glyph unicode="&#x2002;" horiz-adv-x="844" />
<glyph unicode="&#x2003;" horiz-adv-x="1688" />
<glyph unicode="&#x2004;" horiz-adv-x="562" />
<glyph unicode="&#x2005;" horiz-adv-x="422" />
<glyph unicode="&#x2006;" horiz-adv-x="281" />
<glyph unicode="&#x2007;" horiz-adv-x="281" />
<glyph unicode="&#x2008;" horiz-adv-x="211" />
<glyph unicode="&#x2009;" horiz-adv-x="337" />
<glyph unicode="&#x200a;" horiz-adv-x="93" />
<glyph unicode="&#x200c;" />
<glyph unicode="&#x200d;" />
<glyph unicode="&#x200e;" />
<glyph unicode="&#x200f;" />
<glyph unicode="&#x2010;" horiz-adv-x="733" d="M25 408v102h684v-102h-684z" />
<glyph unicode="&#x2011;" horiz-adv-x="733" d="M25 408v102h684v-102h-684z" />
<glyph unicode="&#x2012;" horiz-adv-x="733" d="M25 408v102h684v-102h-684z" />
<glyph unicode="&#x2013;" horiz-adv-x="882" d="M53 408v102h770v-102h-770z" />
<glyph unicode="&#x2014;" horiz-adv-x="1390" d="M53 408v102h1278v-102h-1278z" />
<glyph unicode="&#x2018;" horiz-adv-x="319" d="M111 872q0 42 14 79.5t33.5 59t37 34t27.5 12.5h23q-33 -84 -33 -152q0 -29 8.5 -51t17.5 -30l9 -7v-18h-125q-12 34 -12 73z" />
<glyph unicode="&#x2019;" horiz-adv-x="307" d="M88 1038v19h127q12 -35 12 -74q0 -55 -24 -100t-49 -64.5t-39 -19.5h-23q33 83 33 151q0 29 -9.5 51t-18.5 29z" />
<glyph unicode="&#x201a;" horiz-adv-x="294" d="M68 98v19h127q12 -35 12 -74q0 -42 -14 -79t-34 -58.5t-37.5 -34t-27.5 -12.5h-22q32 83 32 151q0 29 -9 51t-18 29z" />
<glyph unicode="&#x201c;" horiz-adv-x="509" d="M100 872q0 42 14 79.5t34 59t37.5 34t27.5 12.5h23q-33 -84 -33 -152q0 -29 8.5 -51t17.5 -30l9 -7v-18h-125q-13 34 -13 73zM295 872q0 42 14 79.5t34 59t37.5 34t27.5 12.5h22q-33 -84 -33 -152q0 -29 8.5 -51t17.5 -30l9 -7v-18h-125q-12 34 -12 73z" />
<glyph unicode="&#x201d;" horiz-adv-x="499" d="M80 1038v19h125q12 -35 12 -74q0 -42 -14 -79t-34 -58.5t-37.5 -34t-27.5 -12.5h-22q33 83 33 151q0 29 -8.5 51t-17.5 29zM274 1038v19h125q13 -35 13 -74q0 -42 -14 -79t-34 -58.5t-37.5 -34t-27.5 -12.5h-23q33 83 33 151q0 29 -8.5 51t-17.5 29z" />
<glyph unicode="&#x201e;" horiz-adv-x="487" d="M68 98v19h127q12 -35 12 -74q0 -42 -14 -79t-34 -58.5t-37.5 -34t-27.5 -12.5h-22q32 83 32 151q0 29 -9 51t-18 29zM268 98v19h127q13 -35 13 -74q0 -42 -14 -79t-34 -58.5t-37.5 -34t-27.5 -12.5h-23q33 83 33 151q0 29 -9.5 51t-18.5 29z" />
<glyph unicode="&#x2020;" horiz-adv-x="806" d="M47 709q12 28 12 71q0 18 -3 36t-6 27l-3 9l315 -37l-32 272q28 -10 71 -10q18 0 36 2.5t27 4.5l9 3l-33 -272l312 37q-11 -31 -11 -72q0 -19 2.5 -37t5.5 -26l3 -8l-306 36q7 -31 7 -65v-569l-15 -271h-73l-15 271v569q-3 38 6 65z" />
<glyph unicode="&#x2021;" horiz-adv-x="806" d="M47 709q12 28 12 71q0 18 -3 36t-6 27l-3 9l315 -37l-32 272q28 -10 71 -10q18 0 36 2.5t27 4.5l9 3l-33 -272l312 37q-11 -31 -11 -72q0 -19 2.5 -37t5.5 -26l3 -8l-306 36q7 -31 7 -65v-150l301 35q-11 -30 -11 -71q0 -19 2.5 -37t5.5 -27l3 -8l-301 37v-348l-15 -271 h-73l-15 271v348l-301 -37q12 29 12 72q0 18 -3 36t-6 26l-3 9l301 -35v150q-3 38 6 65z" />
<glyph unicode="&#x2022;" horiz-adv-x="669" d="M113 477q0 92 64.5 157.5t156.5 65.5t157.5 -65.5t65.5 -157.5t-65.5 -156.5t-157.5 -64.5t-156.5 64.5t-64.5 156.5z" />
<glyph unicode="&#x2026;" horiz-adv-x="804" d="M70 61q0 32 21.5 54t53.5 22q31 0 53.5 -22t22.5 -54q0 -31 -22.5 -53t-53.5 -22q-32 0 -53.5 22t-21.5 53zM322 61q0 32 21.5 54t53.5 22q31 0 53.5 -22t22.5 -54q0 -31 -22.5 -53t-53.5 -22q-32 0 -53.5 22t-21.5 53zM580 61q0 32 21.5 54t53.5 22q31 0 53.5 -22 t22.5 -54q0 -31 -22.5 -53t-53.5 -22q-32 0 -53.5 22t-21.5 53z" />
<glyph unicode="&#x202f;" horiz-adv-x="337" />
<glyph unicode="&#x2030;" horiz-adv-x="1392" d="M53 823q0 91 52 149t135 58t134.5 -58t51.5 -149q0 -93 -51.5 -151t-134.5 -58t-135 58.5t-52 150.5zM131 823q0 -56 29.5 -90.5t79.5 -34.5q49 0 78.5 34.5t29.5 90.5q0 55 -29.5 89t-78.5 34q-50 0 -79.5 -34t-29.5 -89zM172 -6l416 930q34 82 22 98l6 10q40 -8 80 -8 h29l-414 -932q-36 -84 -22 -98l-8 -10q-50 10 -80 10h-29zM467 193q0 92 51.5 150t134.5 58t135 -58t52 -150t-52 -150.5t-135 -58.5t-134.5 58t-51.5 151zM545 193q0 -56 28.5 -90t79.5 -35q50 2 79.5 36t29.5 89t-29.5 88.5t-79.5 33.5q-51 0 -79.5 -33t-28.5 -89z M938 193q0 92 51.5 150t134.5 58t135 -58t52 -150t-52 -150.5t-135 -58.5t-134.5 58t-51.5 151zM1016 193q0 -56 28.5 -90t79.5 -35q50 2 79.5 36t29.5 89t-29.5 88.5t-79.5 33.5q-51 0 -79.5 -33t-28.5 -89z" />
<glyph unicode="&#x2032;" horiz-adv-x="266" />
<glyph unicode="&#x2033;" horiz-adv-x="598" />
<glyph unicode="&#x2039;" horiz-adv-x="583" d="M47 401v121l457 252q24 13 24 25l9 2v-88q0 -33 -33 -47l-373 -203l377 -203q15 -7 23 -19t9 -20l1 -8v-90l-9 4q0 12 -24 23z" />
<glyph unicode="&#x203a;" horiz-adv-x="595" d="M47 123v90q0 31 33 47l377 203l-373 203q-15 6 -23 18t-9 20l-1 9v88l8 -2q0 -11 25 -25l457 -252v-121l-461 -251q-25 -11 -25 -23z" />
<glyph unicode="&#x2044;" horiz-adv-x="567" d="M-25 -135l480 1110q34 86 20 100l8 12q33 -10 80 -10h39l-477 -1110q-37 -88 -23 -102l-8 -10q-50 10 -90 10h-29z" />
<glyph unicode="&#x205f;" horiz-adv-x="422" />
<glyph unicode="&#x20a3;" horiz-adv-x="833" d="M25 264v103h174v579q0 31 -7.5 60t-14 42.5t-9.5 16.5v10q57 -10 82 -10h532q-10 -33 -10 -70q0 -16 2.5 -39t5.5 -38l2 -15h-10q-1 4 -3.5 8.5t-11 14.5t-19.5 17.5t-32 13.5t-47 6h-358v-357h293q30 1 55 8.5t35 13t14 9.5h11q-11 -63 -11 -82q0 -16 3 -37t5 -34l3 -13 h-11q-3 4 -13.5 10.5t-35.5 14t-55 8.5h-293v-137h285v-103h-285v-151q2 -29 9 -55t13.5 -39.5t10.5 -14.5v-10q-62 10 -84 10q-16 0 -36.5 -2.5t-33.5 -5.5l-12 -2v10q3 1 9.5 14t13.5 40t8 55v151h-174z" />
<glyph unicode="&#x20ab;" horiz-adv-x="858" d="M61 377q0 182 100 289.5t267 107.5q71 0 143 -31v111h-159v102h159q0 36 -12.5 63t-22.5 35.5t-16 10.5v10q50 -8 103 -8h51v-111h137v-102h-137l2 -717q1 -27 11.5 -51t25 -38.5t29 -25t24.5 -14.5l10 -4v-8q-40 4 -82 4q-17 0 -37.5 -2t-32.5 -4l-12 -2l-30 88 q-73 -92 -181 -92q-163 0 -251.5 104t-88.5 285zM68 -123h743v-104h-743v104zM164 377q0 -132 63.5 -208.5t173.5 -76.5q114 0 170 105v421q-56 52 -143 52q-128 0 -196 -78.5t-68 -214.5z" />
<glyph unicode="&#x20ac;" horiz-adv-x="925" d="M29 344v8v94v9h80q-5 57 -5 69t5 70h-80v102h98q43 164 166 257.5t303 93.5q42 0 100.5 -9.5t71.5 -9.5q16 0 31 5t21 9l7 5q-8 -43 -8 -80l8 -111h-10q-1 3 -8.5 11t-26 21.5t-42.5 25.5t-62.5 21t-81.5 9q-135 0 -230 -65t-133 -183h357v-102h-379q-4 -46 -4 -70 q0 -23 4 -69h379v-9v-94v-8h-354q41 -122 135.5 -190t224.5 -68q103 0 173 32.5t81 59.5l4 4l57 -94q-4 -4 -12.5 -11t-38 -25t-63 -32t-88 -25t-113.5 -11q-176 0 -299 96.5t-168 263.5h-100z" />
<glyph unicode="&#x2113;" horiz-adv-x="585" d="M23 446q-1 1 11 8.5t38.5 25t50.5 34.5q-2 168 -2 381q0 47 6.5 84.5t23.5 76t54 60t92 21.5q56 0 91.5 -49t43 -119.5t-10.5 -153t-61 -145.5q-45 -66 -110 -125l-2 -322q-1 -6 -1.5 -15.5t3 -33.5t12.5 -43t32.5 -34t57.5 -15q45 0 86 24t60 48l18 24l37 -33 q-4 -7 -10.5 -17.5t-30.5 -38.5t-50.5 -49t-69 -38.5t-87.5 -17.5t-79.5 17t-52.5 41.5t-29 49t-14 41.5l-3 17q-2 139 -4 299q-20 -13 -39.5 -23.5t-29.5 -15.5l-9 -4zM250 625q117 126 117 241v46.5t-1.5 43.5t-5 43.5t-9.5 32.5t-16 25.5t-24 7.5q-28 0 -43 -26t-16 -52 v-26z" />
<glyph unicode="&#x2122;" horiz-adv-x="897" d="M33 965q6 30 6 53l-6 39h426l133 -242l133 242h31q35 0 47 6v-6q-2 -2 -5.5 -9.5t-8 -23.5t-5.5 -33v-297q3 -47 19 -63v-6q-27 6 -47 6q-11 0 -47 -6l-2 6q2 1 6 8.5t8 22.5t4 32v242l-133 -240v2l-133 238v-242q1 -17 5 -32t7.5 -22t5.5 -9v-4q-28 4 -47 4l-47 -4v4 q2 2 5 9t7 22t4 32v297v6h-145v-303q1 -17 4.5 -32t7.5 -22.5t6 -8.5v-4q-28 4 -47 4l-49 -4v4q3 1 7 8.5t8 22.5t4 32v303h-91q-13 0 -23.5 -2.5t-16.5 -5.5t-11.5 -7t-7.5 -7.5t-4 -6.5l-2 -3h-6z" />
<glyph unicode="&#x2126;" horiz-adv-x="1034" d="M88 594q0 95 29.5 172t74.5 124.5t102 80t108.5 45t97.5 12.5h37q46 0 97 -12.5t108 -45t102 -80t74.5 -124.5t29.5 -172q0 -61 -13 -121t-34 -107.5t-46 -90.5t-50.5 -74t-46.5 -53.5t-34 -33.5l-13 -12h84q30 1 57 8t39.5 14t15.5 11h11q-11 -69 -11 -84v-51h-317v88 q10 7 27.5 21t61.5 61.5t78 102t61.5 141.5t27.5 180q0 83 -32 149.5t-80.5 104.5t-100 58t-96.5 20h-37q-45 0 -96.5 -20t-100.5 -58t-81 -104.5t-32 -149.5q0 -93 26.5 -179.5t64 -143t75 -100t64.5 -63.5l26 -20v-88h-319v51q0 34 -8 84h10q1 -4 14.5 -11t41 -14t57.5 -8 h84q-10 8 -26 22.5t-57 64t-72.5 103t-57 136t-25.5 166.5z" />
<glyph unicode="&#x212e;" horiz-adv-x="1210" />
<glyph unicode="&#x2153;" horiz-adv-x="1097" />
<glyph unicode="&#x2154;" horiz-adv-x="1097" />
<glyph unicode="&#x2155;" horiz-adv-x="1097" />
<glyph unicode="&#x2156;" horiz-adv-x="1097" />
<glyph unicode="&#x2157;" horiz-adv-x="1097" />
<glyph unicode="&#x2158;" horiz-adv-x="1097" />
<glyph unicode="&#x2159;" horiz-adv-x="1097" />
<glyph unicode="&#x215a;" horiz-adv-x="1097" />
<glyph unicode="&#x215b;" horiz-adv-x="1097" />
<glyph unicode="&#x215c;" horiz-adv-x="1097" />
<glyph unicode="&#x215d;" horiz-adv-x="1097" />
<glyph unicode="&#x215e;" horiz-adv-x="1097" />
<glyph unicode="&#x2202;" horiz-adv-x="825" />
<glyph unicode="&#x2206;" horiz-adv-x="825" />
<glyph unicode="&#x220f;" horiz-adv-x="931" d="M133 -106v1150h668v-1150h-113v1038h-442v-1038h-113z" />
<glyph unicode="&#x2211;" horiz-adv-x="825" />
<glyph unicode="&#x2212;" horiz-adv-x="825" />
<glyph unicode="&#x221a;" horiz-adv-x="825" d="M59 578l224 71l227 -622l182 1132h94l-215 -1341h-82l-280 721l-125 -41z" />
<glyph unicode="&#x221e;" horiz-adv-x="1310" d="M59 424q0 121 83.5 199.5t201.5 78.5q43 0 85 -16t82.5 -47.5t71.5 -62t72 -76.5q83 87 159.5 137.5t164.5 50.5q121 0 196.5 -73.5t75.5 -190.5q0 -118 -78 -193t-194 -75q-89 0 -166 52t-158 144q-86 -93 -158.5 -144.5t-152.5 -51.5q-121 0 -203 76t-82 192zM160 424 q0 -77 53.5 -123.5t130.5 -46.5q38 0 83.5 27t77.5 58t85 87q-52 58 -85 90.5t-77.5 60t-83.5 27.5q-78 0 -131 -52t-53 -128zM721 424q2 -3 30 -32t35 -35.5t32 -29.5t38.5 -30.5t36 -20.5t43.5 -17.5t43 -4.5q77 0 124.5 48.5t47.5 121.5q0 79 -47.5 121.5t-124.5 42.5 q-18 0 -35 -2.5t-34.5 -10.5t-30 -13.5t-31 -19.5t-27.5 -20t-28 -25t-24 -23.5t-25.5 -26t-22.5 -23.5z" />
<glyph unicode="&#x222b;" horiz-adv-x="802" d="M186 -283q-8 45 31 45q18 0 36 -11.5t21 -26.5q3 -29 20 -42.5t36 -13.5q31 0 42.5 23.5t10.5 83.5l-78 1009q-21 381 125 381q56 0 101.5 -29.5t56.5 -70.5q8 -47 -33 -47q-18 0 -37 13t-22 28q-3 29 -20 42t-36 13q-31 0 -43.5 -24.5t-9.5 -83.5l80 -1006 q21 -383 -127 -383q-56 0 -100.5 29.5t-53.5 70.5z" />
<glyph unicode="&#x2248;" horiz-adv-x="784" d="M45 262q1 3 15 22t16 21q24 32 51 52t58 25t57 5.5t61.5 -11t58.5 -20.5t60 -26q149 -64 211 -11q19 17 28.5 39.5t6.5 40.5l8 4l65 -88q-2 -4 -15.5 -26t-16.5 -25q-28 -37 -59 -57t-61 -26t-70.5 2t-74.5 20t-86 35q-160 73 -217 0q-10 -11 -13 -30t1 -22l-4 -4z M45 510q1 3 15 22t16 21q24 32 51 52t58 25t57 5.5t61.5 -11t58.5 -20.5t60 -26q149 -64 211 -11q19 17 28.5 39.5t6.5 40.5l8 4l65 -88q-2 -4 -15.5 -26t-16.5 -25q-28 -37 -59 -57t-61 -26t-70.5 1.5t-75 19.5t-85.5 35q-160 73 -217 0q-10 -11 -13 -29.5t1 -21.5l-4 -4z " />
<glyph unicode="&#x2260;" horiz-adv-x="870" d="M49 250v102h281l78 144h-359v102h414l94 168h105l-95 -168h264v-102h-319l-78 -144h397v-102h-452l-137 -250h-107l139 250h-225z" />
<glyph unicode="&#x2264;" horiz-adv-x="890" d="M47 0v102h789v-102h-789zM68 506v121q406 182 708 315q25 14 25 25l8 2v-88q0 -33 -33 -47q-120 -53 -344.5 -154t-251.5 -113q510 -228 596 -266q15 -7 23 -19t9 -20l1 -8v-90l-8 4q0 11 -25 22z" />
<glyph unicode="&#x2265;" horiz-adv-x="888" d="M47 0v102h789v-102h-789zM74 164v90q-1 31 32 47l596 266l-596 267q-15 6 -23 18t-9 20v9v88l8 -2q0 -12 24 -25l709 -315v-121l-709 -316q-24 -11 -24 -22z" />
<glyph unicode="&#x25ca;" horiz-adv-x="825" d="M90 467l277 551h100l276 -551l-276 -551h-100zM197 465l219 -449l221 449q-143 288 -221 448z" />
<glyph unicode="&#x25cc;" horiz-adv-x="835" d="M35 428q0 16 12.5 27.5t26.5 11.5t26.5 -11.5t12.5 -27.5q0 -12 -13 -24.5t-26 -12.5t-26 12.5t-13 24.5zM63 297q0 39 37 39t37 -39q0 -37 -37 -37t-37 37zM63 561q0 35 37 35t37 -35q0 -41 -35 -41q-39 0 -39 41zM137 184q0 39 37 39q39 0 39 -39q0 -37 -39 -37 q-37 0 -37 37zM137 668q0 41 37 41q39 0 39 -41q0 -33 -39 -33q-37 0 -37 33zM248 111q0 39 37 39t37 -35q0 -39 -37 -39t-37 35zM248 743q0 39 37 39t37 -39q0 -34 -37 -34t-37 34zM377 84q0 16 12.5 27.5t26.5 11.5t26.5 -11.5t12.5 -27.5q0 -12 -13 -24.5t-26 -12.5 t-26 12.5t-13 24.5zM377 770q0 16 12.5 27.5t26.5 11.5t26.5 -11.5t12.5 -27.5q0 -13 -12.5 -25t-26.5 -12t-26.5 12t-12.5 25zM512 743q0 39 37 39q35 0 35 -39q0 -34 -35 -34q-37 0 -37 34zM514 111q0 39 35 39t35 -39q0 -35 -35 -35t-35 35zM618 668q0 41 41 41 q35 0 35 -41q0 -33 -35 -33q-41 0 -41 33zM621 184q0 39 38 39q35 0 35 -39q0 -37 -35 -37q-38 0 -38 37zM694 297q0 39 37 39q39 0 39 -39q0 -37 -39 -37q-37 0 -37 37zM694 561q0 35 39 35q37 0 37 -35q0 -41 -39 -41q-37 0 -37 41zM723 428q0 39 39 39q14 0 25.5 -11 t11.5 -28q0 -12 -12 -24.5t-25 -12.5q-16 0 -27.5 12t-11.5 25z" />
<glyph unicode="&#x25fc;" horiz-adv-x="768" d="M0 0v768h768v-768h-768z" />
<glyph unicode="&#xf700;" horiz-adv-x="782" d="M8 721q7 1 27 24t51.5 53.5t74.5 61t107.5 51.5t137.5 21q72 0 139 -17.5t98 -34.5l31 -18v-137h-8q-58 104 -260 104q-64 0 -123 -25t-86 -50l-27 -25q114 -14 210.5 -44t174 -76.5t122 -115.5t44.5 -153v-21q-1 -42 -14.5 -85t-40.5 -85t-63.5 -74.5t-89.5 -52.5 t-114 -20h-153q5 6 11.5 17.5t18 59.5t11.5 109q0 73 -38 138.5t-81.5 99t-71.5 33.5l8 20h162q72 -52 105.5 -156.5t15.5 -216.5h21q31 0 66 13t68 38t54.5 70t21.5 101v12q0 242 -577 326z" />
<glyph unicode="&#xf701;" d="M-915 1028v78q7 0 30.5 11t54 24t92.5 24t136 11t135.5 -11t93 -24t55.5 -24t31 -11v-78q-9 5 -29.5 12.5t-101.5 20t-184 12.5q-104 0 -182 -11.5t-104 -22.5z" />
<glyph unicode="&#xf702;" d="M-928 1028v80q10 7 39 20.5t97 30.5t139 17q8 0 16.5 5.5t11.5 16.5q15 70 15 127l94 18q0 -28 3.5 -64.5t6.5 -58.5l4 -22q6 -20 31 -24q43 -4 89 -20t68 -27t33 -19v-80q-9 5 -28 12.5t-100 20t-187 12.5q-105 0 -188 -11.5t-114 -22.5z" />
<glyph unicode="&#xf703;" d="M-975 1026v78q9 5 27 14t81.5 26.5t135.5 24.5q-8 28 -8 45q0 57 45.5 97.5t109.5 40.5t110 -40.5t46 -97.5q0 -36 -14 -61q44 -9 82.5 -21t55.5 -20l17 -8v-78q-14 5 -40.5 12.5t-118.5 20t-195 12.5q-104 0 -187.5 -11.5t-115.5 -22.5zM-655 1214q0 -24 16 -40 q49 0 107 -7q20 20 20 47q0 26 -21.5 45t-50.5 19t-50 -19t-21 -45z" />
<glyph unicode="&#xf704;" d="M-930 1024v78q5 0 24 9t58 22t86 22q12 6 17 21q16 72 16 127l74 18l14 -145v-7q16 2 49 2h35q2 3 2 5l14 127l74 18q0 -27 3.5 -63.5t7.5 -59.5l3 -22q6 -15 27 -19q42 -9 75 -22.5t49.5 -23t22.5 -9.5v-78q-9 5 -28.5 12.5t-100 20t-184.5 12.5q-103 0 -187.5 -11.5 t-117.5 -22.5z" />
<glyph unicode="&#xf705;" d="M-471 1032v193l102 26v-219h-102z" />
<glyph unicode="&#xf706;" d="M-791 1243q17 53 17 96h41q76 0 104.5 -52.5t-16.5 -115.5v-4q28 -28 108 -28q79 0 159 26.5t120 57.5v-66q-30 -36 -114.5 -76.5t-168.5 -40.5q-91 0 -151 27.5t-84 65.5q14 11 27.5 25.5t20.5 23.5l7 8q17 19 10.5 42t-34.5 23q-22 0 -46 -12z" />
<glyph unicode="&#xf707;" d="M-905 1026v111q0 67 30.5 93.5t92.5 26.5q54 0 81.5 -12.5t43.5 -56.5q25 69 114 69h99v-149h12q31 0 43 12.5t12 44.5v90h103v-92q0 -62 -42 -99.5t-102 -37.5h-123v137h-20q-62 0 -62 -57v-14h-73v14q0 57 -37 57h-29q-17 0 -29 -12t-12 -27v-24q3 -42 27 -60v-14h-129 z" />
<glyph unicode="&#xf708;" d="M-651 1100v102h92q18 0 18 19v69l103 27v-96q0 -19 16 -19h94v-102h-94q-16 0 -16 -19v-69h-103v69q0 19 -18 19h-92z" />
<glyph unicode="&#xf709;" d="M-526 997v80q0 68 40.5 106t102.5 38h43q61 0 61 16h9v-61q0 -13 -2 -21.5t-8 -18t-21 -14t-39 -4.5h-33q-22 0 -36.5 -13.5t-14.5 -33.5q0 -40 25 -59v-15h-127z" />
<glyph unicode="&#xf70a;" d="M-238 1032v193l103 26v-219h-103z" />
<glyph unicode="&#xf70b;" d="M-526 1243q16 50 16 96h41q76 0 104.5 -52.5t-16.5 -115.5v-4q28 -28 109 -28q79 0 158.5 26.5t119.5 57.5v-66q-30 -36 -114 -76.5t-168 -40.5q-91 0 -151.5 27.5t-84.5 65.5q14 11 27.5 25.5t20.5 23.5l7 8q17 19 10.5 42t-34.5 23q-21 0 -45 -12z" />
<glyph unicode="&#xf70c;" d="M-631 1026v111q0 68 41 105.5t103 37.5h28q77 0 111 -92q16 43 46.5 67.5t53.5 24.5h131v-172h27q65 0 65 57v66q0 25 9.5 38t20.5 16t28 3h71v-8q-17 0 -21.5 -12t-4.5 -37v-45q0 -83 -47 -121.5t-113 -38.5h-137v152h-25q-69 0 -69 -72v-14h-74v14q0 72 -72 72h-18 q-22 0 -36.5 -14t-14.5 -34v-30q3 -42 26 -60v-14h-129z" />
<glyph unicode="&#xf70d;" d="M-309 1100v102h76q18 0 18 19v69l102 27v-96q0 -8 5 -13.5t12 -5.5h78v-102h-78q-17 0 -17 -19v-69h-102v69q0 19 -18 19h-76z" />
<glyph unicode="&#xf70e;" d="M-375 997v80q0 68 40.5 106t103.5 38h43q61 0 61 16h8v-61q0 -14 -1.5 -22t-8 -17.5t-21 -14t-38.5 -4.5h-33q-22 0 -36.5 -13.5t-14.5 -33.5q0 -41 24 -59v-15h-127z" />
<glyph unicode="&#xf70f;" horiz-adv-x="1413" d="M63 711q-1 0 0.5 7.5t2.5 15.5l2 7q18 6 54.5 34t73.5 55t101 49t135 22q63 0 114.5 -12.5t84.5 -32t58 -47t37.5 -53t20 -55.5t9.5 -48.5t2 -36.5v-354q0 -69 52 -118.5t159 -49.5q106 0 157.5 49.5t51.5 118.5v572q0 13 -9 25t-14 15v5q44 -7 74 -7t74 7v-5 q-8 -4 -15.5 -15.5t-7.5 -24.5v-572q0 -51 -14 -95t-46.5 -85.5t-96.5 -65.5t-154 -24q-73 0 -130 16.5t-91 43t-55.5 63t-29.5 72t-8 75.5v348q0 22 -4 43t-17.5 48.5t-36.5 48t-65.5 35t-99.5 14.5q-60 0 -104 -15t-85.5 -41.5t-52.5 -31.5q38 -15 79 -53t61 -85l-2 -8 q-38 -12 -64 -48.5t-26 -76.5v-313q0 -26 16 -40.5t41 -14.5q15 0 29 3t22.5 6t9.5 3q-16 -50 -16 -96h-45q-78 0 -120 35t-42 102v315q0 44 29.5 79.5t75.5 49.5q-57 105 -175 142z" />
<glyph unicode="&#xf710;" d="M-836 1112q43 37 60 84h18q17 -32 74.5 -55t116.5 -23q79 0 158.5 26.5t119.5 57.5v-65q-30 -36 -114 -76.5t-168 -40.5q-94 0 -168.5 28.5t-96.5 63.5z" />
<glyph unicode="&#xf711;" d="M-694 1118v31q2 60 49 93.5t133 33.5q85 0 132 -32.5t52 -90.5v-39q-5 -59 -52 -92t-132 -33q-86 0 -133 34t-49 95zM-580 1124q0 -15 17.5 -31t50.5 -16q34 0 52 15.5t18 31.5v19q0 16 -18 31.5t-52 15.5q-33 0 -50.5 -16t-17.5 -31v-19z" />
<glyph unicode="&#xf712;" d="M-870 1016v96q0 246 290 246h156q129 0 129 37h6v-103q0 -37 -135 -37h-190q-74 0 -114 -35t-40 -102h113q80 0 80 51v15h86v-15q0 -51 73 -51h54q45 3 59 29h14v-131h-135q-79 0 -108 92q-17 -44 -51 -68t-58 -24h-229z" />
<glyph unicode="&#xf713;" d="M-627 1524v55q17 -6 52 -6l75 6v-55q-16 -72 -16 -127l-94 -21q0 28 -4 65t-8 60z" />
<glyph unicode="&#xf714;" d="M-649 1565q16 50 16 96h41q76 0 104.5 -52.5t-16.5 -115.5v-4q29 -29 109 -29q79 0 158.5 26.5t119.5 57.5v-65q-30 -36 -114 -76.5t-168 -40.5q-92 0 -152.5 27.5t-83.5 64.5q14 11 27.5 25.5t20.5 22.5l7 9q17 19 10.5 42.5t-34.5 23.5q-21 0 -45 -12z" />
<glyph unicode="&#xf715;" d="M-797 1331v111q0 68 41 105.5t103 37.5h28q77 0 111 -92q16 43 46.5 67.5t53.5 24.5h131v-151h27q66 0 66 57v33q0 24 4.5 38.5t14 21t17.5 8t21 1.5h82v-8q-17 0 -27 -19t-10 -42v-33q0 -83 -47 -121.5t-113 -38.5h-43h-94v152h-25q-69 0 -69 -72v-14h-74v14 q0 72 -72 72h-18q-22 0 -36.5 -13.5t-14.5 -33.5v-31q3 -41 26 -59v-15h-129z" />
<glyph unicode="&#xf716;" d="M-709 1470v103h91q18 0 18 18v70l102 27v-97q0 -18 17 -18h92v-103h-92q-17 0 -17 -18v-49l-102 -17v66q0 18 -18 18h-91z" />
<glyph unicode="&#xf717;" d="M-463 1307v79q0 68 40.5 106t103.5 38h43q61 0 61 16h8v-61q0 -14 -1.5 -22t-8 -17.5t-21 -14t-38.5 -4.5h-33q-22 0 -36.5 -13.5t-14.5 -33.5q0 -41 24 -59v-14h-127z" />
<glyph unicode="&#xf718;" d="M-258 -373h106q16 0 25.5 -10.5t9.5 -24.5v-153q0 -28 17 -45q-28 0 -57.5 -8t-45.5 -16l-16 -9v170q0 25 -9.5 43.5t-19.5 24.5l-10 6v22z" />
<glyph unicode="&#xf719;" d="M-526 -369h108q15 0 24 -10t9 -24v-76q2 -26 17.5 -41t41.5 -15h45q26 0 42.5 15t17.5 41v110h102v-123q0 -66 -41.5 -100.5t-120.5 -34.5h-45q-161 0 -161 135v27q0 25 -9.5 43.5t-19.5 24.5l-10 6v22z" />
<glyph horiz-adv-x="606" d="M-696 1178q0 64 45 106.5t110 42.5q64 0 109 -42.5t45 -106.5t-45 -107t-109 -43q-65 0 -110 43t-45 107zM-612 1178q0 -30 20.5 -51t50.5 -21q29 0 50.5 21.5t21.5 50.5q0 30 -21 50.5t-51 20.5q-31 0 -51 -20t-20 -51zM0 778v119q84 31 168 31q49 0 90.5 -8t71 -20.5 t53 -32t38.5 -38t25.5 -44t15.5 -43.5t7.5 -44t3 -38t0.5 -32v-5v-582q0 -26 23 -41v-6q-31 8 -72 8q-43 0 -76 -8v6q6 2 14.5 15t8.5 26v582q0 32 -2 53.5t-13 52.5t-31 49.5t-60.5 32.5t-96.5 14q-60 0 -104 -15.5t-56 -31.5h-8z" />
<glyph d="M-698 1217q0 64 40.5 116t104.5 72q-25 52 -25 96q0 77 55.5 118.5t127.5 41.5q8 0 16 12h6v-88q-45 8 -79.5 -14.5t-34.5 -73.5q0 -60 51 -90v-100q-56 32 -112 3.5t-56 -93.5q0 -49 29 -77t53 -28q15 0 25 7.5t10 13.5h14l-6 -121q-45 -5 -94 15t-87 70.5t-38 119.5z " />
<glyph d="M-256 -459q0 35 25.5 60.5t60.5 25.5t60.5 -25.5t25.5 -60.5t-25.5 -60.5t-60.5 -25.5t-60.5 25.5t-25.5 60.5z" />
<glyph horiz-adv-x="946" d="M14 96q24 -12 60 -12q26 0 42 14.5t17 40.5v314q0 43 29 79.5t74 49.5q-56 104 -175 141l7 31q17 6 58.5 34t83 54.5t110 48.5t139.5 22q87 0 154 -23.5t103.5 -57t59.5 -75.5t30 -72.5t7 -55.5v-828q0 -16 -26 -43.5t-70 -56t-116.5 -49.5t-151.5 -21q-62 0 -132.5 21.5 t-118.5 46.5t-85.5 46.5t-42.5 21.5v102q101 0 181.5 38t127.5 107h84q-32 -73 -110 -135.5t-158 -81.5q47 -26 121 -44.5t133 -18.5q66 0 129 20t98 44.5t35 41.5v783q0 26 -12 55t-38.5 60.5t-79 52t-122.5 20.5q-46 0 -92 -11t-71 -22.5t-61.5 -31t-44.5 -23.5 q37 -16 77.5 -53t60.5 -84v-8q-39 -12 -65.5 -48.5t-26.5 -76.5v-316q0 -137 -162 -137h-45q0 38 -15 96z" />
<glyph horiz-adv-x="946" d="M14 96q24 -12 60 -12q26 0 42 14.5t17 40.5v314q0 43 29.5 79t73.5 50q-53 103 -175 141l7 31q17 6 58.5 34t83 54.5t110.5 48.5t141 22q86 0 153 -23.5t103 -57t59 -75.5t30 -72.5t7 -55.5v-834q0 -14 -43 -51.5t-99.5 -70.5t-88.5 -33q-1 4 -4 10t-13 21.5t-22.5 27.5 t-34 21.5t-45.5 9.5t-44.5 -9.5t-33 -22.5t-22 -26t-13.5 -22l-4 -10q-46 0 -111.5 30t-113 60t-49.5 30v103q100 0 180.5 38t126.5 107h84q-31 -73 -109 -135.5t-157 -81.5q79 -45 131 -51q2 3 5.5 7.5t15.5 16t26.5 20.5t38 16t49.5 7q40 0 71.5 -14.5t43.5 -29.5l12 -15 q39 6 80 36.5t41 49.5v789q0 20 -6.5 42.5t-24.5 49t-45 47.5t-72 35t-102 14q-47 0 -92.5 -11t-71.5 -23t-61.5 -30.5t-45.5 -23.5q38 -15 78.5 -52.5t59.5 -84.5v-8q-39 -12 -65.5 -48.5t-26.5 -76.5v-316q0 -137 -162 -137h-43q-3 53 -17 96z" />
<glyph horiz-adv-x="1138" d="M14 858v16q20 -2 64 -2q43 0 92 11l238 -721l167 459l-4 12q-8 20 -23 38.5t-22 22.5v4q60 -6 84 -6h54l186 -526l115 348q31 91 29 124q-4 68 -107 74q-12 1 -25 1h-61q25 45 35 84h38q21 0 32.5 1t33 5t32.5 16t11 31v35q0 42 -25 59l5 10q24 -4 61 -4q18 0 33.5 2 t21.5 4l6 2v-98q0 -36 -22 -67t-64 -35q38 -13 60 -37.5t29 -49t4 -60.5t-8 -56.5t-15 -52.5l-172 -527q-55 46 -117 66q-96 270 -151 430l-176 -496q-46 40 -115 66l-227 694q-24 72 -97 123z" />
<glyph horiz-adv-x="1359" d="M61 723l7 29q17 7 58.5 35.5t83 55t110.5 48.5t141 22q152 0 244 -71q91 71 217 71q49 0 90.5 -8t71 -20.5t53 -32t38.5 -38t25.5 -44t15.5 -43.5t7.5 -44t3 -38t0.5 -32v-5v-1011q0 -30 22 -41v-7q-44 7 -73 7q-30 0 -74 -7v7q6 3 14 14.5t8 26.5v1011q0 32 -2 53.5 t-13 52.5t-31 50t-60 33t-96 14q-98 0 -154 -39q45 -69 45 -145v-1035q0 -26 23 -41v-4q-40 7 -74 7q-30 0 -74 -7v4q6 2 14.5 15t8.5 26v1031q0 20 -6.5 42.5t-24.5 49t-45 47.5t-72 35t-102 14q-47 0 -92.5 -11t-71.5 -23t-61.5 -30.5t-45.5 -23.5q38 -15 78.5 -52.5 t59.5 -84.5v-8q-40 -13 -66 -49t-26 -76v-314q1 -26 17 -40.5t42 -14.5q35 0 59 12q-14 -54 -14 -96h-45q-162 0 -162 137v316q0 43 29 79.5t74 49.5q-56 104 -175 141z" />
<glyph horiz-adv-x="1359" d="M14 96q1 -1 8.5 -4t22 -5.5t29.5 -2.5q26 0 42 14.5t17 40.5v314q0 43 29 79.5t74 49.5q-56 104 -175 141q-1 0 0.5 7.5t2.5 14.5l2 7q17 7 59 35.5t83.5 55t110.5 48.5t140 22q154 0 246 -71q102 71 217 71q49 0 90.5 -8t71 -20.5t53 -32t38.5 -38t25.5 -44t15.5 -43.5 t7.5 -44t3 -38t0.5 -32v-5v-1011q0 -26 22 -41v-7q-44 7 -73 7q-30 0 -74 -7v7q6 3 14 14.5t8 26.5v1011q0 32 -2 53.5t-13 52.5t-31 50t-60 33t-96 14q-54 0 -94.5 -13t-59.5 -28q45 -71 45 -143v-1035q0 -14 8 -25.5t15 -15.5v-4q-44 7 -74 7t-74 -7v4q5 3 14 15.5t9 25.5 v1031q0 26 -12 55t-38.5 60.5t-79 52t-122.5 20.5q-46 0 -92 -11t-71 -22.5t-61.5 -31t-44.5 -23.5q37 -16 77.5 -53t60.5 -84v-8q-40 -13 -66 -49t-26 -76v-318q0 -66 -42 -100.5t-120 -34.5h-45q0 38 -15 96z" />
<glyph horiz-adv-x="2988" d="M51 391q-6 18 29 58q9 10 112 10t202 -5l98 -5q29 0 72.5 -56.5t43.5 -89.5q0 -130 -58 -240t-149.5 -171.5t-191.5 -61.5q-50 0 -76.5 10.5t-42.5 44.5q-2 6 -5.5 15.5t-8.5 29.5t-4 29q1 13 19 46.5t24 39.5q10 10 28 10q10 0 32 -12t30 -25q6 -1 1 -13t-5 -21 q0 -13 9 -21t17 -8q84 0 154 56t105.5 135.5t35.5 158.5q0 17 -35.5 40.5t-74.5 23.5q-334 -4 -340 0q-15 8 -21 22zM117 526q-2 8 8 26t22 30q24 14 100 13.5t159 -7.5l83 -8q12 0 21 -23q7 -23 0 -38t-23 -13l-350 -4q-14 7 -20 24zM626 111.5q22 53.5 54 101.5 q23 35 56.5 52.5t55.5 19.5t62 2h12q28 0 66 -33q1 3 2 8t2 8q10 28 -3 46t-52 18q-160 -4 -168 0q-13 7 -19 24q-6 16 29 56q9 11 55 11t88 -5l41 -6q45 0 78 -45l53 110q5 13 29 13q22 0 34 -12t7 -25q-133 -414 -137 -418q-10 -10 -47 -10q-8 0 -25 16.5t-27 32.5 q-7 14 33 114q-8 29 -37 29q-48 4 -68.5 -8t-43.5 -53q-11 -19 -14.5 -30t3.5 -15q22 3 27 -2q29 -25 27 -37q-3 -19 -17 -29q-8 -6 -33 -18t-38 -13q-10 -1 -31 6.5t-37 15.5l-16 7q-23 15 -1 68.5zM702 526q-6 16 29 56q21 14 77.5 13.5t117.5 -7.5l61 -8q12 0 21 -23 q7 -22 0 -37.5t-21 -13.5l-266 -4q-13 7 -19 24zM1053 72q-13 25 24 111t80 159l43 74q5 12 29 12q22 0 34.5 -12t6.5 -25l-10 -24q7 7 19 17t45.5 27t61.5 17q26 0 49.5 -35t20.5 -55q-63 -187 -63 -203q-3 -20 18 -20q18 0 23.5 -11.5t0.5 -26t-12.5 -26.5t-11.5 -14 q-29 -10 -57 -10q-43 0 -65.5 26t-4.5 90l74 168q4 7 -2 24t-17 17q-14 0 -55 -15t-49 -28q-92 -266 -98 -272q-13 -10 -31 -10q-8 0 -27.5 16t-25.5 29zM1479 72q-8 16 8.5 60t36.5 80l20 36q5 12 29 12q22 0 34 -12t7 -25q-21 -64 -37 -117q4 -4 10 -4q91 0 109 41l28 80 q-196 86 -202 90q-8 5 1 27t23 42l13 19q1 2 3.5 5.5t9 9t11.5 4.5l240 6q11 -6 18 -23q4 -11 -24 -47q-4 -5 -13.5 -7.5t-25 -3.5t-29.5 -1t-35.5 2t-34 3t-34 3.5t-27.5 3.5h-12l-7 -14l203 -88q8 -6 10.5 -14t1.5 -12l-2 -5l-26 -123q-5 -14 -9.5 -23t-23 -23.5 t-47.5 -20.5q-26 -6 -184 -6q-8 0 -21 14.5t-22 30.5zM1577 526q-6 16 29 56q21 14 77.5 13.5t117.5 -7.5l61 -8q11 0 20 -23q7 -23 0.5 -38t-20.5 -13l-267 -4q-12 6 -18 24zM1833 621q-10 13 10 63q6 16 51 29t87 19l42 5q9 2 27 -16q13 -20 10.5 -36t-16.5 -19 q-54 -21 -109 -39q-8 -2 -8.5 -13.5t-3.5 -13.5q-8 -4 -34.5 -2.5t-37.5 6.5q-14 11 -18 17zM2044 -145q-15 27 188 481q-56 -9 -99.5 23t-43.5 85q0 70 40.5 127.5t102.5 90.5t128.5 51t125.5 18q128 0 214.5 -64.5t86.5 -174.5q0 -74 -38 -133.5t-91 -86.5 q-81 -197 -82 -202q2 -1 8.5 -4.5t12 -6t8.5 -0.5q29 15 61 47l140 304q5 12 28 12t35 -12.5t6 -26.5q-94 -275 -100 -283q-11 -21 -65 -45q-19 -9 -75 -26t-81 -11h-2q-7 0 -22.5 12.5t-26.5 26.5q-8 -3 -28 -10t-31.5 -10.5t-31.5 -9t-27.5 -5.5t-21.5 1q-9 0 -28.5 16 t-26.5 31q-13 24 24 110t80 160l44 74q6 10 30 10q23 0 34 -11.5t5 -25.5q-88 -245 -119 -317q22 -15 31 -9q48 23 62 56q1 1 10.5 21t26 55t28.5 59q-8 0 -14 6q-5 4 -9 17t-5 23l-1 11q6 21 21 44t33 24q41 3 65.5 27.5t29.5 46t5 41.5q0 57 -51.5 104t-155.5 47 q-66 0 -129 -21t-105 -60.5t-42 -86.5q0 -27 17 -47.5t50 -3.5q9 6 25 6q22 0 34.5 -12t6.5 -25q-209 -571 -215 -577q-11 -11 -29 -11q-9 0 -26 17.5t-25 32.5z" />
</font>
</defs>
</svg>
